<?xml version="1.0" encoding="UTF-8" standalone="no"?>
<!DOCTYPE svg PUBLIC "-//W3C//DTD SVG 1.1//EN"
 "http://www.w3.org/Graphics/SVG/1.1/DTD/svg11.dtd">
<!-- Generated by graphviz version 2.42.3 (0)
 -->
<!-- Title: pack_type Pages: 1 -->
<svg width="282pt" height="28pt"
 viewBox="0.00 0.00 282.00 28.00" xmlns="http://www.w3.org/2000/svg" xmlns:xlink="http://www.w3.org/1999/xlink">
<g id="graph0" class="graph" transform="scale(1 1) rotate(0) translate(4 24)">
<title>pack_type</title>
<polygon fill="white" stroke="transparent" points="-4,4 -4,-24 278,-24 278,4 -4,4"/>
<!-- Node1 -->
<g id="node1" class="node">
<title>Node1</title>
<g id="a_node1"><a xlink:title=" ">
<polygon fill="#bfbfbf" stroke="black" points="0,-0.5 0,-19.5 62,-19.5 62,-0.5 0,-0.5"/>
<text text-anchor="middle" x="31" y="-7.5" font-family="Helvetica,sans-Serif" font-size="10.00">pack_type</text>
</a>
</g>
</g>
<!-- Node2 -->
<g id="node2" class="node">
<title>Node2</title>
<g id="a_node2"><a xlink:href="structBitSet.html#aac795d2dc9109ed7a5fb800a866256f4" target="_top" xlink:title="Return whether a number is in the set.">
<polygon fill="white" stroke="black" points="98,-0.5 98,-19.5 161,-19.5 161,-0.5 98,-0.5"/>
<text text-anchor="middle" x="129.5" y="-7.5" font-family="Helvetica,sans-Serif" font-size="10.00">BitSet::get</text>
</a>
</g>
</g>
<!-- Node1&#45;&gt;Node2 -->
<g id="edge1" class="edge">
<title>Node1&#45;&gt;Node2</title>
<path fill="none" stroke="midnightblue" d="M62,-10C70.11,-10 79.02,-10 87.6,-10"/>
<polygon fill="midnightblue" stroke="midnightblue" points="87.85,-13.5 97.85,-10 87.85,-6.5 87.85,-13.5"/>
</g>
<!-- Node3 -->
<g id="node3" class="node">
<title>Node3</title>
<g id="a_node3"><a xlink:href="structBitSet.html#a46274b431928dfd890099035e52c371a" target="_top" xlink:title="Turn number into corresponding element of set.">
<polygon fill="white" stroke="black" points="197,-0.5 197,-19.5 274,-19.5 274,-0.5 197,-0.5"/>
<text text-anchor="middle" x="235.5" y="-7.5" font-family="Helvetica,sans-Serif" font-size="10.00">BitSet::to_set</text>
</a>
</g>
</g>
<!-- Node2&#45;&gt;Node3 -->
<g id="edge2" class="edge">
<title>Node2&#45;&gt;Node3</title>
<path fill="none" stroke="midnightblue" d="M161.14,-10C169.15,-10 177.98,-10 186.65,-10"/>
<polygon fill="midnightblue" stroke="midnightblue" points="186.71,-13.5 196.71,-10 186.71,-6.5 186.71,-13.5"/>
</g>
</g>
</svg>
