<?xml version="1.0" encoding="UTF-8" standalone="no"?>
<!DOCTYPE svg PUBLIC "-//W3C//DTD SVG 1.1//EN"
 "http://www.w3.org/Graphics/SVG/1.1/DTD/svg11.dtd">
<!-- Generated by graphviz version 2.42.3 (0)
 -->
<!-- Title: exchangeArr Pages: 1 -->
<svg width="395pt" height="66pt"
 viewBox="0.00 0.00 395.00 66.00" xmlns="http://www.w3.org/2000/svg" xmlns:xlink="http://www.w3.org/1999/xlink">
<g id="graph0" class="graph" transform="scale(1 1) rotate(0) translate(4 62)">
<title>exchangeArr</title>
<polygon fill="white" stroke="transparent" points="-4,4 -4,-62 391,-62 391,4 -4,4"/>
<!-- Node1 -->
<g id="node1" class="node">
<title>Node1</title>
<g id="a_node1"><a xlink:title=" ">
<polygon fill="#bfbfbf" stroke="black" points="0,-19.5 0,-38.5 71,-38.5 71,-19.5 0,-19.5"/>
<text text-anchor="middle" x="35.5" y="-26.5" font-family="Helvetica,sans-Serif" font-size="10.00">exchangeArr</text>
</a>
</g>
</g>
<!-- Node2 -->
<g id="node2" class="node">
<title>Node2</title>
<g id="a_node2"><a xlink:href="brick-mpi_8h.html#a179784ded21f893300aff63e7d49dea4" target="_top" xlink:title="Enumerate all neighbors.">
<polygon fill="white" stroke="black" points="107,-38.5 107,-57.5 175,-57.5 175,-38.5 107,-38.5"/>
<text text-anchor="middle" x="141" y="-45.5" font-family="Helvetica,sans-Serif" font-size="10.00">allneighbors</text>
</a>
</g>
</g>
<!-- Node1&#45;&gt;Node2 -->
<g id="edge1" class="edge">
<title>Node1&#45;&gt;Node2</title>
<path fill="none" stroke="midnightblue" d="M71.25,-35.38C79.52,-36.9 88.45,-38.54 97.04,-40.11"/>
<polygon fill="midnightblue" stroke="midnightblue" points="96.45,-43.56 106.92,-41.93 97.71,-36.68 96.45,-43.56"/>
</g>
<!-- Node5 -->
<g id="node5" class="node">
<title>Node5</title>
<g id="a_node5"><a xlink:href="array-mpi_8h.html#a021f5c9ecb2e1283f134ba4cb3777995" target="_top" xlink:title=" ">
<polygon fill="white" stroke="black" points="114.5,-0.5 114.5,-19.5 167.5,-19.5 167.5,-0.5 114.5,-0.5"/>
<text text-anchor="middle" x="141" y="-7.5" font-family="Helvetica,sans-Serif" font-size="10.00">evalsize</text>
</a>
</g>
</g>
<!-- Node1&#45;&gt;Node5 -->
<g id="edge4" class="edge">
<title>Node1&#45;&gt;Node5</title>
<path fill="none" stroke="midnightblue" d="M71.25,-22.62C81.93,-20.66 93.7,-18.5 104.43,-16.53"/>
<polygon fill="midnightblue" stroke="midnightblue" points="105.14,-19.96 114.34,-14.71 103.87,-13.07 105.14,-19.96"/>
</g>
<!-- Node3 -->
<g id="node3" class="node">
<title>Node3</title>
<g id="a_node3"><a xlink:href="structBitSet.html#a16777c7f003bbd964210fc95bec2d1a4" target="_top" xlink:title="Flipping an element.">
<polygon fill="white" stroke="black" points="211.5,-38.5 211.5,-57.5 273.5,-57.5 273.5,-38.5 211.5,-38.5"/>
<text text-anchor="middle" x="242.5" y="-45.5" font-family="Helvetica,sans-Serif" font-size="10.00">BitSet::flip</text>
</a>
</g>
</g>
<!-- Node2&#45;&gt;Node3 -->
<g id="edge2" class="edge">
<title>Node2&#45;&gt;Node3</title>
<path fill="none" stroke="midnightblue" d="M175.13,-48C183.41,-48 192.38,-48 200.98,-48"/>
<polygon fill="midnightblue" stroke="midnightblue" points="201.2,-51.5 211.2,-48 201.2,-44.5 201.2,-51.5"/>
</g>
<!-- Node4 -->
<g id="node4" class="node">
<title>Node4</title>
<g id="a_node4"><a xlink:href="structBitSet.html#a46274b431928dfd890099035e52c371a" target="_top" xlink:title="Turn number into corresponding element of set.">
<polygon fill="white" stroke="black" points="310,-19.5 310,-38.5 387,-38.5 387,-19.5 310,-19.5"/>
<text text-anchor="middle" x="348.5" y="-26.5" font-family="Helvetica,sans-Serif" font-size="10.00">BitSet::to_set</text>
</a>
</g>
</g>
<!-- Node3&#45;&gt;Node4 -->
<g id="edge3" class="edge">
<title>Node3&#45;&gt;Node4</title>
<path fill="none" stroke="midnightblue" d="M273.58,-42.5C281.78,-41.01 290.86,-39.35 299.77,-37.72"/>
<polygon fill="midnightblue" stroke="midnightblue" points="300.5,-41.14 309.71,-35.9 299.24,-34.26 300.5,-41.14"/>
</g>
<!-- Node6 -->
<g id="node6" class="node">
<title>Node6</title>
<g id="a_node6"><a xlink:href="structBitSet.html#aac795d2dc9109ed7a5fb800a866256f4" target="_top" xlink:title="Return whether a number is in the set.">
<polygon fill="white" stroke="black" points="211,-0.5 211,-19.5 274,-19.5 274,-0.5 211,-0.5"/>
<text text-anchor="middle" x="242.5" y="-7.5" font-family="Helvetica,sans-Serif" font-size="10.00">BitSet::get</text>
</a>
</g>
</g>
<!-- Node5&#45;&gt;Node6 -->
<g id="edge5" class="edge">
<title>Node5&#45;&gt;Node6</title>
<path fill="none" stroke="midnightblue" d="M167.62,-10C177.68,-10 189.46,-10 200.63,-10"/>
<polygon fill="midnightblue" stroke="midnightblue" points="200.64,-13.5 210.64,-10 200.64,-6.5 200.64,-13.5"/>
</g>
<!-- Node6&#45;&gt;Node4 -->
<g id="edge6" class="edge">
<title>Node6&#45;&gt;Node4</title>
<path fill="none" stroke="midnightblue" d="M274.14,-15.6C282.15,-17.06 290.98,-18.67 299.65,-20.26"/>
<polygon fill="midnightblue" stroke="midnightblue" points="299.24,-23.74 309.71,-22.1 300.5,-16.85 299.24,-23.74"/>
</g>
</g>
</svg>
