<?xml version="1.0" encoding="UTF-8" standalone="no"?>
<!DOCTYPE svg PUBLIC "-//W3C//DTD SVG 1.1//EN"
 "http://www.w3.org/Graphics/SVG/1.1/DTD/svg11.dtd">
<!-- Generated by graphviz version 2.42.3 (0)
 -->
<!-- Title: exchangeArrAll Pages: 1 -->
<svg width="407pt" height="66pt"
 viewBox="0.00 0.00 407.00 66.00" xmlns="http://www.w3.org/2000/svg" xmlns:xlink="http://www.w3.org/1999/xlink">
<g id="graph0" class="graph" transform="scale(1 1) rotate(0) translate(4 62)">
<title>exchangeArrAll</title>
<polygon fill="white" stroke="transparent" points="-4,4 -4,-62 403,-62 403,4 -4,4"/>
<!-- Node1 -->
<g id="node1" class="node">
<title>Node1</title>
<g id="a_node1"><a xlink:title=" ">
<polygon fill="#bfbfbf" stroke="black" points="0,-19.5 0,-38.5 83,-38.5 83,-19.5 0,-19.5"/>
<text text-anchor="middle" x="41.5" y="-26.5" font-family="Helvetica,sans-Serif" font-size="10.00">exchangeArrAll</text>
</a>
</g>
</g>
<!-- Node2 -->
<g id="node2" class="node">
<title>Node2</title>
<g id="a_node2"><a xlink:href="brick-mpi_8h.html#a179784ded21f893300aff63e7d49dea4" target="_top" xlink:title="Enumerate all neighbors.">
<polygon fill="white" stroke="black" points="119,-38.5 119,-57.5 187,-57.5 187,-38.5 119,-38.5"/>
<text text-anchor="middle" x="153" y="-45.5" font-family="Helvetica,sans-Serif" font-size="10.00">allneighbors</text>
</a>
</g>
</g>
<!-- Node1&#45;&gt;Node2 -->
<g id="edge1" class="edge">
<title>Node1&#45;&gt;Node2</title>
<path fill="none" stroke="midnightblue" d="M83.27,-36.07C91.57,-37.52 100.33,-39.03 108.72,-40.49"/>
<polygon fill="midnightblue" stroke="midnightblue" points="108.25,-43.96 118.7,-42.22 109.45,-37.06 108.25,-43.96"/>
</g>
<!-- Node5 -->
<g id="node5" class="node">
<title>Node5</title>
<g id="a_node5"><a xlink:href="array-mpi_8h.html#a021f5c9ecb2e1283f134ba4cb3777995" target="_top" xlink:title=" ">
<polygon fill="white" stroke="black" points="126.5,-0.5 126.5,-19.5 179.5,-19.5 179.5,-0.5 126.5,-0.5"/>
<text text-anchor="middle" x="153" y="-7.5" font-family="Helvetica,sans-Serif" font-size="10.00">evalsize</text>
</a>
</g>
</g>
<!-- Node1&#45;&gt;Node5 -->
<g id="edge4" class="edge">
<title>Node1&#45;&gt;Node5</title>
<path fill="none" stroke="midnightblue" d="M83.27,-21.93C94.13,-20.04 105.77,-18.02 116.32,-16.19"/>
<polygon fill="midnightblue" stroke="midnightblue" points="117.2,-19.59 126.45,-14.43 116,-12.69 117.2,-19.59"/>
</g>
<!-- Node3 -->
<g id="node3" class="node">
<title>Node3</title>
<g id="a_node3"><a xlink:href="structBitSet.html#a16777c7f003bbd964210fc95bec2d1a4" target="_top" xlink:title="Flipping an element.">
<polygon fill="white" stroke="black" points="223.5,-38.5 223.5,-57.5 285.5,-57.5 285.5,-38.5 223.5,-38.5"/>
<text text-anchor="middle" x="254.5" y="-45.5" font-family="Helvetica,sans-Serif" font-size="10.00">BitSet::flip</text>
</a>
</g>
</g>
<!-- Node2&#45;&gt;Node3 -->
<g id="edge2" class="edge">
<title>Node2&#45;&gt;Node3</title>
<path fill="none" stroke="midnightblue" d="M187.13,-48C195.41,-48 204.38,-48 212.98,-48"/>
<polygon fill="midnightblue" stroke="midnightblue" points="213.2,-51.5 223.2,-48 213.2,-44.5 213.2,-51.5"/>
</g>
<!-- Node4 -->
<g id="node4" class="node">
<title>Node4</title>
<g id="a_node4"><a xlink:href="structBitSet.html#a46274b431928dfd890099035e52c371a" target="_top" xlink:title="Turn number into corresponding element of set.">
<polygon fill="white" stroke="black" points="322,-19.5 322,-38.5 399,-38.5 399,-19.5 322,-19.5"/>
<text text-anchor="middle" x="360.5" y="-26.5" font-family="Helvetica,sans-Serif" font-size="10.00">BitSet::to_set</text>
</a>
</g>
</g>
<!-- Node3&#45;&gt;Node4 -->
<g id="edge3" class="edge">
<title>Node3&#45;&gt;Node4</title>
<path fill="none" stroke="midnightblue" d="M285.58,-42.5C293.78,-41.01 302.86,-39.35 311.77,-37.72"/>
<polygon fill="midnightblue" stroke="midnightblue" points="312.5,-41.14 321.71,-35.9 311.24,-34.26 312.5,-41.14"/>
</g>
<!-- Node6 -->
<g id="node6" class="node">
<title>Node6</title>
<g id="a_node6"><a xlink:href="structBitSet.html#aac795d2dc9109ed7a5fb800a866256f4" target="_top" xlink:title="Return whether a number is in the set.">
<polygon fill="white" stroke="black" points="223,-0.5 223,-19.5 286,-19.5 286,-0.5 223,-0.5"/>
<text text-anchor="middle" x="254.5" y="-7.5" font-family="Helvetica,sans-Serif" font-size="10.00">BitSet::get</text>
</a>
</g>
</g>
<!-- Node5&#45;&gt;Node6 -->
<g id="edge5" class="edge">
<title>Node5&#45;&gt;Node6</title>
<path fill="none" stroke="midnightblue" d="M179.62,-10C189.68,-10 201.46,-10 212.63,-10"/>
<polygon fill="midnightblue" stroke="midnightblue" points="212.64,-13.5 222.64,-10 212.64,-6.5 212.64,-13.5"/>
</g>
<!-- Node6&#45;&gt;Node4 -->
<g id="edge6" class="edge">
<title>Node6&#45;&gt;Node4</title>
<path fill="none" stroke="midnightblue" d="M286.14,-15.6C294.15,-17.06 302.98,-18.67 311.65,-20.26"/>
<polygon fill="midnightblue" stroke="midnightblue" points="311.24,-23.74 321.71,-22.1 312.5,-16.85 311.24,-23.74"/>
</g>
</g>
</svg>
