<?xml version="1.0" encoding="UTF-8" standalone="no"?>
<!DOCTYPE svg PUBLIC "-//W3C//DTD SVG 1.1//EN"
 "http://www.w3.org/Graphics/SVG/1.1/DTD/svg11.dtd">
<!-- Generated by graphviz version 2.42.3 (0)
 -->
<!-- Title: include/array&#45;mpi.h Pages: 1 -->
<!--zoomable 196 -->
<svg id="main" version="1.1" xmlns="http://www.w3.org/2000/svg" xmlns:xlink="http://www.w3.org/1999/xlink" xml:space="preserve" onload="init(evt)">
<style type="text/css"><![CDATA[
.edge:hover path { stroke: red; }
.edge:hover polygon { stroke: red; fill: red; }
]]></style>
<script type="text/javascript"><![CDATA[
var edges = document.getElementsByTagName('g');
if (edges && edges.length) {
  for (var i=0;i<edges.length;i++) {
    if (edges[i].id.substr(0,4)=='edge') {
      edges[i].setAttribute('class','edge');
    }
  }
}
]]></script>
        <defs>
                <circle id="rim" cx="0" cy="0" r="7"/>
                <circle id="rim2" cx="0" cy="0" r="3.5"/>
                <g id="zoomPlus">
                        <use xlink:href="#rim" fill="#404040">
                                <set attributeName="fill" to="#808080" begin="zoomplus.mouseover" end="zoomplus.mouseout"/>
                        </use>
                        <path d="M-4,0h8M0,-4v8" fill="none" stroke="white" stroke-width="1.5" pointer-events="none"/>
                </g>
                <g id="zoomMin">
                        <use xlink:href="#rim" fill="#404040">
                                <set attributeName="fill" to="#808080" begin="zoomminus.mouseover" end="zoomminus.mouseout"/>
                        </use>
                        <path d="M-4,0h8" fill="none" stroke="white" stroke-width="1.5" pointer-events="none"/>
                </g>
                <g id="dirArrow">
                        <path fill="none" stroke="white" stroke-width="1.5" d="M0,-3.0v7 M-2.5,-0.5L0,-3.0L2.5,-0.5"/>
                </g>
               <g id="resetDef">
                       <use xlink:href="#rim2" fill="#404040">
                               <set attributeName="fill" to="#808080" begin="reset.mouseover" end="reset.mouseout"/>
                       </use>
               </g>
        </defs>

<script type="text/javascript">
var viewWidth = 1068;
var viewHeight = 196;
var sectionId = 'dynsection-0';
</script>
<script xlink:href="svgpan.js"/>
<svg id="graph" class="graph">
<g id="viewport">
<title>include/array&#45;mpi.h</title>
<polygon fill="white" stroke="transparent" points="-4,4 -4,-192 1064,-192 1064,4 -4,4"/>
<!-- Node1 -->
<g id="node1" class="node">
<title>Node1</title>
<g id="a_node1"><a xlink:title="Reference MPI communication with arrays.">
<polygon fill="#bfbfbf" stroke="black" points="104,-168.5 104,-187.5 203,-187.5 203,-168.5 104,-168.5"/>
<text text-anchor="middle" x="153.5" y="-175.5" font-family="Helvetica,sans-Serif" font-size="10.00">include/array&#45;mpi.h</text>
</a>
</g>
</g>
<!-- Node2 -->
<g id="node2" class="node">
<title>Node2</title>
<g id="a_node2"><a xlink:href="brick-mpi_8h.html" target="_top" xlink:title="MPI stuff related to bricks.">
<polygon fill="white" stroke="black" points="326,-112.5 326,-131.5 391,-131.5 391,-112.5 326,-112.5"/>
<text text-anchor="middle" x="358.5" y="-119.5" font-family="Helvetica,sans-Serif" font-size="10.00">brick&#45;mpi.h</text>
</a>
</g>
</g>
<!-- Node1&#45;&gt;Node2 -->
<g id="edge1" class="edge">
<title>Node1&#45;&gt;Node2</title>
<path fill="none" stroke="midnightblue" d="M185.98,-168.44C221.22,-159.16 277.6,-144.31 316.26,-134.13"/>
<polygon fill="midnightblue" stroke="midnightblue" points="317.39,-137.45 326.17,-131.52 315.61,-130.68 317.39,-137.45"/>
</g>
<!-- Node10 -->
<g id="node10" class="node">
<title>Node10</title>
<g id="a_node10"><a xlink:title=" ">
<polygon fill="white" stroke="#bfbfbf" points="0,-0.5 0,-19.5 41,-19.5 41,-0.5 0,-0.5"/>
<text text-anchor="middle" x="20.5" y="-7.5" font-family="Helvetica,sans-Serif" font-size="10.00">mpi.h</text>
</a>
</g>
</g>
<!-- Node1&#45;&gt;Node10 -->
<g id="edge29" class="edge">
<title>Node1&#45;&gt;Node10</title>
<path fill="none" stroke="midnightblue" d="M145.11,-168.45C128.65,-151.49 91.3,-112.1 63.5,-76 51.54,-60.47 39.35,-41.71 31.02,-28.34"/>
<polygon fill="midnightblue" stroke="midnightblue" points="33.91,-26.36 25.69,-19.68 27.95,-30.03 33.91,-26.36"/>
</g>
<!-- Node3 -->
<g id="node3" class="node">
<title>Node3</title>
<g id="a_node3"><a xlink:title=" ">
<polygon fill="white" stroke="#bfbfbf" points="618.5,-0.5 618.5,-19.5 662.5,-19.5 662.5,-0.5 618.5,-0.5"/>
<text text-anchor="middle" x="640.5" y="-7.5" font-family="Helvetica,sans-Serif" font-size="10.00">vector</text>
</a>
</g>
</g>
<!-- Node2&#45;&gt;Node3 -->
<g id="edge2" class="edge">
<title>Node2&#45;&gt;Node3</title>
<path fill="none" stroke="midnightblue" d="M391.24,-119.56C453.75,-116.16 586.88,-105.56 620.5,-76 633.64,-64.45 638.27,-44.48 639.84,-29.72"/>
<polygon fill="midnightblue" stroke="midnightblue" points="643.34,-29.89 640.53,-19.67 636.35,-29.41 643.34,-29.89"/>
</g>
<!-- Node4 -->
<g id="node4" class="node">
<title>Node4</title>
<g id="a_node4"><a xlink:title=" ">
<polygon fill="white" stroke="#bfbfbf" points="125,-56.5 125,-75.5 208,-75.5 208,-56.5 125,-56.5"/>
<text text-anchor="middle" x="166.5" y="-63.5" font-family="Helvetica,sans-Serif" font-size="10.00">unordered_map</text>
</a>
</g>
</g>
<!-- Node2&#45;&gt;Node4 -->
<g id="edge3" class="edge">
<title>Node2&#45;&gt;Node4</title>
<path fill="none" stroke="midnightblue" d="M328.08,-112.44C295.22,-103.2 242.72,-88.44 206.53,-78.26"/>
<polygon fill="midnightblue" stroke="midnightblue" points="207.35,-74.85 196.78,-75.52 205.46,-81.59 207.35,-74.85"/>
</g>
<!-- Node5 -->
<g id="node5" class="node">
<title>Node5</title>
<g id="a_node5"><a xlink:title=" ">
<polygon fill="white" stroke="#bfbfbf" points="226.5,-56.5 226.5,-75.5 282.5,-75.5 282.5,-56.5 226.5,-56.5"/>
<text text-anchor="middle" x="254.5" y="-63.5" font-family="Helvetica,sans-Serif" font-size="10.00">algorithm</text>
</a>
</g>
</g>
<!-- Node2&#45;&gt;Node5 -->
<g id="edge4" class="edge">
<title>Node2&#45;&gt;Node5</title>
<path fill="none" stroke="midnightblue" d="M341.79,-112.32C325.19,-103.7 299.5,-90.36 280.28,-80.39"/>
<polygon fill="midnightblue" stroke="midnightblue" points="281.66,-77.16 271.17,-75.65 278.43,-83.37 281.66,-77.16"/>
</g>
<!-- Node6 -->
<g id="node6" class="node">
<title>Node6</title>
<g id="a_node6"><a xlink:title=" ">
<polygon fill="white" stroke="#bfbfbf" points="301,-56.5 301,-75.5 350,-75.5 350,-56.5 301,-56.5"/>
<text text-anchor="middle" x="325.5" y="-63.5" font-family="Helvetica,sans-Serif" font-size="10.00">cassert</text>
</a>
</g>
</g>
<!-- Node2&#45;&gt;Node6 -->
<g id="edge5" class="edge">
<title>Node2&#45;&gt;Node6</title>
<path fill="none" stroke="midnightblue" d="M353.05,-112.08C348.49,-104.61 341.83,-93.72 336.21,-84.52"/>
<polygon fill="midnightblue" stroke="midnightblue" points="339.05,-82.46 330.85,-75.75 333.08,-86.11 339.05,-82.46"/>
</g>
<!-- Node7 -->
<g id="node7" class="node">
<title>Node7</title>
<g id="a_node7"><a xlink:title=" ">
<polygon fill="white" stroke="#bfbfbf" points="368.5,-56.5 368.5,-75.5 414.5,-75.5 414.5,-56.5 368.5,-56.5"/>
<text text-anchor="middle" x="391.5" y="-63.5" font-family="Helvetica,sans-Serif" font-size="10.00">cstring</text>
</a>
</g>
</g>
<!-- Node2&#45;&gt;Node7 -->
<g id="edge6" class="edge">
<title>Node2&#45;&gt;Node7</title>
<path fill="none" stroke="midnightblue" d="M363.95,-112.08C368.51,-104.61 375.17,-93.72 380.79,-84.52"/>
<polygon fill="midnightblue" stroke="midnightblue" points="383.92,-86.11 386.15,-75.75 377.95,-82.46 383.92,-86.11"/>
</g>
<!-- Node8 -->
<g id="node8" class="node">
<title>Node8</title>
<g id="a_node8"><a xlink:title=" ">
<polygon fill="white" stroke="#bfbfbf" points="432.5,-56.5 432.5,-75.5 476.5,-75.5 476.5,-56.5 432.5,-56.5"/>
<text text-anchor="middle" x="454.5" y="-63.5" font-family="Helvetica,sans-Serif" font-size="10.00">cmath</text>
</a>
</g>
</g>
<!-- Node2&#45;&gt;Node8 -->
<g id="edge7" class="edge">
<title>Node2&#45;&gt;Node8</title>
<path fill="none" stroke="midnightblue" d="M373.92,-112.32C389.04,-103.82 412.32,-90.73 429.97,-80.8"/>
<polygon fill="midnightblue" stroke="midnightblue" points="432.11,-83.61 439.11,-75.65 428.68,-77.51 432.11,-83.61"/>
</g>
<!-- Node9 -->
<g id="node9" class="node">
<title>Node9</title>
<g id="a_node9"><a xlink:title=" ">
<polygon fill="white" stroke="#bfbfbf" points="92.5,-0.5 92.5,-19.5 146.5,-19.5 146.5,-0.5 92.5,-0.5"/>
<text text-anchor="middle" x="119.5" y="-7.5" font-family="Helvetica,sans-Serif" font-size="10.00">iostream</text>
</a>
</g>
</g>
<!-- Node2&#45;&gt;Node9 -->
<g id="edge8" class="edge">
<title>Node2&#45;&gt;Node9</title>
<path fill="none" stroke="midnightblue" d="M325.58,-120.18C263.58,-117.86 133.22,-109.09 105.5,-76 94.42,-62.77 101.05,-42.83 108.49,-28.52"/>
<polygon fill="midnightblue" stroke="midnightblue" points="111.63,-30.09 113.56,-19.67 105.56,-26.61 111.63,-30.09"/>
</g>
<!-- Node2&#45;&gt;Node10 -->
<g id="edge9" class="edge">
<title>Node2&#45;&gt;Node10</title>
<path fill="none" stroke="midnightblue" d="M325.81,-120.87C274.54,-119.5 173.17,-111.98 96.5,-76 71.83,-64.42 48.85,-42.61 34.75,-27.47"/>
<polygon fill="midnightblue" stroke="midnightblue" points="37.18,-24.93 27.88,-19.84 31.98,-29.62 37.18,-24.93"/>
</g>
<!-- Node11 -->
<g id="node11" class="node">
<title>Node11</title>
<g id="a_node11"><a xlink:title=" ">
<polygon fill="white" stroke="#bfbfbf" points="494.5,-56.5 494.5,-75.5 538.5,-75.5 538.5,-56.5 494.5,-56.5"/>
<text text-anchor="middle" x="516.5" y="-63.5" font-family="Helvetica,sans-Serif" font-size="10.00">omp.h</text>
</a>
</g>
</g>
<!-- Node2&#45;&gt;Node11 -->
<g id="edge10" class="edge">
<title>Node2&#45;&gt;Node11</title>
<path fill="none" stroke="midnightblue" d="M383.54,-112.44C410.98,-103.07 455.06,-88 484.87,-77.81"/>
<polygon fill="midnightblue" stroke="midnightblue" points="486.06,-81.1 494.39,-74.56 483.79,-74.48 486.06,-81.1"/>
</g>
<!-- Node12 -->
<g id="node12" class="node">
<title>Node12</title>
<g id="a_node12"><a xlink:title=" ">
<polygon fill="white" stroke="#bfbfbf" points="230,-0.5 230,-19.5 281,-19.5 281,-0.5 230,-0.5"/>
<text text-anchor="middle" x="255.5" y="-7.5" font-family="Helvetica,sans-Serif" font-size="10.00">unistd.h</text>
</a>
</g>
</g>
<!-- Node2&#45;&gt;Node12 -->
<g id="edge11" class="edge">
<title>Node2&#45;&gt;Node12</title>
<path fill="none" stroke="midnightblue" d="M325.94,-119.93C266,-117.19 141.91,-107.75 115.5,-76 84.24,-38.42 168.63,-21.39 219.71,-14.71"/>
<polygon fill="midnightblue" stroke="midnightblue" points="220.25,-18.17 229.75,-13.47 219.4,-11.22 220.25,-18.17"/>
</g>
<!-- Node13 -->
<g id="node13" class="node">
<title>Node13</title>
<g id="a_node13"><a xlink:href="brick_8h.html" target="_top" xlink:title="Main header for bricks.">
<polygon fill="white" stroke="black" points="879.5,-56.5 879.5,-75.5 925.5,-75.5 925.5,-56.5 879.5,-56.5"/>
<text text-anchor="middle" x="902.5" y="-63.5" font-family="Helvetica,sans-Serif" font-size="10.00">brick.h</text>
</a>
</g>
</g>
<!-- Node2&#45;&gt;Node13 -->
<g id="edge12" class="edge">
<title>Node2&#45;&gt;Node13</title>
<path fill="none" stroke="midnightblue" d="M391.3,-117.74C488.06,-108.14 771.59,-79.99 869.11,-70.31"/>
<polygon fill="midnightblue" stroke="midnightblue" points="869.66,-73.78 879.27,-69.31 868.97,-66.81 869.66,-73.78"/>
</g>
<!-- Node17 -->
<g id="node17" class="node">
<title>Node17</title>
<g id="a_node17"><a xlink:href="bitset_8h.html" target="_top" xlink:title="Set using bitfield.">
<polygon fill="white" stroke="black" points="693,-56.5 693,-75.5 742,-75.5 742,-56.5 693,-56.5"/>
<text text-anchor="middle" x="717.5" y="-63.5" font-family="Helvetica,sans-Serif" font-size="10.00">bitset.h</text>
</a>
</g>
</g>
<!-- Node2&#45;&gt;Node17 -->
<g id="edge16" class="edge">
<title>Node2&#45;&gt;Node17</title>
<path fill="none" stroke="midnightblue" d="M391.31,-116.06C458.98,-105.89 613.48,-82.65 682.76,-72.23"/>
<polygon fill="midnightblue" stroke="midnightblue" points="683.37,-75.67 692.73,-70.73 682.32,-68.75 683.37,-75.67"/>
</g>
<!-- Node20 -->
<g id="node20" class="node">
<title>Node20</title>
<g id="a_node20"><a xlink:href="memfd_8h.html" target="_top" xlink:title="Helper data structure for memory file.">
<polygon fill="white" stroke="black" points="557,-56.5 557,-75.5 612,-75.5 612,-56.5 557,-56.5"/>
<text text-anchor="middle" x="584.5" y="-63.5" font-family="Helvetica,sans-Serif" font-size="10.00">memfd.h</text>
</a>
</g>
</g>
<!-- Node2&#45;&gt;Node20 -->
<g id="edge19" class="edge">
<title>Node2&#45;&gt;Node20</title>
<path fill="none" stroke="midnightblue" d="M391.29,-113.24C427.08,-104.77 486.33,-90.7 546.89,-76.14"/>
<polygon fill="midnightblue" stroke="midnightblue" points="547.72,-79.54 556.62,-73.8 546.08,-72.73 547.72,-79.54"/>
</g>
<!-- Node14 -->
<g id="node14" class="node">
<title>Node14</title>
<g id="a_node14"><a xlink:title=" ">
<polygon fill="white" stroke="#bfbfbf" points="842.5,-0.5 842.5,-19.5 890.5,-19.5 890.5,-0.5 842.5,-0.5"/>
<text text-anchor="middle" x="866.5" y="-7.5" font-family="Helvetica,sans-Serif" font-size="10.00">stdlib.h</text>
</a>
</g>
</g>
<!-- Node13&#45;&gt;Node14 -->
<g id="edge13" class="edge">
<title>Node13&#45;&gt;Node14</title>
<path fill="none" stroke="midnightblue" d="M896.56,-56.08C891.52,-48.53 884.16,-37.49 877.99,-28.23"/>
<polygon fill="midnightblue" stroke="midnightblue" points="880.79,-26.13 872.33,-19.75 874.97,-30.01 880.79,-26.13"/>
</g>
<!-- Node15 -->
<g id="node15" class="node">
<title>Node15</title>
<g id="a_node15"><a xlink:title=" ">
<polygon fill="white" stroke="#bfbfbf" points="908.5,-0.5 908.5,-19.5 970.5,-19.5 970.5,-0.5 908.5,-0.5"/>
<text text-anchor="middle" x="939.5" y="-7.5" font-family="Helvetica,sans-Serif" font-size="10.00">type_traits</text>
</a>
</g>
</g>
<!-- Node13&#45;&gt;Node15 -->
<g id="edge14" class="edge">
<title>Node13&#45;&gt;Node15</title>
<path fill="none" stroke="midnightblue" d="M908.61,-56.08C913.78,-48.53 921.35,-37.49 927.69,-28.23"/>
<polygon fill="midnightblue" stroke="midnightblue" points="930.74,-29.98 933.5,-19.75 924.96,-26.02 930.74,-29.98"/>
</g>
<!-- Node16 -->
<g id="node16" class="node">
<title>Node16</title>
<g id="a_node16"><a xlink:href="vecscatter_8h.html" target="_top" xlink:title="Interface to code generator.">
<polygon fill="white" stroke="black" points="989,-0.5 989,-19.5 1060,-19.5 1060,-0.5 989,-0.5"/>
<text text-anchor="middle" x="1024.5" y="-7.5" font-family="Helvetica,sans-Serif" font-size="10.00">vecscatter.h</text>
</a>
</g>
</g>
<!-- Node13&#45;&gt;Node16 -->
<g id="edge15" class="edge">
<title>Node13&#45;&gt;Node16</title>
<path fill="none" stroke="midnightblue" d="M921.83,-56.44C941.82,-47.6 973.24,-33.69 996.06,-23.59"/>
<polygon fill="midnightblue" stroke="midnightblue" points="997.53,-26.76 1005.26,-19.52 994.7,-20.36 997.53,-26.76"/>
</g>
<!-- Node18 -->
<g id="node18" class="node">
<title>Node18</title>
<g id="a_node18"><a xlink:title=" ">
<polygon fill="white" stroke="#bfbfbf" points="681,-0.5 681,-19.5 754,-19.5 754,-0.5 681,-0.5"/>
<text text-anchor="middle" x="717.5" y="-7.5" font-family="Helvetica,sans-Serif" font-size="10.00">initializer_list</text>
</a>
</g>
</g>
<!-- Node17&#45;&gt;Node18 -->
<g id="edge17" class="edge">
<title>Node17&#45;&gt;Node18</title>
<path fill="none" stroke="midnightblue" d="M717.5,-56.08C717.5,-49.01 717.5,-38.86 717.5,-29.99"/>
<polygon fill="midnightblue" stroke="midnightblue" points="721,-29.75 717.5,-19.75 714,-29.75 721,-29.75"/>
</g>
<!-- Node19 -->
<g id="node19" class="node">
<title>Node19</title>
<g id="a_node19"><a xlink:title=" ">
<polygon fill="white" stroke="#bfbfbf" points="772.5,-0.5 772.5,-19.5 824.5,-19.5 824.5,-0.5 772.5,-0.5"/>
<text text-anchor="middle" x="798.5" y="-7.5" font-family="Helvetica,sans-Serif" font-size="10.00">ostream</text>
</a>
</g>
</g>
<!-- Node17&#45;&gt;Node19 -->
<g id="edge18" class="edge">
<title>Node17&#45;&gt;Node19</title>
<path fill="none" stroke="midnightblue" d="M730.51,-56.32C743.03,-47.98 762.18,-35.21 776.97,-25.35"/>
<polygon fill="midnightblue" stroke="midnightblue" points="779.14,-28.11 785.52,-19.65 775.26,-22.29 779.14,-28.11"/>
</g>
<!-- Node20&#45;&gt;Node3 -->
<g id="edge21" class="edge">
<title>Node20&#45;&gt;Node3</title>
<path fill="none" stroke="midnightblue" d="M593.5,-56.32C601.69,-48.42 614.01,-36.55 623.97,-26.94"/>
<polygon fill="midnightblue" stroke="midnightblue" points="626.57,-29.29 631.34,-19.83 621.71,-24.26 626.57,-29.29"/>
</g>
<!-- Node20&#45;&gt;Node9 -->
<g id="edge20" class="edge">
<title>Node20&#45;&gt;Node9</title>
<path fill="none" stroke="midnightblue" d="M556.7,-57.82C553.61,-57.14 550.5,-56.52 547.5,-56 472.62,-43.02 246.45,-22.25 156.74,-14.27"/>
<polygon fill="midnightblue" stroke="midnightblue" points="157.01,-10.78 146.74,-13.38 156.4,-17.75 157.01,-10.78"/>
</g>
<!-- Node20&#45;&gt;Node10 -->
<g id="edge28" class="edge">
<title>Node20&#45;&gt;Node10</title>
<path fill="none" stroke="midnightblue" d="M556.72,-57.73C553.62,-57.08 550.5,-56.48 547.5,-56 343.24,-23.45 289.1,-42.64 83.5,-20 72.99,-18.84 61.52,-17.29 51.29,-15.8"/>
<polygon fill="midnightblue" stroke="midnightblue" points="51.58,-12.31 41.17,-14.3 50.55,-19.23 51.58,-12.31"/>
</g>
<!-- Node20&#45;&gt;Node12 -->
<g id="edge27" class="edge">
<title>Node20&#45;&gt;Node12</title>
<path fill="none" stroke="midnightblue" d="M556.68,-57.96C553.59,-57.26 550.48,-56.59 547.5,-56 499.03,-46.39 358.09,-25.75 291.35,-16.13"/>
<polygon fill="midnightblue" stroke="midnightblue" points="291.69,-12.65 281.3,-14.69 290.7,-19.57 291.69,-12.65"/>
</g>
<!-- Node20&#45;&gt;Node18 -->
<g id="edge22" class="edge">
<title>Node20&#45;&gt;Node18</title>
<path fill="none" stroke="midnightblue" d="M605.57,-56.44C627.56,-47.52 662.23,-33.44 687.16,-23.32"/>
<polygon fill="midnightblue" stroke="midnightblue" points="688.58,-26.52 696.52,-19.52 685.94,-20.04 688.58,-26.52"/>
</g>
<!-- Node21 -->
<g id="node21" class="node">
<title>Node21</title>
<g id="a_node21"><a xlink:title=" ">
<polygon fill="white" stroke="#bfbfbf" points="332,-0.5 332,-19.5 403,-19.5 403,-0.5 332,-0.5"/>
<text text-anchor="middle" x="367.5" y="-7.5" font-family="Helvetica,sans-Serif" font-size="10.00">sys/mman.h</text>
</a>
</g>
</g>
<!-- Node20&#45;&gt;Node21 -->
<g id="edge23" class="edge">
<title>Node20&#45;&gt;Node21</title>
<path fill="none" stroke="midnightblue" d="M556.58,-58.05C519.83,-48.91 454.84,-32.73 411.47,-21.94"/>
<polygon fill="midnightblue" stroke="midnightblue" points="412.3,-18.54 401.75,-19.52 410.61,-25.33 412.3,-18.54"/>
</g>
<!-- Node22 -->
<g id="node22" class="node">
<title>Node22</title>
<g id="a_node22"><a xlink:title=" ">
<polygon fill="white" stroke="#bfbfbf" points="421.5,-0.5 421.5,-19.5 467.5,-19.5 467.5,-0.5 421.5,-0.5"/>
<text text-anchor="middle" x="444.5" y="-7.5" font-family="Helvetica,sans-Serif" font-size="10.00">stdio.h</text>
</a>
</g>
</g>
<!-- Node20&#45;&gt;Node22 -->
<g id="edge24" class="edge">
<title>Node20&#45;&gt;Node22</title>
<path fill="none" stroke="midnightblue" d="M562.32,-56.44C539.07,-47.48 502.35,-33.31 476.08,-23.18"/>
<polygon fill="midnightblue" stroke="midnightblue" points="477.17,-19.85 466.58,-19.52 474.65,-26.38 477.17,-19.85"/>
</g>
<!-- Node23 -->
<g id="node23" class="node">
<title>Node23</title>
<g id="a_node23"><a xlink:title=" ">
<polygon fill="white" stroke="#bfbfbf" points="486,-0.5 486,-19.5 535,-19.5 535,-0.5 486,-0.5"/>
<text text-anchor="middle" x="510.5" y="-7.5" font-family="Helvetica,sans-Serif" font-size="10.00">string.h</text>
</a>
</g>
</g>
<!-- Node20&#45;&gt;Node23 -->
<g id="edge25" class="edge">
<title>Node20&#45;&gt;Node23</title>
<path fill="none" stroke="midnightblue" d="M572.61,-56.32C561.35,-48.11 544.21,-35.6 530.79,-25.81"/>
<polygon fill="midnightblue" stroke="midnightblue" points="532.75,-22.9 522.61,-19.83 528.62,-28.56 532.75,-22.9"/>
</g>
<!-- Node24 -->
<g id="node24" class="node">
<title>Node24</title>
<g id="a_node24"><a xlink:title=" ">
<polygon fill="white" stroke="#bfbfbf" points="553,-0.5 553,-19.5 600,-19.5 600,-0.5 553,-0.5"/>
<text text-anchor="middle" x="576.5" y="-7.5" font-family="Helvetica,sans-Serif" font-size="10.00">errno.h</text>
</a>
</g>
</g>
<!-- Node20&#45;&gt;Node24 -->
<g id="edge26" class="edge">
<title>Node20&#45;&gt;Node24</title>
<path fill="none" stroke="midnightblue" d="M583.18,-56.08C582.12,-48.93 580.59,-38.64 579.27,-29.69"/>
<polygon fill="midnightblue" stroke="midnightblue" points="582.72,-29.13 577.8,-19.75 575.8,-30.16 582.72,-29.13"/>
</g>
</g>
</svg>
        <g id="navigator" transform="translate(0 0)" fill="#404254">
                <rect fill="#f2f5e9" fill-opacity="0.5" stroke="#606060" stroke-width=".5" x="0" y="0" width="60" height="60"/>
                <use id="zoomplus" xlink:href="#zoomPlus" x="17" y="9" onmousedown="handleZoom(evt,'in')"/>
                <use id="zoomminus" xlink:href="#zoomMin" x="42" y="9" onmousedown="handleZoom(evt,'out')"/>
                <use id="reset" xlink:href="#resetDef" x="30" y="36" onmousedown="handleReset()"/>
                <g id="arrowUp" xlink:href="#dirArrow" transform="translate(30 24)" onmousedown="handlePan(0,-1)">
                  <use xlink:href="#rim" fill="#404040">
                        <set attributeName="fill" to="#808080" begin="arrowUp.mouseover" end="arrowUp.mouseout"/>
                  </use>
                  <path fill="none" stroke="white" stroke-width="1.5" d="M0,-3.0v7 M-2.5,-0.5L0,-3.0L2.5,-0.5"/>
                </g>
                <g id="arrowRight" xlink:href="#dirArrow" transform="rotate(90) translate(36 -43)" onmousedown="handlePan(1,0)">
                  <use xlink:href="#rim" fill="#404040">
                        <set attributeName="fill" to="#808080" begin="arrowRight.mouseover" end="arrowRight.mouseout"/>
                  </use>
                  <path fill="none" stroke="white" stroke-width="1.5" d="M0,-3.0v7 M-2.5,-0.5L0,-3.0L2.5,-0.5"/>
                </g>
                <g id="arrowDown" xlink:href="#dirArrow" transform="rotate(180) translate(-30 -48)" onmousedown="handlePan(0,1)">
                  <use xlink:href="#rim" fill="#404040">
                        <set attributeName="fill" to="#808080" begin="arrowDown.mouseover" end="arrowDown.mouseout"/>
                  </use>
                  <path fill="none" stroke="white" stroke-width="1.5" d="M0,-3.0v7 M-2.5,-0.5L0,-3.0L2.5,-0.5"/>
                </g>
                <g id="arrowLeft" xlink:href="#dirArrow" transform="rotate(270) translate(-36 17)" onmousedown="handlePan(-1,0)">
                  <use xlink:href="#rim" fill="#404040">
                        <set attributeName="fill" to="#808080" begin="arrowLeft.mouseover" end="arrowLeft.mouseout"/>
                  </use>
                  <path fill="none" stroke="white" stroke-width="1.5" d="M0,-3.0v7 M-2.5,-0.5L0,-3.0L2.5,-0.5"/>
                </g>
        </g>
        <svg viewBox="0 0 15 15" width="100%" height="30px" preserveAspectRatio="xMaxYMin meet">
         <g id="arrow_out" transform="scale(0.3 0.3)">
          <a xlink:href="array-mpi_8h__incl_org.svg" target="_base">
           <rect id="button" ry="5" rx="5" y="6" x="6" height="38" width="38"
                fill="#f2f5e9" fill-opacity="0.5" stroke="#606060" stroke-width="1.0"/>
           <path id="arrow"
             d="M 11.500037,31.436501 C 11.940474,20.09759 22.043105,11.32322 32.158766,21.979434 L 37.068811,17.246167 C 37.068811,17.246167 37.088388,32 37.088388,32 L 22.160133,31.978069 C 22.160133,31.978069 26.997745,27.140456 26.997745,27.140456 C 18.528582,18.264221 13.291696,25.230495 11.500037,31.436501 z"
             style="fill:#404040;"/>
          </a>
         </g>
        </svg>
</svg>
