<?xml version="1.0" encoding="UTF-8" standalone="no"?>
<!DOCTYPE svg PUBLIC "-//W3C//DTD SVG 1.1//EN"
 "http://www.w3.org/Graphics/SVG/1.1/DTD/svg11.dtd">
<!-- Generated by graphviz version 2.42.3 (0)
 -->
<!-- Title: exchangeArrPrepareTypes Pages: 1 -->
<svg width="459pt" height="104pt"
 viewBox="0.00 0.00 459.00 104.00" xmlns="http://www.w3.org/2000/svg" xmlns:xlink="http://www.w3.org/1999/xlink">
<g id="graph0" class="graph" transform="scale(1 1) rotate(0) translate(4 100)">
<title>exchangeArrPrepareTypes</title>
<polygon fill="white" stroke="transparent" points="-4,4 -4,-100 455,-100 455,4 -4,4"/>
<!-- Node1 -->
<g id="node1" class="node">
<title>Node1</title>
<g id="a_node1"><a xlink:title=" ">
<polygon fill="#bfbfbf" stroke="black" points="0,-38.5 0,-57.5 131,-57.5 131,-38.5 0,-38.5"/>
<text text-anchor="middle" x="65.5" y="-45.5" font-family="Helvetica,sans-Serif" font-size="10.00">exchangeArrPrepareTypes</text>
</a>
</g>
</g>
<!-- Node2 -->
<g id="node2" class="node">
<title>Node2</title>
<g id="a_node2"><a xlink:href="brick-mpi_8h.html#a179784ded21f893300aff63e7d49dea4" target="_top" xlink:title="Enumerate all neighbors.">
<polygon fill="white" stroke="black" points="169,-76.5 169,-95.5 237,-95.5 237,-76.5 169,-76.5"/>
<text text-anchor="middle" x="203" y="-83.5" font-family="Helvetica,sans-Serif" font-size="10.00">allneighbors</text>
</a>
</g>
</g>
<!-- Node1&#45;&gt;Node2 -->
<g id="edge1" class="edge">
<title>Node1&#45;&gt;Node2</title>
<path fill="none" stroke="midnightblue" d="M100.69,-57.59C118.37,-62.55 140.12,-68.65 158.94,-73.92"/>
<polygon fill="midnightblue" stroke="midnightblue" points="158.18,-77.35 168.76,-76.68 160.07,-70.61 158.18,-77.35"/>
</g>
<!-- Node5 -->
<g id="node5" class="node">
<title>Node5</title>
<g id="a_node5"><a xlink:href="array-mpi_8h.html#ad6ef44dfbb9e6ee010ded2a641de4ecf" target="_top" xlink:title=" ">
<polygon fill="white" stroke="black" points="172,-38.5 172,-57.5 234,-57.5 234,-38.5 172,-38.5"/>
<text text-anchor="middle" x="203" y="-45.5" font-family="Helvetica,sans-Serif" font-size="10.00">pack_type</text>
</a>
</g>
</g>
<!-- Node1&#45;&gt;Node5 -->
<g id="edge4" class="edge">
<title>Node1&#45;&gt;Node5</title>
<path fill="none" stroke="midnightblue" d="M131.08,-48C141.49,-48 152,-48 161.63,-48"/>
<polygon fill="midnightblue" stroke="midnightblue" points="161.68,-51.5 171.68,-48 161.68,-44.5 161.68,-51.5"/>
</g>
<!-- Node7 -->
<g id="node7" class="node">
<title>Node7</title>
<g id="a_node7"><a xlink:href="array-mpi_8h.html#a7b93812408dc2d1d442d64108b2d5226" target="_top" xlink:title=" ">
<polygon fill="white" stroke="black" points="167,-0.5 167,-19.5 239,-19.5 239,-0.5 167,-0.5"/>
<text text-anchor="middle" x="203" y="-7.5" font-family="Helvetica,sans-Serif" font-size="10.00">unpack_type</text>
</a>
</g>
</g>
<!-- Node1&#45;&gt;Node7 -->
<g id="edge7" class="edge">
<title>Node1&#45;&gt;Node7</title>
<path fill="none" stroke="midnightblue" d="M100.69,-38.41C118.1,-33.53 139.47,-27.54 158.09,-22.32"/>
<polygon fill="midnightblue" stroke="midnightblue" points="159.14,-25.66 167.82,-19.59 157.24,-18.92 159.14,-25.66"/>
</g>
<!-- Node3 -->
<g id="node3" class="node">
<title>Node3</title>
<g id="a_node3"><a xlink:href="structBitSet.html#a16777c7f003bbd964210fc95bec2d1a4" target="_top" xlink:title="Flipping an element.">
<polygon fill="white" stroke="black" points="275.5,-76.5 275.5,-95.5 337.5,-95.5 337.5,-76.5 275.5,-76.5"/>
<text text-anchor="middle" x="306.5" y="-83.5" font-family="Helvetica,sans-Serif" font-size="10.00">BitSet::flip</text>
</a>
</g>
</g>
<!-- Node2&#45;&gt;Node3 -->
<g id="edge2" class="edge">
<title>Node2&#45;&gt;Node3</title>
<path fill="none" stroke="midnightblue" d="M237.23,-86C246.14,-86 255.87,-86 265.11,-86"/>
<polygon fill="midnightblue" stroke="midnightblue" points="265.28,-89.5 275.28,-86 265.28,-82.5 265.28,-89.5"/>
</g>
<!-- Node4 -->
<g id="node4" class="node">
<title>Node4</title>
<g id="a_node4"><a xlink:href="structBitSet.html#a46274b431928dfd890099035e52c371a" target="_top" xlink:title="Turn number into corresponding element of set.">
<polygon fill="white" stroke="black" points="374,-57.5 374,-76.5 451,-76.5 451,-57.5 374,-57.5"/>
<text text-anchor="middle" x="412.5" y="-64.5" font-family="Helvetica,sans-Serif" font-size="10.00">BitSet::to_set</text>
</a>
</g>
</g>
<!-- Node3&#45;&gt;Node4 -->
<g id="edge3" class="edge">
<title>Node3&#45;&gt;Node4</title>
<path fill="none" stroke="midnightblue" d="M337.58,-80.5C345.78,-79.01 354.86,-77.35 363.77,-75.72"/>
<polygon fill="midnightblue" stroke="midnightblue" points="364.5,-79.14 373.71,-73.9 363.24,-72.26 364.5,-79.14"/>
</g>
<!-- Node6 -->
<g id="node6" class="node">
<title>Node6</title>
<g id="a_node6"><a xlink:href="structBitSet.html#aac795d2dc9109ed7a5fb800a866256f4" target="_top" xlink:title="Return whether a number is in the set.">
<polygon fill="white" stroke="black" points="275,-38.5 275,-57.5 338,-57.5 338,-38.5 275,-38.5"/>
<text text-anchor="middle" x="306.5" y="-45.5" font-family="Helvetica,sans-Serif" font-size="10.00">BitSet::get</text>
</a>
</g>
</g>
<!-- Node5&#45;&gt;Node6 -->
<g id="edge5" class="edge">
<title>Node5&#45;&gt;Node6</title>
<path fill="none" stroke="midnightblue" d="M234.18,-48C243.72,-48 254.43,-48 264.59,-48"/>
<polygon fill="midnightblue" stroke="midnightblue" points="264.91,-51.5 274.91,-48 264.91,-44.5 264.91,-51.5"/>
</g>
<!-- Node6&#45;&gt;Node4 -->
<g id="edge6" class="edge">
<title>Node6&#45;&gt;Node4</title>
<path fill="none" stroke="midnightblue" d="M338.14,-53.6C346.15,-55.06 354.98,-56.67 363.65,-58.26"/>
<polygon fill="midnightblue" stroke="midnightblue" points="363.24,-61.74 373.71,-60.1 364.5,-54.85 363.24,-61.74"/>
</g>
<!-- Node7&#45;&gt;Node6 -->
<g id="edge8" class="edge">
<title>Node7&#45;&gt;Node6</title>
<path fill="none" stroke="midnightblue" d="M229.61,-19.59C241.99,-24.22 257.05,-29.86 270.47,-34.89"/>
<polygon fill="midnightblue" stroke="midnightblue" points="269.3,-38.19 279.9,-38.41 271.76,-31.63 269.3,-38.19"/>
</g>
</g>
</svg>
