<?xml version="1.0" encoding="UTF-8" standalone="no"?>
<!DOCTYPE svg PUBLIC "-//W3C//DTD SVG 1.1//EN"
 "http://www.w3.org/Graphics/SVG/1.1/DTD/svg11.dtd">
<!-- Generated by graphviz version 2.42.3 (0)
 -->
<!-- Title: include/bitset.h Pages: 1 -->
<svg width="318pt" height="140pt"
 viewBox="0.00 0.00 317.50 140.00" xmlns="http://www.w3.org/2000/svg" xmlns:xlink="http://www.w3.org/1999/xlink">
<g id="graph0" class="graph" transform="scale(1 1) rotate(0) translate(4 136)">
<title>include/bitset.h</title>
<polygon fill="white" stroke="transparent" points="-4,4 -4,-136 313.5,-136 313.5,4 -4,4"/>
<!-- Node1 -->
<g id="node1" class="node">
<title>Node1</title>
<g id="a_node1"><a xlink:title="Set using bitfield.">
<polygon fill="#bfbfbf" stroke="black" points="122,-112.5 122,-131.5 205,-131.5 205,-112.5 122,-112.5"/>
<text text-anchor="middle" x="163.5" y="-119.5" font-family="Helvetica,sans-Serif" font-size="10.00">include/bitset.h</text>
</a>
</g>
</g>
<!-- Node2 -->
<g id="node2" class="node">
<title>Node2</title>
<g id="a_node2"><a xlink:href="brick-mpi_8h.html" target="_top" xlink:title="MPI stuff related to bricks.">
<polygon fill="white" stroke="black" points="114.5,-56.5 114.5,-75.5 212.5,-75.5 212.5,-56.5 114.5,-56.5"/>
<text text-anchor="middle" x="163.5" y="-63.5" font-family="Helvetica,sans-Serif" font-size="10.00">include/brick&#45;mpi.h</text>
</a>
</g>
</g>
<!-- Node1&#45;&gt;Node2 -->
<g id="edge1" class="edge">
<title>Node1&#45;&gt;Node2</title>
<path fill="none" stroke="midnightblue" d="M163.5,-101.8C163.5,-92.91 163.5,-82.78 163.5,-75.75"/>
<polygon fill="midnightblue" stroke="midnightblue" points="160,-102.08 163.5,-112.08 167,-102.08 160,-102.08"/>
</g>
<!-- Node3 -->
<g id="node3" class="node">
<title>Node3</title>
<g id="a_node3"><a xlink:href="array-mpi_8h.html" target="_top" xlink:title="Reference MPI communication with arrays.">
<polygon fill="white" stroke="black" points="0,-0.5 0,-19.5 99,-19.5 99,-0.5 0,-0.5"/>
<text text-anchor="middle" x="49.5" y="-7.5" font-family="Helvetica,sans-Serif" font-size="10.00">include/array&#45;mpi.h</text>
</a>
</g>
</g>
<!-- Node2&#45;&gt;Node3 -->
<g id="edge2" class="edge">
<title>Node2&#45;&gt;Node3</title>
<path fill="none" stroke="midnightblue" d="M136.26,-52.1C114.96,-42.01 85.96,-28.27 67.48,-19.52"/>
<polygon fill="midnightblue" stroke="midnightblue" points="134.9,-55.33 145.44,-56.44 137.9,-49 134.9,-55.33"/>
</g>
<!-- Node4 -->
<g id="node4" class="node">
<title>Node4</title>
<g id="a_node4"><a xlink:href="brick-mpi_8cpp.html" target="_top" xlink:title=" ">
<polygon fill="white" stroke="black" points="117.5,-0.5 117.5,-19.5 209.5,-19.5 209.5,-0.5 117.5,-0.5"/>
<text text-anchor="middle" x="163.5" y="-7.5" font-family="Helvetica,sans-Serif" font-size="10.00">src/brick&#45;mpi.cpp</text>
</a>
</g>
</g>
<!-- Node2&#45;&gt;Node4 -->
<g id="edge3" class="edge">
<title>Node2&#45;&gt;Node4</title>
<path fill="none" stroke="midnightblue" d="M163.5,-45.8C163.5,-36.91 163.5,-26.78 163.5,-19.75"/>
<polygon fill="midnightblue" stroke="midnightblue" points="160,-46.08 163.5,-56.08 167,-46.08 160,-46.08"/>
</g>
<!-- Node5 -->
<g id="node5" class="node">
<title>Node5</title>
<g id="a_node5"><a xlink:href="memfd_8cpp.html" target="_top" xlink:title=" ">
<polygon fill="white" stroke="black" points="227.5,-0.5 227.5,-19.5 309.5,-19.5 309.5,-0.5 227.5,-0.5"/>
<text text-anchor="middle" x="268.5" y="-7.5" font-family="Helvetica,sans-Serif" font-size="10.00">src/memfd.cpp</text>
</a>
</g>
</g>
<!-- Node2&#45;&gt;Node5 -->
<g id="edge4" class="edge">
<title>Node2&#45;&gt;Node5</title>
<path fill="none" stroke="midnightblue" d="M189.31,-51.73C208.75,-41.73 234.85,-28.31 251.67,-19.65"/>
<polygon fill="midnightblue" stroke="midnightblue" points="187.66,-48.64 180.37,-56.32 190.86,-54.86 187.66,-48.64"/>
</g>
</g>
</svg>
