<?xml version="1.0" encoding="UTF-8" standalone="no"?>
<!DOCTYPE svg PUBLIC "-//W3C//DTD SVG 1.1//EN"
 "http://www.w3.org/Graphics/SVG/1.1/DTD/svg11.dtd">
<!-- Generated by graphviz version 2.42.3 (0)
 -->
<!-- Title: include/brick&#45;cuda.h Pages: 1 -->
<svg width="307pt" height="140pt"
 viewBox="0.00 0.00 306.50 140.00" xmlns="http://www.w3.org/2000/svg" xmlns:xlink="http://www.w3.org/1999/xlink">
<g id="graph0" class="graph" transform="scale(1 1) rotate(0) translate(4 136)">
<title>include/brick&#45;cuda.h</title>
<polygon fill="white" stroke="transparent" points="-4,4 -4,-136 302.5,-136 302.5,4 -4,4"/>
<!-- Node1 -->
<g id="node1" class="node">
<title>Node1</title>
<g id="a_node1"><a xlink:title="For using bricks with CUDA.">
<polygon fill="#bfbfbf" stroke="black" points="128,-112.5 128,-131.5 232,-131.5 232,-112.5 128,-112.5"/>
<text text-anchor="middle" x="180" y="-119.5" font-family="Helvetica,sans-Serif" font-size="10.00">include/brick&#45;cuda.h</text>
</a>
</g>
</g>
<!-- Node2 -->
<g id="node2" class="node">
<title>Node2</title>
<g id="a_node2"><a xlink:href="brick_8h.html" target="_top" xlink:title="Main header for bricks.">
<polygon fill="white" stroke="black" points="74,-56.5 74,-75.5 120,-75.5 120,-56.5 74,-56.5"/>
<text text-anchor="middle" x="97" y="-63.5" font-family="Helvetica,sans-Serif" font-size="10.00">brick.h</text>
</a>
</g>
</g>
<!-- Node1&#45;&gt;Node2 -->
<g id="edge1" class="edge">
<title>Node1&#45;&gt;Node2</title>
<path fill="none" stroke="midnightblue" d="M166.66,-112.32C153.84,-103.98 134.22,-91.21 119.06,-81.35"/>
<polygon fill="midnightblue" stroke="midnightblue" points="120.59,-78.17 110.3,-75.65 116.78,-84.04 120.59,-78.17"/>
</g>
<!-- Node6 -->
<g id="node6" class="node">
<title>Node6</title>
<g id="a_node6"><a xlink:title=" ">
<polygon fill="white" stroke="#bfbfbf" points="138.5,-56.5 138.5,-75.5 221.5,-75.5 221.5,-56.5 138.5,-56.5"/>
<text text-anchor="middle" x="180" y="-63.5" font-family="Helvetica,sans-Serif" font-size="10.00">cuda_runtime.h</text>
</a>
</g>
</g>
<!-- Node1&#45;&gt;Node6 -->
<g id="edge5" class="edge">
<title>Node1&#45;&gt;Node6</title>
<path fill="none" stroke="midnightblue" d="M180,-112.08C180,-105.01 180,-94.86 180,-85.99"/>
<polygon fill="midnightblue" stroke="midnightblue" points="183.5,-85.75 180,-75.75 176.5,-85.75 183.5,-85.75"/>
</g>
<!-- Node7 -->
<g id="node7" class="node">
<title>Node7</title>
<g id="a_node7"><a xlink:href="dev__shl_8h.html" target="_top" xlink:title="Implementation for various shuffle implementations.">
<polygon fill="white" stroke="black" points="239.5,-56.5 239.5,-75.5 298.5,-75.5 298.5,-56.5 239.5,-56.5"/>
<text text-anchor="middle" x="269" y="-63.5" font-family="Helvetica,sans-Serif" font-size="10.00">dev_shl.h</text>
</a>
</g>
</g>
<!-- Node1&#45;&gt;Node7 -->
<g id="edge6" class="edge">
<title>Node1&#45;&gt;Node7</title>
<path fill="none" stroke="midnightblue" d="M194.3,-112.32C208.18,-103.9 229.49,-90.97 245.8,-81.07"/>
<polygon fill="midnightblue" stroke="midnightblue" points="248,-83.83 254.74,-75.65 244.37,-77.85 248,-83.83"/>
</g>
<!-- Node3 -->
<g id="node3" class="node">
<title>Node3</title>
<g id="a_node3"><a xlink:title=" ">
<polygon fill="white" stroke="#bfbfbf" points="0,-0.5 0,-19.5 48,-19.5 48,-0.5 0,-0.5"/>
<text text-anchor="middle" x="24" y="-7.5" font-family="Helvetica,sans-Serif" font-size="10.00">stdlib.h</text>
</a>
</g>
</g>
<!-- Node2&#45;&gt;Node3 -->
<g id="edge2" class="edge">
<title>Node2&#45;&gt;Node3</title>
<path fill="none" stroke="midnightblue" d="M85.27,-56.32C74.16,-48.11 57.26,-35.6 44.02,-25.81"/>
<polygon fill="midnightblue" stroke="midnightblue" points="46.06,-22.97 35.94,-19.83 41.9,-28.59 46.06,-22.97"/>
</g>
<!-- Node4 -->
<g id="node4" class="node">
<title>Node4</title>
<g id="a_node4"><a xlink:title=" ">
<polygon fill="white" stroke="#bfbfbf" points="66,-0.5 66,-19.5 128,-19.5 128,-0.5 66,-0.5"/>
<text text-anchor="middle" x="97" y="-7.5" font-family="Helvetica,sans-Serif" font-size="10.00">type_traits</text>
</a>
</g>
</g>
<!-- Node2&#45;&gt;Node4 -->
<g id="edge3" class="edge">
<title>Node2&#45;&gt;Node4</title>
<path fill="none" stroke="midnightblue" d="M97,-56.08C97,-49.01 97,-38.86 97,-29.99"/>
<polygon fill="midnightblue" stroke="midnightblue" points="100.5,-29.75 97,-19.75 93.5,-29.75 100.5,-29.75"/>
</g>
<!-- Node5 -->
<g id="node5" class="node">
<title>Node5</title>
<g id="a_node5"><a xlink:href="vecscatter_8h.html" target="_top" xlink:title="Interface to code generator.">
<polygon fill="white" stroke="black" points="146.5,-0.5 146.5,-19.5 217.5,-19.5 217.5,-0.5 146.5,-0.5"/>
<text text-anchor="middle" x="182" y="-7.5" font-family="Helvetica,sans-Serif" font-size="10.00">vecscatter.h</text>
</a>
</g>
</g>
<!-- Node2&#45;&gt;Node5 -->
<g id="edge4" class="edge">
<title>Node2&#45;&gt;Node5</title>
<path fill="none" stroke="midnightblue" d="M110.66,-56.32C123.92,-47.9 144.27,-34.97 159.85,-25.07"/>
<polygon fill="midnightblue" stroke="midnightblue" points="161.81,-27.97 168.38,-19.65 158.06,-22.06 161.81,-27.97"/>
</g>
</g>
</svg>
