<?xml version="1.0" encoding="UTF-8" standalone="no"?>
<!DOCTYPE svg PUBLIC "-//W3C//DTD SVG 1.1//EN"
 "http://www.w3.org/Graphics/SVG/1.1/DTD/svg11.dtd">
<!-- Generated by graphviz version 2.42.3 (0)
 -->
<!-- Title: include/brick.h Pages: 1 -->
<!--zoomable 196 -->
<svg id="main" version="1.1" xmlns="http://www.w3.org/2000/svg" xmlns:xlink="http://www.w3.org/1999/xlink" xml:space="preserve" onload="init(evt)">
<style type="text/css"><![CDATA[
.edge:hover path { stroke: red; }
.edge:hover polygon { stroke: red; fill: red; }
]]></style>
<script type="text/javascript"><![CDATA[
var edges = document.getElementsByTagName('g');
if (edges && edges.length) {
  for (var i=0;i<edges.length;i++) {
    if (edges[i].id.substr(0,4)=='edge') {
      edges[i].setAttribute('class','edge');
    }
  }
}
]]></script>
        <defs>
                <circle id="rim" cx="0" cy="0" r="7"/>
                <circle id="rim2" cx="0" cy="0" r="3.5"/>
                <g id="zoomPlus">
                        <use xlink:href="#rim" fill="#404040">
                                <set attributeName="fill" to="#808080" begin="zoomplus.mouseover" end="zoomplus.mouseout"/>
                        </use>
                        <path d="M-4,0h8M0,-4v8" fill="none" stroke="white" stroke-width="1.5" pointer-events="none"/>
                </g>
                <g id="zoomMin">
                        <use xlink:href="#rim" fill="#404040">
                                <set attributeName="fill" to="#808080" begin="zoomminus.mouseover" end="zoomminus.mouseout"/>
                        </use>
                        <path d="M-4,0h8" fill="none" stroke="white" stroke-width="1.5" pointer-events="none"/>
                </g>
                <g id="dirArrow">
                        <path fill="none" stroke="white" stroke-width="1.5" d="M0,-3.0v7 M-2.5,-0.5L0,-3.0L2.5,-0.5"/>
                </g>
               <g id="resetDef">
                       <use xlink:href="#rim2" fill="#404040">
                               <set attributeName="fill" to="#808080" begin="reset.mouseover" end="reset.mouseout"/>
                       </use>
               </g>
        </defs>

<script type="text/javascript">
var viewWidth = 585;
var viewHeight = 196;
var sectionId = 'dynsection-1';
</script>
<script xlink:href="svgpan.js"/>
<svg id="graph" class="graph">
<g id="viewport">
<title>include/brick.h</title>
<polygon fill="white" stroke="transparent" points="-4,4 -4,-192 581,-192 581,4 -4,4"/>
<!-- Node1 -->
<g id="node1" class="node">
<title>Node1</title>
<g id="a_node1"><a xlink:title="Main header for bricks.">
<polygon fill="#bfbfbf" stroke="black" points="303.5,-168.5 303.5,-187.5 383.5,-187.5 383.5,-168.5 303.5,-168.5"/>
<text text-anchor="middle" x="343.5" y="-175.5" font-family="Helvetica,sans-Serif" font-size="10.00">include/brick.h</text>
</a>
</g>
</g>
<!-- Node2 -->
<g id="node2" class="node">
<title>Node2</title>
<g id="a_node2"><a xlink:href="brick-mpi_8h.html" target="_top" xlink:title="MPI stuff related to bricks.">
<polygon fill="white" stroke="black" points="114.5,-112.5 114.5,-131.5 212.5,-131.5 212.5,-112.5 114.5,-112.5"/>
<text text-anchor="middle" x="163.5" y="-119.5" font-family="Helvetica,sans-Serif" font-size="10.00">include/brick&#45;mpi.h</text>
</a>
</g>
</g>
<!-- Node1&#45;&gt;Node2 -->
<g id="edge1" class="edge">
<title>Node1&#45;&gt;Node2</title>
<path fill="none" stroke="midnightblue" d="M305.39,-165.57C271.44,-155.38 222.51,-140.7 191.89,-131.52"/>
<polygon fill="midnightblue" stroke="midnightblue" points="304.39,-168.92 314.98,-168.44 306.41,-162.22 304.39,-168.92"/>
</g>
<!-- Node6 -->
<g id="node6" class="node">
<title>Node6</title>
<g id="a_node6"><a xlink:href="brick-cuda_8h.html" target="_top" xlink:title="For using bricks with CUDA.">
<polygon fill="white" stroke="black" points="230.5,-112.5 230.5,-131.5 334.5,-131.5 334.5,-112.5 230.5,-112.5"/>
<text text-anchor="middle" x="282.5" y="-119.5" font-family="Helvetica,sans-Serif" font-size="10.00">include/brick&#45;cuda.h</text>
</a>
</g>
</g>
<!-- Node1&#45;&gt;Node6 -->
<g id="edge5" class="edge">
<title>Node1&#45;&gt;Node6</title>
<path fill="none" stroke="midnightblue" d="M326.03,-161.54C315.16,-151.91 301.56,-139.87 292.48,-131.83"/>
<polygon fill="midnightblue" stroke="midnightblue" points="323.89,-164.32 333.7,-168.32 328.53,-159.07 323.89,-164.32"/>
</g>
<!-- Node7 -->
<g id="node7" class="node">
<title>Node7</title>
<g id="a_node7"><a xlink:href="bricksetup_8h.html" target="_top" xlink:title="Brick iterator and setup code.">
<polygon fill="white" stroke="black" points="352.5,-112.5 352.5,-131.5 456.5,-131.5 456.5,-112.5 352.5,-112.5"/>
<text text-anchor="middle" x="404.5" y="-119.5" font-family="Helvetica,sans-Serif" font-size="10.00">include/bricksetup.h</text>
</a>
</g>
</g>
<!-- Node1&#45;&gt;Node7 -->
<g id="edge6" class="edge">
<title>Node1&#45;&gt;Node7</title>
<path fill="none" stroke="midnightblue" d="M360.97,-161.54C371.84,-151.91 385.44,-139.87 394.52,-131.83"/>
<polygon fill="midnightblue" stroke="midnightblue" points="358.47,-159.07 353.3,-168.32 363.11,-164.32 358.47,-159.07"/>
</g>
<!-- Node10 -->
<g id="node10" class="node">
<title>Node10</title>
<g id="a_node10"><a xlink:href="multiarray_8h.html" target="_top" xlink:title="Multidimensional array shortcuts.">
<polygon fill="white" stroke="black" points="476,-112.5 476,-131.5 577,-131.5 577,-112.5 476,-112.5"/>
<text text-anchor="middle" x="526.5" y="-119.5" font-family="Helvetica,sans-Serif" font-size="10.00">include/multiarray.h</text>
</a>
</g>
</g>
<!-- Node1&#45;&gt;Node10 -->
<g id="edge9" class="edge">
<title>Node1&#45;&gt;Node10</title>
<path fill="none" stroke="midnightblue" d="M382.24,-165.57C416.76,-155.38 466.51,-140.7 497.64,-131.52"/>
<polygon fill="midnightblue" stroke="midnightblue" points="381.1,-162.26 372.5,-168.44 383.08,-168.97 381.1,-162.26"/>
</g>
<!-- Node3 -->
<g id="node3" class="node">
<title>Node3</title>
<g id="a_node3"><a xlink:href="array-mpi_8h.html" target="_top" xlink:title="Reference MPI communication with arrays.">
<polygon fill="white" stroke="black" points="0,-56.5 0,-75.5 99,-75.5 99,-56.5 0,-56.5"/>
<text text-anchor="middle" x="49.5" y="-63.5" font-family="Helvetica,sans-Serif" font-size="10.00">include/array&#45;mpi.h</text>
</a>
</g>
</g>
<!-- Node2&#45;&gt;Node3 -->
<g id="edge2" class="edge">
<title>Node2&#45;&gt;Node3</title>
<path fill="none" stroke="midnightblue" d="M136.26,-108.1C114.96,-98.01 85.96,-84.27 67.48,-75.52"/>
<polygon fill="midnightblue" stroke="midnightblue" points="134.9,-111.33 145.44,-112.44 137.9,-105 134.9,-111.33"/>
</g>
<!-- Node4 -->
<g id="node4" class="node">
<title>Node4</title>
<g id="a_node4"><a xlink:href="brick-mpi_8cpp.html" target="_top" xlink:title=" ">
<polygon fill="white" stroke="black" points="117.5,-56.5 117.5,-75.5 209.5,-75.5 209.5,-56.5 117.5,-56.5"/>
<text text-anchor="middle" x="163.5" y="-63.5" font-family="Helvetica,sans-Serif" font-size="10.00">src/brick&#45;mpi.cpp</text>
</a>
</g>
</g>
<!-- Node2&#45;&gt;Node4 -->
<g id="edge3" class="edge">
<title>Node2&#45;&gt;Node4</title>
<path fill="none" stroke="midnightblue" d="M163.5,-101.8C163.5,-92.91 163.5,-82.78 163.5,-75.75"/>
<polygon fill="midnightblue" stroke="midnightblue" points="160,-102.08 163.5,-112.08 167,-102.08 160,-102.08"/>
</g>
<!-- Node5 -->
<g id="node5" class="node">
<title>Node5</title>
<g id="a_node5"><a xlink:href="memfd_8cpp.html" target="_top" xlink:title=" ">
<polygon fill="white" stroke="black" points="227.5,-56.5 227.5,-75.5 309.5,-75.5 309.5,-56.5 227.5,-56.5"/>
<text text-anchor="middle" x="268.5" y="-63.5" font-family="Helvetica,sans-Serif" font-size="10.00">src/memfd.cpp</text>
</a>
</g>
</g>
<!-- Node2&#45;&gt;Node5 -->
<g id="edge4" class="edge">
<title>Node2&#45;&gt;Node5</title>
<path fill="none" stroke="midnightblue" d="M189.31,-107.73C208.75,-97.73 234.85,-84.31 251.67,-75.65"/>
<polygon fill="midnightblue" stroke="midnightblue" points="187.66,-104.64 180.37,-112.32 190.86,-110.86 187.66,-104.64"/>
</g>
<!-- Node8 -->
<g id="node8" class="node">
<title>Node8</title>
<g id="a_node8"><a xlink:href="brickcompare_8h.html" target="_top" xlink:title="Compare content from bricks with arrays.">
<polygon fill="white" stroke="black" points="345,-56.5 345,-75.5 462,-75.5 462,-56.5 345,-56.5"/>
<text text-anchor="middle" x="403.5" y="-63.5" font-family="Helvetica,sans-Serif" font-size="10.00">include/brickcompare.h</text>
</a>
</g>
</g>
<!-- Node7&#45;&gt;Node8 -->
<g id="edge7" class="edge">
<title>Node7&#45;&gt;Node8</title>
<path fill="none" stroke="midnightblue" d="M404.14,-101.8C403.98,-92.91 403.79,-82.78 403.66,-75.75"/>
<polygon fill="midnightblue" stroke="midnightblue" points="400.65,-102.15 404.33,-112.08 407.65,-102.02 400.65,-102.15"/>
</g>
<!-- Node9 -->
<g id="node9" class="node">
<title>Node9</title>
<g id="a_node9"><a xlink:href="brickcompare_8cpp.html" target="_top" xlink:title=" ">
<polygon fill="white" stroke="black" points="348.5,-0.5 348.5,-19.5 458.5,-19.5 458.5,-0.5 348.5,-0.5"/>
<text text-anchor="middle" x="403.5" y="-7.5" font-family="Helvetica,sans-Serif" font-size="10.00">src/brickcompare.cpp</text>
</a>
</g>
</g>
<!-- Node8&#45;&gt;Node9 -->
<g id="edge8" class="edge">
<title>Node8&#45;&gt;Node9</title>
<path fill="none" stroke="midnightblue" d="M403.5,-45.8C403.5,-36.91 403.5,-26.78 403.5,-19.75"/>
<polygon fill="midnightblue" stroke="midnightblue" points="400,-46.08 403.5,-56.08 407,-46.08 400,-46.08"/>
</g>
<!-- Node11 -->
<g id="node11" class="node">
<title>Node11</title>
<g id="a_node11"><a xlink:href="multiarray_8cpp.html" target="_top" xlink:title=" ">
<polygon fill="white" stroke="black" points="480.5,-56.5 480.5,-75.5 574.5,-75.5 574.5,-56.5 480.5,-56.5"/>
<text text-anchor="middle" x="527.5" y="-63.5" font-family="Helvetica,sans-Serif" font-size="10.00">src/multiarray.cpp</text>
</a>
</g>
</g>
<!-- Node10&#45;&gt;Node11 -->
<g id="edge10" class="edge">
<title>Node10&#45;&gt;Node11</title>
<path fill="none" stroke="midnightblue" d="M526.86,-101.8C527.02,-92.91 527.21,-82.78 527.34,-75.75"/>
<polygon fill="midnightblue" stroke="midnightblue" points="523.35,-102.02 526.67,-112.08 530.35,-102.15 523.35,-102.02"/>
</g>
</g>
</svg>
        <g id="navigator" transform="translate(0 0)" fill="#404254">
                <rect fill="#f2f5e9" fill-opacity="0.5" stroke="#606060" stroke-width=".5" x="0" y="0" width="60" height="60"/>
                <use id="zoomplus" xlink:href="#zoomPlus" x="17" y="9" onmousedown="handleZoom(evt,'in')"/>
                <use id="zoomminus" xlink:href="#zoomMin" x="42" y="9" onmousedown="handleZoom(evt,'out')"/>
                <use id="reset" xlink:href="#resetDef" x="30" y="36" onmousedown="handleReset()"/>
                <g id="arrowUp" xlink:href="#dirArrow" transform="translate(30 24)" onmousedown="handlePan(0,-1)">
                  <use xlink:href="#rim" fill="#404040">
                        <set attributeName="fill" to="#808080" begin="arrowUp.mouseover" end="arrowUp.mouseout"/>
                  </use>
                  <path fill="none" stroke="white" stroke-width="1.5" d="M0,-3.0v7 M-2.5,-0.5L0,-3.0L2.5,-0.5"/>
                </g>
                <g id="arrowRight" xlink:href="#dirArrow" transform="rotate(90) translate(36 -43)" onmousedown="handlePan(1,0)">
                  <use xlink:href="#rim" fill="#404040">
                        <set attributeName="fill" to="#808080" begin="arrowRight.mouseover" end="arrowRight.mouseout"/>
                  </use>
                  <path fill="none" stroke="white" stroke-width="1.5" d="M0,-3.0v7 M-2.5,-0.5L0,-3.0L2.5,-0.5"/>
                </g>
                <g id="arrowDown" xlink:href="#dirArrow" transform="rotate(180) translate(-30 -48)" onmousedown="handlePan(0,1)">
                  <use xlink:href="#rim" fill="#404040">
                        <set attributeName="fill" to="#808080" begin="arrowDown.mouseover" end="arrowDown.mouseout"/>
                  </use>
                  <path fill="none" stroke="white" stroke-width="1.5" d="M0,-3.0v7 M-2.5,-0.5L0,-3.0L2.5,-0.5"/>
                </g>
                <g id="arrowLeft" xlink:href="#dirArrow" transform="rotate(270) translate(-36 17)" onmousedown="handlePan(-1,0)">
                  <use xlink:href="#rim" fill="#404040">
                        <set attributeName="fill" to="#808080" begin="arrowLeft.mouseover" end="arrowLeft.mouseout"/>
                  </use>
                  <path fill="none" stroke="white" stroke-width="1.5" d="M0,-3.0v7 M-2.5,-0.5L0,-3.0L2.5,-0.5"/>
                </g>
        </g>
        <svg viewBox="0 0 15 15" width="100%" height="30px" preserveAspectRatio="xMaxYMin meet">
         <g id="arrow_out" transform="scale(0.3 0.3)">
          <a xlink:href="brick_8h__dep__incl_org.svg" target="_base">
           <rect id="button" ry="5" rx="5" y="6" x="6" height="38" width="38"
                fill="#f2f5e9" fill-opacity="0.5" stroke="#606060" stroke-width="1.0"/>
           <path id="arrow"
             d="M 11.500037,31.436501 C 11.940474,20.09759 22.043105,11.32322 32.158766,21.979434 L 37.068811,17.246167 C 37.068811,17.246167 37.088388,32 37.088388,32 L 22.160133,31.978069 C 22.160133,31.978069 26.997745,27.140456 26.997745,27.140456 C 18.528582,18.264221 13.291696,25.230495 11.500037,31.436501 z"
             style="fill:#404040;"/>
          </a>
         </g>
        </svg>
</svg>
