<?xml version="1.0" encoding="UTF-8" standalone="no"?>
<!DOCTYPE svg PUBLIC "-//W3C//DTD SVG 1.1//EN"
 "http://www.w3.org/Graphics/SVG/1.1/DTD/svg11.dtd">
<!-- Generated by graphviz version 2.42.3 (0)
 -->
<!-- Title: include/brick&#45;mpi.h Pages: 1 -->
<!--zoomable 140 -->
<svg id="main" version="1.1" xmlns="http://www.w3.org/2000/svg" xmlns:xlink="http://www.w3.org/1999/xlink" xml:space="preserve" onload="init(evt)">
<style type="text/css"><![CDATA[
.edge:hover path { stroke: red; }
.edge:hover polygon { stroke: red; fill: red; }
]]></style>
<script type="text/javascript"><![CDATA[
var edges = document.getElementsByTagName('g');
if (edges && edges.length) {
  for (var i=0;i<edges.length;i++) {
    if (edges[i].id.substr(0,4)=='edge') {
      edges[i].setAttribute('class','edge');
    }
  }
}
]]></script>
        <defs>
                <circle id="rim" cx="0" cy="0" r="7"/>
                <circle id="rim2" cx="0" cy="0" r="3.5"/>
                <g id="zoomPlus">
                        <use xlink:href="#rim" fill="#404040">
                                <set attributeName="fill" to="#808080" begin="zoomplus.mouseover" end="zoomplus.mouseout"/>
                        </use>
                        <path d="M-4,0h8M0,-4v8" fill="none" stroke="white" stroke-width="1.5" pointer-events="none"/>
                </g>
                <g id="zoomMin">
                        <use xlink:href="#rim" fill="#404040">
                                <set attributeName="fill" to="#808080" begin="zoomminus.mouseover" end="zoomminus.mouseout"/>
                        </use>
                        <path d="M-4,0h8" fill="none" stroke="white" stroke-width="1.5" pointer-events="none"/>
                </g>
                <g id="dirArrow">
                        <path fill="none" stroke="white" stroke-width="1.5" d="M0,-3.0v7 M-2.5,-0.5L0,-3.0L2.5,-0.5"/>
                </g>
               <g id="resetDef">
                       <use xlink:href="#rim2" fill="#404040">
                               <set attributeName="fill" to="#808080" begin="reset.mouseover" end="reset.mouseout"/>
                       </use>
               </g>
        </defs>

<script type="text/javascript">
var viewWidth = 971;
var viewHeight = 140;
var sectionId = 'dynsection-0';
</script>
<script xlink:href="svgpan.js"/>
<svg id="graph" class="graph">
<g id="viewport">
<title>include/brick&#45;mpi.h</title>
<polygon fill="white" stroke="transparent" points="-4,4 -4,-136 966.5,-136 966.5,4 -4,4"/>
<!-- Node1 -->
<g id="node1" class="node">
<title>Node1</title>
<g id="a_node1"><a xlink:title="MPI stuff related to bricks.">
<polygon fill="#bfbfbf" stroke="black" points="380,-112.5 380,-131.5 478,-131.5 478,-112.5 380,-112.5"/>
<text text-anchor="middle" x="429" y="-119.5" font-family="Helvetica,sans-Serif" font-size="10.00">include/brick&#45;mpi.h</text>
</a>
</g>
</g>
<!-- Node2 -->
<g id="node2" class="node">
<title>Node2</title>
<g id="a_node2"><a xlink:title=" ">
<polygon fill="white" stroke="#bfbfbf" points="0,-0.5 0,-19.5 44,-19.5 44,-0.5 0,-0.5"/>
<text text-anchor="middle" x="22" y="-7.5" font-family="Helvetica,sans-Serif" font-size="10.00">vector</text>
</a>
</g>
</g>
<!-- Node1&#45;&gt;Node2 -->
<g id="edge1" class="edge">
<title>Node1&#45;&gt;Node2</title>
<path fill="none" stroke="midnightblue" d="M379.79,-117.69C323.18,-112.83 228.02,-101.41 150,-76 110.92,-63.27 69.06,-39.96 44.23,-24.99"/>
<polygon fill="midnightblue" stroke="midnightblue" points="45.95,-21.94 35.59,-19.7 42.29,-27.91 45.95,-21.94"/>
</g>
<!-- Node3 -->
<g id="node3" class="node">
<title>Node3</title>
<g id="a_node3"><a xlink:title=" ">
<polygon fill="white" stroke="#bfbfbf" points="387.5,-56.5 387.5,-75.5 470.5,-75.5 470.5,-56.5 387.5,-56.5"/>
<text text-anchor="middle" x="429" y="-63.5" font-family="Helvetica,sans-Serif" font-size="10.00">unordered_map</text>
</a>
</g>
</g>
<!-- Node1&#45;&gt;Node3 -->
<g id="edge2" class="edge">
<title>Node1&#45;&gt;Node3</title>
<path fill="none" stroke="midnightblue" d="M429,-112.08C429,-105.01 429,-94.86 429,-85.99"/>
<polygon fill="midnightblue" stroke="midnightblue" points="432.5,-85.75 429,-75.75 425.5,-85.75 432.5,-85.75"/>
</g>
<!-- Node4 -->
<g id="node4" class="node">
<title>Node4</title>
<g id="a_node4"><a xlink:title=" ">
<polygon fill="white" stroke="#bfbfbf" points="489,-56.5 489,-75.5 545,-75.5 545,-56.5 489,-56.5"/>
<text text-anchor="middle" x="517" y="-63.5" font-family="Helvetica,sans-Serif" font-size="10.00">algorithm</text>
</a>
</g>
</g>
<!-- Node1&#45;&gt;Node4 -->
<g id="edge3" class="edge">
<title>Node1&#45;&gt;Node4</title>
<path fill="none" stroke="midnightblue" d="M443.14,-112.32C456.87,-103.9 477.94,-90.97 494.06,-81.07"/>
<polygon fill="midnightblue" stroke="midnightblue" points="496.2,-83.87 502.9,-75.65 492.54,-77.9 496.2,-83.87"/>
</g>
<!-- Node5 -->
<g id="node5" class="node">
<title>Node5</title>
<g id="a_node5"><a xlink:title=" ">
<polygon fill="white" stroke="#bfbfbf" points="563.5,-56.5 563.5,-75.5 612.5,-75.5 612.5,-56.5 563.5,-56.5"/>
<text text-anchor="middle" x="588" y="-63.5" font-family="Helvetica,sans-Serif" font-size="10.00">cassert</text>
</a>
</g>
</g>
<!-- Node1&#45;&gt;Node5 -->
<g id="edge4" class="edge">
<title>Node1&#45;&gt;Node5</title>
<path fill="none" stroke="midnightblue" d="M454.19,-112.44C481.1,-103.31 523.9,-88.77 553.83,-78.6"/>
<polygon fill="midnightblue" stroke="midnightblue" points="555.1,-81.87 563.45,-75.34 552.85,-75.24 555.1,-81.87"/>
</g>
<!-- Node6 -->
<g id="node6" class="node">
<title>Node6</title>
<g id="a_node6"><a xlink:title=" ">
<polygon fill="white" stroke="#bfbfbf" points="631,-56.5 631,-75.5 677,-75.5 677,-56.5 631,-56.5"/>
<text text-anchor="middle" x="654" y="-63.5" font-family="Helvetica,sans-Serif" font-size="10.00">cstring</text>
</a>
</g>
</g>
<!-- Node1&#45;&gt;Node6 -->
<g id="edge5" class="edge">
<title>Node1&#45;&gt;Node6</title>
<path fill="none" stroke="midnightblue" d="M467.35,-112.44C506.18,-103.67 567.9,-89.46 621,-76 621.1,-75.97 621.2,-75.95 621.3,-75.92"/>
<polygon fill="midnightblue" stroke="midnightblue" points="622.16,-79.32 630.95,-73.4 620.39,-72.54 622.16,-79.32"/>
</g>
<!-- Node7 -->
<g id="node7" class="node">
<title>Node7</title>
<g id="a_node7"><a xlink:title=" ">
<polygon fill="white" stroke="#bfbfbf" points="695,-56.5 695,-75.5 739,-75.5 739,-56.5 695,-56.5"/>
<text text-anchor="middle" x="717" y="-63.5" font-family="Helvetica,sans-Serif" font-size="10.00">cmath</text>
</a>
</g>
</g>
<!-- Node1&#45;&gt;Node7 -->
<g id="edge6" class="edge">
<title>Node1&#45;&gt;Node7</title>
<path fill="none" stroke="midnightblue" d="M478.11,-114.03C527.94,-106.6 607.44,-93.74 684.81,-76.08"/>
<polygon fill="midnightblue" stroke="midnightblue" points="685.77,-79.45 694.73,-73.78 684.19,-72.63 685.77,-79.45"/>
</g>
<!-- Node8 -->
<g id="node8" class="node">
<title>Node8</title>
<g id="a_node8"><a xlink:title=" ">
<polygon fill="white" stroke="#bfbfbf" points="62,-0.5 62,-19.5 116,-19.5 116,-0.5 62,-0.5"/>
<text text-anchor="middle" x="89" y="-7.5" font-family="Helvetica,sans-Serif" font-size="10.00">iostream</text>
</a>
</g>
</g>
<!-- Node1&#45;&gt;Node8 -->
<g id="edge7" class="edge">
<title>Node1&#45;&gt;Node8</title>
<path fill="none" stroke="midnightblue" d="M379.85,-117.08C330.86,-111.93 254.15,-100.49 192,-76 160.27,-63.5 127.63,-40.95 107.83,-25.97"/>
<polygon fill="midnightblue" stroke="midnightblue" points="109.74,-23.02 99.68,-19.69 105.46,-28.57 109.74,-23.02"/>
</g>
<!-- Node9 -->
<g id="node9" class="node">
<title>Node9</title>
<g id="a_node9"><a xlink:title=" ">
<polygon fill="white" stroke="#bfbfbf" points="134.5,-0.5 134.5,-19.5 175.5,-19.5 175.5,-0.5 134.5,-0.5"/>
<text text-anchor="middle" x="155" y="-7.5" font-family="Helvetica,sans-Serif" font-size="10.00">mpi.h</text>
</a>
</g>
</g>
<!-- Node1&#45;&gt;Node9 -->
<g id="edge8" class="edge">
<title>Node1&#45;&gt;Node9</title>
<path fill="none" stroke="midnightblue" d="M379.95,-117.96C336.26,-113.54 271.75,-102.68 222,-76 199.79,-64.09 179.85,-42.67 167.61,-27.69"/>
<polygon fill="midnightblue" stroke="midnightblue" points="170.27,-25.41 161.33,-19.73 164.77,-29.75 170.27,-25.41"/>
</g>
<!-- Node10 -->
<g id="node10" class="node">
<title>Node10</title>
<g id="a_node10"><a xlink:title=" ">
<polygon fill="white" stroke="#bfbfbf" points="757,-56.5 757,-75.5 801,-75.5 801,-56.5 757,-56.5"/>
<text text-anchor="middle" x="779" y="-63.5" font-family="Helvetica,sans-Serif" font-size="10.00">omp.h</text>
</a>
</g>
</g>
<!-- Node1&#45;&gt;Node10 -->
<g id="edge9" class="edge">
<title>Node1&#45;&gt;Node10</title>
<path fill="none" stroke="midnightblue" d="M478.02,-116.28C538.94,-109.92 646.2,-97.16 746.73,-76.01"/>
<polygon fill="midnightblue" stroke="midnightblue" points="747.7,-79.38 756.75,-73.87 746.24,-72.54 747.7,-79.38"/>
</g>
<!-- Node11 -->
<g id="node11" class="node">
<title>Node11</title>
<g id="a_node11"><a xlink:title=" ">
<polygon fill="white" stroke="#bfbfbf" points="193.5,-0.5 193.5,-19.5 244.5,-19.5 244.5,-0.5 193.5,-0.5"/>
<text text-anchor="middle" x="219" y="-7.5" font-family="Helvetica,sans-Serif" font-size="10.00">unistd.h</text>
</a>
</g>
</g>
<!-- Node1&#45;&gt;Node11 -->
<g id="edge10" class="edge">
<title>Node1&#45;&gt;Node11</title>
<path fill="none" stroke="midnightblue" d="M379.67,-115.06C330.07,-108.13 258.15,-95.11 238,-76 225.48,-64.13 221.07,-44.5 219.59,-29.92"/>
<polygon fill="midnightblue" stroke="midnightblue" points="223.06,-29.3 218.93,-19.55 216.07,-29.75 223.06,-29.3"/>
</g>
<!-- Node12 -->
<g id="node12" class="node">
<title>Node12</title>
<g id="a_node12"><a xlink:href="brick_8h.html" target="_top" xlink:title="Main header for bricks.">
<polygon fill="white" stroke="black" points="819,-56.5 819,-75.5 865,-75.5 865,-56.5 819,-56.5"/>
<text text-anchor="middle" x="842" y="-63.5" font-family="Helvetica,sans-Serif" font-size="10.00">brick.h</text>
</a>
</g>
</g>
<!-- Node1&#45;&gt;Node12 -->
<g id="edge11" class="edge">
<title>Node1&#45;&gt;Node12</title>
<path fill="none" stroke="midnightblue" d="M478.1,-117.67C549.11,-112.32 684.69,-100.07 808.64,-75.99"/>
<polygon fill="midnightblue" stroke="midnightblue" points="809.55,-79.38 818.68,-74.01 808.2,-72.52 809.55,-79.38"/>
</g>
<!-- Node16 -->
<g id="node16" class="node">
<title>Node16</title>
<g id="a_node16"><a xlink:href="bitset_8h.html" target="_top" xlink:title="Set using bitfield.">
<polygon fill="white" stroke="black" points="320.5,-56.5 320.5,-75.5 369.5,-75.5 369.5,-56.5 320.5,-56.5"/>
<text text-anchor="middle" x="345" y="-63.5" font-family="Helvetica,sans-Serif" font-size="10.00">bitset.h</text>
</a>
</g>
</g>
<!-- Node1&#45;&gt;Node16 -->
<g id="edge15" class="edge">
<title>Node1&#45;&gt;Node16</title>
<path fill="none" stroke="midnightblue" d="M415.5,-112.32C402.4,-103.9 382.29,-90.97 366.89,-81.07"/>
<polygon fill="midnightblue" stroke="midnightblue" points="368.77,-78.12 358.46,-75.65 364.98,-84.01 368.77,-78.12"/>
</g>
<!-- Node19 -->
<g id="node19" class="node">
<title>Node19</title>
<g id="a_node19"><a xlink:href="memfd_8h.html" target="_top" xlink:title="Helper data structure for memory file.">
<polygon fill="white" stroke="black" points="247.5,-56.5 247.5,-75.5 302.5,-75.5 302.5,-56.5 247.5,-56.5"/>
<text text-anchor="middle" x="275" y="-63.5" font-family="Helvetica,sans-Serif" font-size="10.00">memfd.h</text>
</a>
</g>
</g>
<!-- Node1&#45;&gt;Node19 -->
<g id="edge18" class="edge">
<title>Node1&#45;&gt;Node19</title>
<path fill="none" stroke="midnightblue" d="M404.6,-112.44C378.8,-103.4 337.92,-89.06 308.98,-78.92"/>
<polygon fill="midnightblue" stroke="midnightblue" points="309.88,-75.52 299.29,-75.52 307.57,-82.13 309.88,-75.52"/>
</g>
<!-- Node13 -->
<g id="node13" class="node">
<title>Node13</title>
<g id="a_node13"><a xlink:title=" ">
<polygon fill="white" stroke="#bfbfbf" points="745,-0.5 745,-19.5 793,-19.5 793,-0.5 745,-0.5"/>
<text text-anchor="middle" x="769" y="-7.5" font-family="Helvetica,sans-Serif" font-size="10.00">stdlib.h</text>
</a>
</g>
</g>
<!-- Node12&#45;&gt;Node13 -->
<g id="edge12" class="edge">
<title>Node12&#45;&gt;Node13</title>
<path fill="none" stroke="midnightblue" d="M830.27,-56.32C819.16,-48.11 802.26,-35.6 789.02,-25.81"/>
<polygon fill="midnightblue" stroke="midnightblue" points="791.06,-22.97 780.94,-19.83 786.9,-28.59 791.06,-22.97"/>
</g>
<!-- Node14 -->
<g id="node14" class="node">
<title>Node14</title>
<g id="a_node14"><a xlink:title=" ">
<polygon fill="white" stroke="#bfbfbf" points="811,-0.5 811,-19.5 873,-19.5 873,-0.5 811,-0.5"/>
<text text-anchor="middle" x="842" y="-7.5" font-family="Helvetica,sans-Serif" font-size="10.00">type_traits</text>
</a>
</g>
</g>
<!-- Node12&#45;&gt;Node14 -->
<g id="edge13" class="edge">
<title>Node12&#45;&gt;Node14</title>
<path fill="none" stroke="midnightblue" d="M842,-56.08C842,-49.01 842,-38.86 842,-29.99"/>
<polygon fill="midnightblue" stroke="midnightblue" points="845.5,-29.75 842,-19.75 838.5,-29.75 845.5,-29.75"/>
</g>
<!-- Node15 -->
<g id="node15" class="node">
<title>Node15</title>
<g id="a_node15"><a xlink:href="vecscatter_8h.html" target="_top" xlink:title="Interface to code generator.">
<polygon fill="white" stroke="black" points="891.5,-0.5 891.5,-19.5 962.5,-19.5 962.5,-0.5 891.5,-0.5"/>
<text text-anchor="middle" x="927" y="-7.5" font-family="Helvetica,sans-Serif" font-size="10.00">vecscatter.h</text>
</a>
</g>
</g>
<!-- Node12&#45;&gt;Node15 -->
<g id="edge14" class="edge">
<title>Node12&#45;&gt;Node15</title>
<path fill="none" stroke="midnightblue" d="M855.66,-56.32C868.92,-47.9 889.27,-34.97 904.85,-25.07"/>
<polygon fill="midnightblue" stroke="midnightblue" points="906.81,-27.97 913.38,-19.65 903.06,-22.06 906.81,-27.97"/>
</g>
<!-- Node17 -->
<g id="node17" class="node">
<title>Node17</title>
<g id="a_node17"><a xlink:title=" ">
<polygon fill="white" stroke="#bfbfbf" points="548.5,-0.5 548.5,-19.5 621.5,-19.5 621.5,-0.5 548.5,-0.5"/>
<text text-anchor="middle" x="585" y="-7.5" font-family="Helvetica,sans-Serif" font-size="10.00">initializer_list</text>
</a>
</g>
</g>
<!-- Node16&#45;&gt;Node17 -->
<g id="edge16" class="edge">
<title>Node16&#45;&gt;Node17</title>
<path fill="none" stroke="midnightblue" d="M369.83,-58.08C372.58,-57.36 375.35,-56.65 378,-56 432.78,-42.59 496.21,-29.09 538.27,-20.43"/>
<polygon fill="midnightblue" stroke="midnightblue" points="539.13,-23.83 548.22,-18.39 537.72,-16.97 539.13,-23.83"/>
</g>
<!-- Node18 -->
<g id="node18" class="node">
<title>Node18</title>
<g id="a_node18"><a xlink:title=" ">
<polygon fill="white" stroke="#bfbfbf" points="640,-0.5 640,-19.5 692,-19.5 692,-0.5 640,-0.5"/>
<text text-anchor="middle" x="666" y="-7.5" font-family="Helvetica,sans-Serif" font-size="10.00">ostream</text>
</a>
</g>
</g>
<!-- Node16&#45;&gt;Node18 -->
<g id="edge17" class="edge">
<title>Node16&#45;&gt;Node18</title>
<path fill="none" stroke="midnightblue" d="M369.79,-57.88C372.55,-57.2 375.33,-56.55 378,-56 485.65,-33.72 517.2,-41.28 629.68,-19.85"/>
<polygon fill="midnightblue" stroke="midnightblue" points="630.57,-23.24 639.72,-17.9 629.24,-16.37 630.57,-23.24"/>
</g>
<!-- Node19&#45;&gt;Node2 -->
<g id="edge20" class="edge">
<title>Node19&#45;&gt;Node2</title>
<path fill="none" stroke="midnightblue" d="M247.5,-60.18C207.19,-52.96 129.55,-38.42 54.4,-20.19"/>
<polygon fill="midnightblue" stroke="midnightblue" points="54.84,-16.69 44.29,-17.71 53.17,-23.49 54.84,-16.69"/>
</g>
<!-- Node19&#45;&gt;Node8 -->
<g id="edge19" class="edge">
<title>Node19&#45;&gt;Node8</title>
<path fill="none" stroke="midnightblue" d="M247.15,-56.92C214.96,-47.57 161.84,-32.15 126.15,-21.79"/>
<polygon fill="midnightblue" stroke="midnightblue" points="126.71,-18.3 116.13,-18.88 124.76,-25.03 126.71,-18.3"/>
</g>
<!-- Node19&#45;&gt;Node9 -->
<g id="edge27" class="edge">
<title>Node19&#45;&gt;Node9</title>
<path fill="none" stroke="midnightblue" d="M255.99,-56.44C236.41,-47.64 205.69,-33.81 183.27,-23.72"/>
<polygon fill="midnightblue" stroke="midnightblue" points="184.48,-20.43 173.93,-19.52 181.61,-26.81 184.48,-20.43"/>
</g>
<!-- Node19&#45;&gt;Node11 -->
<g id="edge26" class="edge">
<title>Node19&#45;&gt;Node11</title>
<path fill="none" stroke="midnightblue" d="M266,-56.32C257.81,-48.42 245.49,-36.55 235.53,-26.94"/>
<polygon fill="midnightblue" stroke="midnightblue" points="237.79,-24.26 228.16,-19.83 232.93,-29.29 237.79,-24.26"/>
</g>
<!-- Node19&#45;&gt;Node17 -->
<g id="edge21" class="edge">
<title>Node19&#45;&gt;Node17</title>
<path fill="none" stroke="midnightblue" d="M302.85,-57.78C305.6,-57.14 308.35,-56.54 311,-56 408.39,-36.18 436.25,-37.73 538.26,-20.06"/>
<polygon fill="midnightblue" stroke="midnightblue" points="539.12,-23.47 548.36,-18.29 537.91,-16.57 539.12,-23.47"/>
</g>
<!-- Node20 -->
<g id="node20" class="node">
<title>Node20</title>
<g id="a_node20"><a xlink:title=" ">
<polygon fill="white" stroke="#bfbfbf" points="327.5,-0.5 327.5,-19.5 398.5,-19.5 398.5,-0.5 327.5,-0.5"/>
<text text-anchor="middle" x="363" y="-7.5" font-family="Helvetica,sans-Serif" font-size="10.00">sys/mman.h</text>
</a>
</g>
</g>
<!-- Node19&#45;&gt;Node20 -->
<g id="edge22" class="edge">
<title>Node19&#45;&gt;Node20</title>
<path fill="none" stroke="midnightblue" d="M289.14,-56.32C302.87,-47.9 323.94,-34.97 340.06,-25.07"/>
<polygon fill="midnightblue" stroke="midnightblue" points="342.2,-27.87 348.9,-19.65 338.54,-21.9 342.2,-27.87"/>
</g>
<!-- Node21 -->
<g id="node21" class="node">
<title>Node21</title>
<g id="a_node21"><a xlink:title=" ">
<polygon fill="white" stroke="#bfbfbf" points="417,-0.5 417,-19.5 463,-19.5 463,-0.5 417,-0.5"/>
<text text-anchor="middle" x="440" y="-7.5" font-family="Helvetica,sans-Serif" font-size="10.00">stdio.h</text>
</a>
</g>
</g>
<!-- Node19&#45;&gt;Node21 -->
<g id="edge23" class="edge">
<title>Node19&#45;&gt;Node21</title>
<path fill="none" stroke="midnightblue" d="M301.14,-56.44C329.93,-47.02 376.23,-31.87 407.37,-21.68"/>
<polygon fill="midnightblue" stroke="midnightblue" points="408.49,-24.99 416.91,-18.56 406.31,-18.34 408.49,-24.99"/>
</g>
<!-- Node22 -->
<g id="node22" class="node">
<title>Node22</title>
<g id="a_node22"><a xlink:title=" ">
<polygon fill="white" stroke="#bfbfbf" points="481.5,-0.5 481.5,-19.5 530.5,-19.5 530.5,-0.5 481.5,-0.5"/>
<text text-anchor="middle" x="506" y="-7.5" font-family="Helvetica,sans-Serif" font-size="10.00">string.h</text>
</a>
</g>
</g>
<!-- Node19&#45;&gt;Node22 -->
<g id="edge24" class="edge">
<title>Node19&#45;&gt;Node22</title>
<path fill="none" stroke="midnightblue" d="M302.5,-58.05C305.37,-57.35 308.24,-56.65 311,-56 379.28,-39.83 399.09,-37.56 471.12,-20.14"/>
<polygon fill="midnightblue" stroke="midnightblue" points="472.26,-23.46 481.15,-17.7 470.6,-16.66 472.26,-23.46"/>
</g>
<!-- Node23 -->
<g id="node23" class="node">
<title>Node23</title>
<g id="a_node23"><a xlink:title=" ">
<polygon fill="white" stroke="#bfbfbf" points="262.5,-0.5 262.5,-19.5 309.5,-19.5 309.5,-0.5 262.5,-0.5"/>
<text text-anchor="middle" x="286" y="-7.5" font-family="Helvetica,sans-Serif" font-size="10.00">errno.h</text>
</a>
</g>
</g>
<!-- Node19&#45;&gt;Node23 -->
<g id="edge25" class="edge">
<title>Node19&#45;&gt;Node23</title>
<path fill="none" stroke="midnightblue" d="M276.82,-56.08C278.27,-48.93 280.37,-38.64 282.19,-29.69"/>
<polygon fill="midnightblue" stroke="midnightblue" points="285.65,-30.25 284.22,-19.75 278.79,-28.85 285.65,-30.25"/>
</g>
</g>
</svg>
        <g id="navigator" transform="translate(0 0)" fill="#404254">
                <rect fill="#f2f5e9" fill-opacity="0.5" stroke="#606060" stroke-width=".5" x="0" y="0" width="60" height="60"/>
                <use id="zoomplus" xlink:href="#zoomPlus" x="17" y="9" onmousedown="handleZoom(evt,'in')"/>
                <use id="zoomminus" xlink:href="#zoomMin" x="42" y="9" onmousedown="handleZoom(evt,'out')"/>
                <use id="reset" xlink:href="#resetDef" x="30" y="36" onmousedown="handleReset()"/>
                <g id="arrowUp" xlink:href="#dirArrow" transform="translate(30 24)" onmousedown="handlePan(0,-1)">
                  <use xlink:href="#rim" fill="#404040">
                        <set attributeName="fill" to="#808080" begin="arrowUp.mouseover" end="arrowUp.mouseout"/>
                  </use>
                  <path fill="none" stroke="white" stroke-width="1.5" d="M0,-3.0v7 M-2.5,-0.5L0,-3.0L2.5,-0.5"/>
                </g>
                <g id="arrowRight" xlink:href="#dirArrow" transform="rotate(90) translate(36 -43)" onmousedown="handlePan(1,0)">
                  <use xlink:href="#rim" fill="#404040">
                        <set attributeName="fill" to="#808080" begin="arrowRight.mouseover" end="arrowRight.mouseout"/>
                  </use>
                  <path fill="none" stroke="white" stroke-width="1.5" d="M0,-3.0v7 M-2.5,-0.5L0,-3.0L2.5,-0.5"/>
                </g>
                <g id="arrowDown" xlink:href="#dirArrow" transform="rotate(180) translate(-30 -48)" onmousedown="handlePan(0,1)">
                  <use xlink:href="#rim" fill="#404040">
                        <set attributeName="fill" to="#808080" begin="arrowDown.mouseover" end="arrowDown.mouseout"/>
                  </use>
                  <path fill="none" stroke="white" stroke-width="1.5" d="M0,-3.0v7 M-2.5,-0.5L0,-3.0L2.5,-0.5"/>
                </g>
                <g id="arrowLeft" xlink:href="#dirArrow" transform="rotate(270) translate(-36 17)" onmousedown="handlePan(-1,0)">
                  <use xlink:href="#rim" fill="#404040">
                        <set attributeName="fill" to="#808080" begin="arrowLeft.mouseover" end="arrowLeft.mouseout"/>
                  </use>
                  <path fill="none" stroke="white" stroke-width="1.5" d="M0,-3.0v7 M-2.5,-0.5L0,-3.0L2.5,-0.5"/>
                </g>
        </g>
        <svg viewBox="0 0 15 15" width="100%" height="30px" preserveAspectRatio="xMaxYMin meet">
         <g id="arrow_out" transform="scale(0.3 0.3)">
          <a xlink:href="brick-mpi_8h__incl_org.svg" target="_base">
           <rect id="button" ry="5" rx="5" y="6" x="6" height="38" width="38"
                fill="#f2f5e9" fill-opacity="0.5" stroke="#606060" stroke-width="1.0"/>
           <path id="arrow"
             d="M 11.500037,31.436501 C 11.940474,20.09759 22.043105,11.32322 32.158766,21.979434 L 37.068811,17.246167 C 37.068811,17.246167 37.088388,32 37.088388,32 L 22.160133,31.978069 C 22.160133,31.978069 26.997745,27.140456 26.997745,27.140456 C 18.528582,18.264221 13.291696,25.230495 11.500037,31.436501 z"
             style="fill:#404040;"/>
          </a>
         </g>
        </svg>
</svg>
