<?xml version="1.0" encoding="UTF-8" standalone="no"?>
<!DOCTYPE svg PUBLIC "-//W3C//DTD SVG 1.1//EN"
 "http://www.w3.org/Graphics/SVG/1.1/DTD/svg11.dtd">
<!-- Generated by graphviz version 2.42.3 (0)
 -->
<!-- Title: include/brick&#45;opencl.h Pages: 1 -->
<svg width="156pt" height="84pt"
 viewBox="0.00 0.00 156.00 84.00" xmlns="http://www.w3.org/2000/svg" xmlns:xlink="http://www.w3.org/1999/xlink">
<g id="graph0" class="graph" transform="scale(1 1) rotate(0) translate(4 80)">
<title>include/brick&#45;opencl.h</title>
<polygon fill="white" stroke="transparent" points="-4,4 -4,-80 152,-80 152,4 -4,4"/>
<!-- Node1 -->
<g id="node1" class="node">
<title>Node1</title>
<g id="a_node1"><a xlink:title="Header necessary for OpenCL program/kernel to include.">
<polygon fill="#bfbfbf" stroke="black" points="21,-56.5 21,-75.5 132,-75.5 132,-56.5 21,-56.5"/>
<text text-anchor="middle" x="76.5" y="-63.5" font-family="Helvetica,sans-Serif" font-size="10.00">include/brick&#45;opencl.h</text>
</a>
</g>
</g>
<!-- Node2 -->
<g id="node2" class="node">
<title>Node2</title>
<g id="a_node2"><a xlink:href="vecscatter_8h.html" target="_top" xlink:title="Interface to code generator.">
<polygon fill="white" stroke="black" points="0,-0.5 0,-19.5 71,-19.5 71,-0.5 0,-0.5"/>
<text text-anchor="middle" x="35.5" y="-7.5" font-family="Helvetica,sans-Serif" font-size="10.00">vecscatter.h</text>
</a>
</g>
</g>
<!-- Node1&#45;&gt;Node2 -->
<g id="edge1" class="edge">
<title>Node1&#45;&gt;Node2</title>
<path fill="none" stroke="midnightblue" d="M69.73,-56.08C63.94,-48.46 55.44,-37.26 48.36,-27.94"/>
<polygon fill="midnightblue" stroke="midnightblue" points="50.98,-25.6 42.14,-19.75 45.4,-29.83 50.98,-25.6"/>
</g>
<!-- Node3 -->
<g id="node3" class="node">
<title>Node3</title>
<g id="a_node3"><a xlink:href="dev__shl_8h.html" target="_top" xlink:title="Implementation for various shuffle implementations.">
<polygon fill="white" stroke="black" points="89,-0.5 89,-19.5 148,-19.5 148,-0.5 89,-0.5"/>
<text text-anchor="middle" x="118.5" y="-7.5" font-family="Helvetica,sans-Serif" font-size="10.00">dev_shl.h</text>
</a>
</g>
</g>
<!-- Node1&#45;&gt;Node3 -->
<g id="edge2" class="edge">
<title>Node1&#45;&gt;Node3</title>
<path fill="none" stroke="midnightblue" d="M83.44,-56.08C89.43,-48.38 98.25,-37.03 105.55,-27.65"/>
<polygon fill="midnightblue" stroke="midnightblue" points="108.32,-29.79 111.69,-19.75 102.79,-25.5 108.32,-29.79"/>
</g>
</g>
</svg>
