<?xml version="1.0" encoding="UTF-8" standalone="no"?>
<!DOCTYPE svg PUBLIC "-//W3C//DTD SVG 1.1//EN"
 "http://www.w3.org/Graphics/SVG/1.1/DTD/svg11.dtd">
<!-- Generated by graphviz version 2.42.3 (0)
 -->
<!-- Title: populate Pages: 1 -->
<svg width="272pt" height="28pt"
 viewBox="0.00 0.00 272.00 28.00" xmlns="http://www.w3.org/2000/svg" xmlns:xlink="http://www.w3.org/1999/xlink">
<g id="graph0" class="graph" transform="scale(1 1) rotate(0) translate(4 24)">
<title>populate</title>
<polygon fill="white" stroke="transparent" points="-4,4 -4,-24 268,-24 268,4 -4,4"/>
<!-- Node1 -->
<g id="node1" class="node">
<title>Node1</title>
<g id="a_node1"><a xlink:title="Populate neighbor&#45;rank map for BrickDecomp using MPI_Comm.">
<polygon fill="#bfbfbf" stroke="black" points="0,-0.5 0,-19.5 53,-19.5 53,-0.5 0,-0.5"/>
<text text-anchor="middle" x="26.5" y="-7.5" font-family="Helvetica,sans-Serif" font-size="10.00">populate</text>
</a>
</g>
</g>
<!-- Node2 -->
<g id="node2" class="node">
<title>Node2</title>
<g id="a_node2"><a xlink:href="structBitSet.html#a16777c7f003bbd964210fc95bec2d1a4" target="_top" xlink:title="Flipping an element.">
<polygon fill="white" stroke="black" points="89,-0.5 89,-19.5 151,-19.5 151,-0.5 89,-0.5"/>
<text text-anchor="middle" x="120" y="-7.5" font-family="Helvetica,sans-Serif" font-size="10.00">BitSet::flip</text>
</a>
</g>
</g>
<!-- Node1&#45;&gt;Node2 -->
<g id="edge1" class="edge">
<title>Node1&#45;&gt;Node2</title>
<path fill="none" stroke="midnightblue" d="M53.48,-10C61.29,-10 70.05,-10 78.57,-10"/>
<polygon fill="midnightblue" stroke="midnightblue" points="78.75,-13.5 88.75,-10 78.75,-6.5 78.75,-13.5"/>
</g>
<!-- Node3 -->
<g id="node3" class="node">
<title>Node3</title>
<g id="a_node3"><a xlink:href="structBitSet.html#a46274b431928dfd890099035e52c371a" target="_top" xlink:title="Turn number into corresponding element of set.">
<polygon fill="white" stroke="black" points="187,-0.5 187,-19.5 264,-19.5 264,-0.5 187,-0.5"/>
<text text-anchor="middle" x="225.5" y="-7.5" font-family="Helvetica,sans-Serif" font-size="10.00">BitSet::to_set</text>
</a>
</g>
</g>
<!-- Node2&#45;&gt;Node3 -->
<g id="edge2" class="edge">
<title>Node2&#45;&gt;Node3</title>
<path fill="none" stroke="midnightblue" d="M151.21,-10C159.19,-10 168,-10 176.66,-10"/>
<polygon fill="midnightblue" stroke="midnightblue" points="176.7,-13.5 186.7,-10 176.7,-6.5 176.7,-13.5"/>
</g>
</g>
</svg>
