<?xml version="1.0" encoding="UTF-8" standalone="no"?>
<!DOCTYPE svg PUBLIC "-//W3C//DTD SVG 1.1//EN"
 "http://www.w3.org/Graphics/SVG/1.1/DTD/svg11.dtd">
<!-- Generated by graphviz version 2.42.3 (0)
 -->
<!-- Title: include/brickcompare.h Pages: 1 -->
<svg width="450pt" height="196pt"
 viewBox="0.00 0.00 449.50 196.00" xmlns="http://www.w3.org/2000/svg" xmlns:xlink="http://www.w3.org/1999/xlink">
<g id="graph0" class="graph" transform="scale(1 1) rotate(0) translate(4 192)">
<title>include/brickcompare.h</title>
<polygon fill="white" stroke="transparent" points="-4,4 -4,-192 445.5,-192 445.5,4 -4,4"/>
<!-- Node1 -->
<g id="node1" class="node">
<title>Node1</title>
<g id="a_node1"><a xlink:title="Compare content from bricks with arrays.">
<polygon fill="#bfbfbf" stroke="black" points="72.5,-168.5 72.5,-187.5 189.5,-187.5 189.5,-168.5 72.5,-168.5"/>
<text text-anchor="middle" x="131" y="-175.5" font-family="Helvetica,sans-Serif" font-size="10.00">include/brickcompare.h</text>
</a>
</g>
</g>
<!-- Node2 -->
<g id="node2" class="node">
<title>Node2</title>
<g id="a_node2"><a xlink:title=" ">
<polygon fill="white" stroke="#bfbfbf" points="0,-112.5 0,-131.5 54,-131.5 54,-112.5 0,-112.5"/>
<text text-anchor="middle" x="27" y="-119.5" font-family="Helvetica,sans-Serif" font-size="10.00">iostream</text>
</a>
</g>
</g>
<!-- Node1&#45;&gt;Node2 -->
<g id="edge1" class="edge">
<title>Node1&#45;&gt;Node2</title>
<path fill="none" stroke="midnightblue" d="M114.29,-168.32C97.69,-159.7 72,-146.36 52.78,-136.39"/>
<polygon fill="midnightblue" stroke="midnightblue" points="54.16,-133.16 43.67,-131.65 50.93,-139.37 54.16,-133.16"/>
</g>
<!-- Node3 -->
<g id="node3" class="node">
<title>Node3</title>
<g id="a_node3"><a xlink:title=" ">
<polygon fill="white" stroke="#bfbfbf" points="72,-112.5 72,-131.5 116,-131.5 116,-112.5 72,-112.5"/>
<text text-anchor="middle" x="94" y="-119.5" font-family="Helvetica,sans-Serif" font-size="10.00">cmath</text>
</a>
</g>
</g>
<!-- Node1&#45;&gt;Node3 -->
<g id="edge2" class="edge">
<title>Node1&#45;&gt;Node3</title>
<path fill="none" stroke="midnightblue" d="M124.89,-168.08C119.72,-160.53 112.15,-149.49 105.81,-140.23"/>
<polygon fill="midnightblue" stroke="midnightblue" points="108.54,-138.02 100,-131.75 102.76,-141.98 108.54,-138.02"/>
</g>
<!-- Node4 -->
<g id="node4" class="node">
<title>Node4</title>
<g id="a_node4"><a xlink:href="bricksetup_8h.html" target="_top" xlink:title="Brick iterator and setup code.">
<polygon fill="white" stroke="black" points="134,-112.5 134,-131.5 204,-131.5 204,-112.5 134,-112.5"/>
<text text-anchor="middle" x="169" y="-119.5" font-family="Helvetica,sans-Serif" font-size="10.00">bricksetup.h</text>
</a>
</g>
</g>
<!-- Node1&#45;&gt;Node4 -->
<g id="edge3" class="edge">
<title>Node1&#45;&gt;Node4</title>
<path fill="none" stroke="midnightblue" d="M137.27,-168.08C142.64,-160.46 150.52,-149.26 157.08,-139.94"/>
<polygon fill="midnightblue" stroke="midnightblue" points="159.95,-141.94 162.84,-131.75 154.22,-137.91 159.95,-141.94"/>
</g>
<!-- Node13 -->
<g id="node13" class="node">
<title>Node13</title>
<g id="a_node13"><a xlink:href="cmpconst_8h.html" target="_top" xlink:title="Tolerance for comparison.">
<polygon fill="white" stroke="black" points="222,-112.5 222,-131.5 290,-131.5 290,-112.5 222,-112.5"/>
<text text-anchor="middle" x="256" y="-119.5" font-family="Helvetica,sans-Serif" font-size="10.00">cmpconst.h</text>
</a>
</g>
</g>
<!-- Node1&#45;&gt;Node13 -->
<g id="edge12" class="edge">
<title>Node1&#45;&gt;Node13</title>
<path fill="none" stroke="midnightblue" d="M150.81,-168.44C171.29,-159.6 203.48,-145.69 226.86,-135.59"/>
<polygon fill="midnightblue" stroke="midnightblue" points="228.49,-138.7 236.29,-131.52 225.72,-132.27 228.49,-138.7"/>
</g>
<!-- Node5 -->
<g id="node5" class="node">
<title>Node5</title>
<g id="a_node5"><a xlink:title=" ">
<polygon fill="white" stroke="#bfbfbf" points="1,-56.5 1,-75.5 45,-75.5 45,-56.5 1,-56.5"/>
<text text-anchor="middle" x="23" y="-63.5" font-family="Helvetica,sans-Serif" font-size="10.00">vector</text>
</a>
</g>
</g>
<!-- Node4&#45;&gt;Node5 -->
<g id="edge4" class="edge">
<title>Node4&#45;&gt;Node5</title>
<path fill="none" stroke="midnightblue" d="M145.87,-112.44C121.23,-103.33 82.08,-88.85 54.61,-78.69"/>
<polygon fill="midnightblue" stroke="midnightblue" points="55.66,-75.35 45.07,-75.16 53.24,-81.91 55.66,-75.35"/>
</g>
<!-- Node6 -->
<g id="node6" class="node">
<title>Node6</title>
<g id="a_node6"><a xlink:title=" ">
<polygon fill="white" stroke="#bfbfbf" points="63.5,-56.5 63.5,-75.5 114.5,-75.5 114.5,-56.5 63.5,-56.5"/>
<text text-anchor="middle" x="89" y="-63.5" font-family="Helvetica,sans-Serif" font-size="10.00">typeinfo</text>
</a>
</g>
</g>
<!-- Node4&#45;&gt;Node6 -->
<g id="edge5" class="edge">
<title>Node4&#45;&gt;Node6</title>
<path fill="none" stroke="midnightblue" d="M156.15,-112.32C143.78,-103.98 124.87,-91.21 110.26,-81.35"/>
<polygon fill="midnightblue" stroke="midnightblue" points="112.07,-78.35 101.82,-75.65 108.15,-84.15 112.07,-78.35"/>
</g>
<!-- Node7 -->
<g id="node7" class="node">
<title>Node7</title>
<g id="a_node7"><a xlink:title=" ">
<polygon fill="white" stroke="#bfbfbf" points="132.5,-56.5 132.5,-75.5 205.5,-75.5 205.5,-56.5 132.5,-56.5"/>
<text text-anchor="middle" x="169" y="-63.5" font-family="Helvetica,sans-Serif" font-size="10.00">initializer_list</text>
</a>
</g>
</g>
<!-- Node4&#45;&gt;Node7 -->
<g id="edge6" class="edge">
<title>Node4&#45;&gt;Node7</title>
<path fill="none" stroke="midnightblue" d="M169,-112.08C169,-105.01 169,-94.86 169,-85.99"/>
<polygon fill="midnightblue" stroke="midnightblue" points="172.5,-85.75 169,-75.75 165.5,-85.75 172.5,-85.75"/>
</g>
<!-- Node8 -->
<g id="node8" class="node">
<title>Node8</title>
<g id="a_node8"><a xlink:title=" ">
<polygon fill="white" stroke="#bfbfbf" points="224,-56.5 224,-75.5 280,-75.5 280,-56.5 224,-56.5"/>
<text text-anchor="middle" x="252" y="-63.5" font-family="Helvetica,sans-Serif" font-size="10.00">algorithm</text>
</a>
</g>
</g>
<!-- Node4&#45;&gt;Node8 -->
<g id="edge7" class="edge">
<title>Node4&#45;&gt;Node8</title>
<path fill="none" stroke="midnightblue" d="M182.34,-112.32C195.16,-103.98 214.78,-91.21 229.94,-81.35"/>
<polygon fill="midnightblue" stroke="midnightblue" points="232.22,-84.04 238.7,-75.65 228.41,-78.17 232.22,-84.04"/>
</g>
<!-- Node9 -->
<g id="node9" class="node">
<title>Node9</title>
<g id="a_node9"><a xlink:href="brick_8h.html" target="_top" xlink:title="Main header for bricks.">
<polygon fill="white" stroke="black" points="298,-56.5 298,-75.5 344,-75.5 344,-56.5 298,-56.5"/>
<text text-anchor="middle" x="321" y="-63.5" font-family="Helvetica,sans-Serif" font-size="10.00">brick.h</text>
</a>
</g>
</g>
<!-- Node4&#45;&gt;Node9 -->
<g id="edge8" class="edge">
<title>Node4&#45;&gt;Node9</title>
<path fill="none" stroke="midnightblue" d="M193.08,-112.44C218.69,-103.35 259.37,-88.9 287.96,-78.74"/>
<polygon fill="midnightblue" stroke="midnightblue" points="289.28,-81.98 297.53,-75.34 286.93,-75.39 289.28,-81.98"/>
</g>
<!-- Node10 -->
<g id="node10" class="node">
<title>Node10</title>
<g id="a_node10"><a xlink:title=" ">
<polygon fill="white" stroke="#bfbfbf" points="224,-0.5 224,-19.5 272,-19.5 272,-0.5 224,-0.5"/>
<text text-anchor="middle" x="248" y="-7.5" font-family="Helvetica,sans-Serif" font-size="10.00">stdlib.h</text>
</a>
</g>
</g>
<!-- Node9&#45;&gt;Node10 -->
<g id="edge9" class="edge">
<title>Node9&#45;&gt;Node10</title>
<path fill="none" stroke="midnightblue" d="M309.27,-56.32C298.16,-48.11 281.26,-35.6 268.02,-25.81"/>
<polygon fill="midnightblue" stroke="midnightblue" points="270.06,-22.97 259.94,-19.83 265.9,-28.59 270.06,-22.97"/>
</g>
<!-- Node11 -->
<g id="node11" class="node">
<title>Node11</title>
<g id="a_node11"><a xlink:title=" ">
<polygon fill="white" stroke="#bfbfbf" points="290,-0.5 290,-19.5 352,-19.5 352,-0.5 290,-0.5"/>
<text text-anchor="middle" x="321" y="-7.5" font-family="Helvetica,sans-Serif" font-size="10.00">type_traits</text>
</a>
</g>
</g>
<!-- Node9&#45;&gt;Node11 -->
<g id="edge10" class="edge">
<title>Node9&#45;&gt;Node11</title>
<path fill="none" stroke="midnightblue" d="M321,-56.08C321,-49.01 321,-38.86 321,-29.99"/>
<polygon fill="midnightblue" stroke="midnightblue" points="324.5,-29.75 321,-19.75 317.5,-29.75 324.5,-29.75"/>
</g>
<!-- Node12 -->
<g id="node12" class="node">
<title>Node12</title>
<g id="a_node12"><a xlink:href="vecscatter_8h.html" target="_top" xlink:title="Interface to code generator.">
<polygon fill="white" stroke="black" points="370.5,-0.5 370.5,-19.5 441.5,-19.5 441.5,-0.5 370.5,-0.5"/>
<text text-anchor="middle" x="406" y="-7.5" font-family="Helvetica,sans-Serif" font-size="10.00">vecscatter.h</text>
</a>
</g>
</g>
<!-- Node9&#45;&gt;Node12 -->
<g id="edge11" class="edge">
<title>Node9&#45;&gt;Node12</title>
<path fill="none" stroke="midnightblue" d="M334.66,-56.32C347.92,-47.9 368.27,-34.97 383.85,-25.07"/>
<polygon fill="midnightblue" stroke="midnightblue" points="385.81,-27.97 392.38,-19.65 382.06,-22.06 385.81,-27.97"/>
</g>
</g>
</svg>
