<?xml version="1.0" encoding="UTF-8" standalone="no"?>
<!DOCTYPE svg PUBLIC "-//W3C//DTD SVG 1.1//EN"
 "http://www.w3.org/Graphics/SVG/1.1/DTD/svg11.dtd">
<!-- Generated by graphviz version 2.42.3 (0)
 -->
<!-- Title: expr.Expr.__rmod__ Pages: 1 -->
<svg width="368pt" height="47pt"
 viewBox="0.00 0.00 368.00 47.00" xmlns="http://www.w3.org/2000/svg" xmlns:xlink="http://www.w3.org/1999/xlink">
<g id="graph0" class="graph" transform="scale(1 1) rotate(0) translate(4 43)">
<title>expr.Expr.__rmod__</title>
<polygon fill="white" stroke="transparent" points="-4,4 -4,-43 364,-43 364,4 -4,4"/>
<!-- Node1 -->
<g id="node1" class="node">
<title>Node1</title>
<g id="a_node1"><a xlink:title=" ">
<polygon fill="#bfbfbf" stroke="black" points="0,-0.5 0,-19.5 104,-19.5 104,-0.5 0,-0.5"/>
<text text-anchor="middle" x="52" y="-7.5" font-family="Helvetica,sans-Serif" font-size="10.00">expr.Expr.__rmod__</text>
</a>
</g>
</g>
<!-- Node2 -->
<g id="node2" class="node">
<title>Node2</title>
<g id="a_node2"><a xlink:href="classexpr_1_1Expr.html#ac29c9be1ec497f7f0bbbc11d2084ae84" target="_top" xlink:title=" ">
<polygon fill="white" stroke="black" points="140,-19.5 140,-38.5 241,-38.5 241,-19.5 140,-19.5"/>
<text text-anchor="middle" x="190.5" y="-26.5" font-family="Helvetica,sans-Serif" font-size="10.00">expr.Expr.__mod__</text>
</a>
</g>
</g>
<!-- Node1&#45;&gt;Node2 -->
<g id="edge1" class="edge">
<title>Node1&#45;&gt;Node2</title>
<path fill="none" stroke="midnightblue" d="M104.22,-17.13C112.59,-18.29 121.33,-19.51 129.88,-20.7"/>
<polygon fill="midnightblue" stroke="midnightblue" points="129.42,-24.17 139.81,-22.08 130.39,-17.24 129.42,-24.17"/>
</g>
<!-- Node3 -->
<g id="node3" class="node">
<title>Node3</title>
<g id="a_node3"><a xlink:href="namespaceexpr.html#a3a25eaf8a14dd5310eb7fc074415d536" target="_top" xlink:title=" ">
<polygon fill="white" stroke="black" points="277,-0.5 277,-19.5 360,-19.5 360,-0.5 277,-0.5"/>
<text text-anchor="middle" x="318.5" y="-7.5" font-family="Helvetica,sans-Serif" font-size="10.00">expr.conv_expr</text>
</a>
</g>
</g>
<!-- Node1&#45;&gt;Node3 -->
<g id="edge3" class="edge">
<title>Node1&#45;&gt;Node3</title>
<path fill="none" stroke="midnightblue" d="M104.31,-10C151.1,-10 219.85,-10 266.53,-10"/>
<polygon fill="midnightblue" stroke="midnightblue" points="266.73,-13.5 276.72,-10 266.72,-6.5 266.73,-13.5"/>
</g>
<!-- Node2&#45;&gt;Node3 -->
<g id="edge2" class="edge">
<title>Node2&#45;&gt;Node3</title>
<path fill="none" stroke="midnightblue" d="M241.3,-21.49C249.71,-20.22 258.45,-18.9 266.88,-17.63"/>
<polygon fill="midnightblue" stroke="midnightblue" points="267.61,-21.06 276.97,-16.11 266.56,-14.14 267.61,-21.06"/>
</g>
</g>
</svg>
