<?xml version="1.0" encoding="UTF-8" standalone="no"?>
<!DOCTYPE svg PUBLIC "-//W3C//DTD SVG 1.1//EN"
 "http://www.w3.org/Graphics/SVG/1.1/DTD/svg11.dtd">
<!-- Generated by graphviz version 2.42.3 (0)
 -->
<!-- Title: expr.Expr Pages: 1 -->
<svg width="296pt" height="294pt"
 viewBox="0.00 0.00 296.00 294.00" xmlns="http://www.w3.org/2000/svg" xmlns:xlink="http://www.w3.org/1999/xlink">
<g id="graph0" class="graph" transform="scale(1 1) rotate(0) translate(4 290)">
<title>expr.Expr</title>
<polygon fill="white" stroke="transparent" points="-4,4 -4,-290 292,-290 292,4 -4,4"/>
<!-- Node1 -->
<g id="node1" class="node">
<title>Node1</title>
<g id="a_node1"><a xlink:title=" ">
<polygon fill="#bfbfbf" stroke="black" points="98,-133.5 98,-152.5 157,-152.5 157,-133.5 98,-133.5"/>
<text text-anchor="middle" x="127.5" y="-140.5" font-family="Helvetica,sans-Serif" font-size="10.00">expr.Expr</text>
</a>
</g>
</g>
<!-- Node5 -->
<g id="node5" class="node">
<title>Node5</title>
<g id="a_node5"><a xlink:href="classexpr_1_1BinOp.html" target="_top" xlink:title=" ">
<polygon fill="white" stroke="black" points="208,-266.5 208,-285.5 273,-285.5 273,-266.5 208,-266.5"/>
<text text-anchor="middle" x="240.5" y="-273.5" font-family="Helvetica,sans-Serif" font-size="10.00">expr.BinOp</text>
</a>
</g>
</g>
<!-- Node1&#45;&gt;Node5 -->
<g id="edge4" class="edge">
<title>Node1&#45;&gt;Node5</title>
<path fill="none" stroke="midnightblue" d="M134.82,-162.12C143.96,-187.09 163.13,-230.7 193,-257 197.32,-260.8 202.5,-263.91 207.82,-266.42"/>
<polygon fill="midnightblue" stroke="midnightblue" points="138.11,-160.95 131.51,-152.66 131.51,-163.26 138.11,-160.95"/>
</g>
<!-- Node6 -->
<g id="node6" class="node">
<title>Node6</title>
<g id="a_node6"><a xlink:href="classexpr_1_1ConstRef.html" target="_top" xlink:title=" ">
<polygon fill="white" stroke="black" points="200.5,-228.5 200.5,-247.5 280.5,-247.5 280.5,-228.5 200.5,-228.5"/>
<text text-anchor="middle" x="240.5" y="-235.5" font-family="Helvetica,sans-Serif" font-size="10.00">expr.ConstRef</text>
</a>
</g>
</g>
<!-- Node1&#45;&gt;Node6 -->
<g id="edge5" class="edge">
<title>Node1&#45;&gt;Node6</title>
<path fill="none" stroke="midnightblue" d="M140.12,-161.17C151.74,-178.1 171.01,-203.05 193,-219 198.08,-222.69 203.98,-225.8 209.84,-228.38"/>
<polygon fill="midnightblue" stroke="midnightblue" points="142.94,-159.09 134.49,-152.7 137.11,-162.96 142.94,-159.09"/>
</g>
<!-- Node7 -->
<g id="node7" class="node">
<title>Node7</title>
<g id="a_node7"><a xlink:href="classexpr_1_1FloatLiteral.html" target="_top" xlink:title=" ">
<polygon fill="white" stroke="black" points="197.5,-190.5 197.5,-209.5 283.5,-209.5 283.5,-190.5 197.5,-190.5"/>
<text text-anchor="middle" x="240.5" y="-197.5" font-family="Helvetica,sans-Serif" font-size="10.00">expr.FloatLiteral</text>
</a>
</g>
</g>
<!-- Node1&#45;&gt;Node7 -->
<g id="edge6" class="edge">
<title>Node1&#45;&gt;Node7</title>
<path fill="none" stroke="midnightblue" d="M151.84,-157.85C163.9,-165.24 178.99,-174.06 193,-181 199.72,-184.33 207.17,-187.57 214.11,-190.4"/>
<polygon fill="midnightblue" stroke="midnightblue" points="153.62,-154.84 143.28,-152.54 149.92,-160.79 153.62,-154.84"/>
</g>
<!-- Node8 -->
<g id="node8" class="node">
<title>Node8</title>
<g id="a_node8"><a xlink:href="classexpr_1_1If.html" target="_top" xlink:title=" ">
<polygon fill="white" stroke="black" points="218.5,-152.5 218.5,-171.5 262.5,-171.5 262.5,-152.5 218.5,-152.5"/>
<text text-anchor="middle" x="240.5" y="-159.5" font-family="Helvetica,sans-Serif" font-size="10.00">expr.If</text>
</a>
</g>
</g>
<!-- Node1&#45;&gt;Node8 -->
<g id="edge7" class="edge">
<title>Node1&#45;&gt;Node8</title>
<path fill="none" stroke="midnightblue" d="M167.39,-149.66C184.53,-152.59 203.99,-155.92 218.37,-158.38"/>
<polygon fill="midnightblue" stroke="midnightblue" points="167.53,-146.13 157.09,-147.89 166.35,-153.03 167.53,-146.13"/>
</g>
<!-- Node9 -->
<g id="node9" class="node">
<title>Node9</title>
<g id="a_node9"><a xlink:href="classexpr_1_1Index.html" target="_top" xlink:title=" ">
<polygon fill="white" stroke="black" points="209.5,-114.5 209.5,-133.5 271.5,-133.5 271.5,-114.5 209.5,-114.5"/>
<text text-anchor="middle" x="240.5" y="-121.5" font-family="Helvetica,sans-Serif" font-size="10.00">expr.Index</text>
</a>
</g>
</g>
<!-- Node1&#45;&gt;Node9 -->
<g id="edge8" class="edge">
<title>Node1&#45;&gt;Node9</title>
<path fill="none" stroke="midnightblue" d="M167.3,-136.36C181.13,-133.99 196.48,-131.36 209.46,-129.14"/>
<polygon fill="midnightblue" stroke="midnightblue" points="166.35,-132.97 157.09,-138.11 167.53,-139.87 166.35,-132.97"/>
</g>
<!-- Node10 -->
<g id="node10" class="node">
<title>Node10</title>
<g id="a_node10"><a xlink:href="classexpr_1_1IntLiteral.html" target="_top" xlink:title=" ">
<polygon fill="white" stroke="black" points="202.5,-76.5 202.5,-95.5 278.5,-95.5 278.5,-76.5 202.5,-76.5"/>
<text text-anchor="middle" x="240.5" y="-83.5" font-family="Helvetica,sans-Serif" font-size="10.00">expr.IntLiteral</text>
</a>
</g>
</g>
<!-- Node1&#45;&gt;Node10 -->
<g id="edge9" class="edge">
<title>Node1&#45;&gt;Node10</title>
<path fill="none" stroke="midnightblue" d="M151.84,-128.15C163.9,-120.76 178.99,-111.94 193,-105 199.72,-101.67 207.17,-98.43 214.11,-95.6"/>
<polygon fill="midnightblue" stroke="midnightblue" points="149.92,-125.21 143.28,-133.46 153.62,-131.16 149.92,-125.21"/>
</g>
<!-- Node11 -->
<g id="node11" class="node">
<title>Node11</title>
<g id="a_node11"><a xlink:href="classexpr_1_1ReductionOp.html" target="_top" xlink:title=" ">
<polygon fill="white" stroke="black" points="193,-38.5 193,-57.5 288,-57.5 288,-38.5 193,-38.5"/>
<text text-anchor="middle" x="240.5" y="-45.5" font-family="Helvetica,sans-Serif" font-size="10.00">expr.ReductionOp</text>
</a>
</g>
</g>
<!-- Node1&#45;&gt;Node11 -->
<g id="edge10" class="edge">
<title>Node1&#45;&gt;Node11</title>
<path fill="none" stroke="midnightblue" d="M140.12,-124.83C151.74,-107.9 171.01,-82.95 193,-67 198.08,-63.31 203.98,-60.2 209.84,-57.62"/>
<polygon fill="midnightblue" stroke="midnightblue" points="137.11,-123.04 134.49,-133.3 142.94,-126.91 137.11,-123.04"/>
</g>
<!-- Node12 -->
<g id="node12" class="node">
<title>Node12</title>
<g id="a_node12"><a xlink:href="classexpr_1_1UnOp.html" target="_top" xlink:title=" ">
<polygon fill="white" stroke="black" points="208.5,-0.5 208.5,-19.5 272.5,-19.5 272.5,-0.5 208.5,-0.5"/>
<text text-anchor="middle" x="240.5" y="-7.5" font-family="Helvetica,sans-Serif" font-size="10.00">expr.UnOp</text>
</a>
</g>
</g>
<!-- Node1&#45;&gt;Node12 -->
<g id="edge11" class="edge">
<title>Node1&#45;&gt;Node12</title>
<path fill="none" stroke="midnightblue" d="M134.82,-123.88C143.96,-98.91 163.13,-55.3 193,-29 197.45,-25.08 202.82,-21.9 208.3,-19.35"/>
<polygon fill="midnightblue" stroke="midnightblue" points="131.51,-122.74 131.51,-133.34 138.11,-125.05 131.51,-122.74"/>
</g>
<!-- Node2 -->
<g id="node2" class="node">
<title>Node2</title>
<g id="a_node2"><a xlink:title=" ">
<polygon fill="white" stroke="#bfbfbf" points="9.5,-171.5 9.5,-190.5 52.5,-190.5 52.5,-171.5 9.5,-171.5"/>
<text text-anchor="middle" x="31" y="-178.5" font-family="Helvetica,sans-Serif" font-size="10.00">object</text>
</a>
</g>
</g>
<!-- Node2&#45;&gt;Node1 -->
<g id="edge1" class="edge">
<title>Node2&#45;&gt;Node1</title>
<path fill="none" stroke="midnightblue" d="M62.06,-168.91C75.19,-163.63 90.37,-157.53 102.7,-152.57"/>
<polygon fill="midnightblue" stroke="midnightblue" points="60.48,-165.78 52.51,-172.75 63.09,-172.27 60.48,-165.78"/>
</g>
<!-- Node3 -->
<g id="node3" class="node">
<title>Node3</title>
<g id="a_node3"><a xlink:title=" ">
<polygon fill="white" stroke="#bfbfbf" points="0,-133.5 0,-152.5 62,-152.5 62,-133.5 0,-133.5"/>
<text text-anchor="middle" x="31" y="-140.5" font-family="Helvetica,sans-Serif" font-size="10.00">metaclass</text>
</a>
</g>
</g>
<!-- Node3&#45;&gt;Node1 -->
<g id="edge2" class="edge">
<title>Node3&#45;&gt;Node1</title>
<path fill="none" stroke="midnightblue" d="M72.4,-143C80.98,-143 89.88,-143 97.91,-143"/>
<polygon fill="midnightblue" stroke="midnightblue" points="72.16,-139.5 62.16,-143 72.16,-146.5 72.16,-139.5"/>
</g>
<!-- Node4 -->
<g id="node4" class="node">
<title>Node4</title>
<g id="a_node4"><a xlink:title=" ">
<polygon fill="white" stroke="#bfbfbf" points="1.5,-95.5 1.5,-114.5 60.5,-114.5 60.5,-95.5 1.5,-95.5"/>
<text text-anchor="middle" x="31" y="-102.5" font-family="Helvetica,sans-Serif" font-size="10.00">ExprMeta</text>
</a>
</g>
</g>
<!-- Node4&#45;&gt;Node1 -->
<g id="edge3" class="edge">
<title>Node4&#45;&gt;Node1</title>
<path fill="none" stroke="midnightblue" d="M65.35,-118.41C77.66,-123.36 91.36,-128.87 102.66,-133.41"/>
<polygon fill="midnightblue" stroke="midnightblue" points="66.43,-115.07 55.85,-114.59 63.82,-121.57 66.43,-115.07"/>
</g>
</g>
</svg>
