<?xml version="1.0" encoding="UTF-8" standalone="no"?>
<!DOCTYPE svg PUBLIC "-//W3C//DTD SVG 1.1//EN"
 "http://www.w3.org/Graphics/SVG/1.1/DTD/svg11.dtd">
<!-- Generated by graphviz version 2.42.3 (0)
 -->
<!-- Title: backend.base.PrinterRed.__init__ Pages: 1 -->
<svg width="304pt" height="137pt"
 viewBox="0.00 0.00 304.00 137.00" xmlns="http://www.w3.org/2000/svg" xmlns:xlink="http://www.w3.org/1999/xlink">
<g id="graph0" class="graph" transform="scale(1 1) rotate(0) translate(4 133)">
<title>backend.base.PrinterRed.__init__</title>
<polygon fill="white" stroke="transparent" points="-4,4 -4,-133 300,-133 300,4 -4,4"/>
<!-- Node1 -->
<g id="node1" class="node">
<title>Node1</title>
<g id="a_node1"><a xlink:title=" ">
<polygon fill="#bfbfbf" stroke="black" points="0,-49.5 0,-79.5 130,-79.5 130,-49.5 0,-49.5"/>
<text text-anchor="start" x="8" y="-67.5" font-family="Helvetica,sans-Serif" font-size="10.00">backend.base.PrinterRed.</text>
<text text-anchor="middle" x="65" y="-56.5" font-family="Helvetica,sans-Serif" font-size="10.00">__init__</text>
</a>
</g>
</g>
<!-- Node2 -->
<g id="node2" class="node">
<title>Node2</title>
<g id="a_node2"><a xlink:href="classbackend_1_1base_1_1PrinterRed.html#a346cce662326edd72671b0ca7bee6024" target="_top" xlink:title=" ">
<polygon fill="white" stroke="black" points="166,-98.5 166,-128.5 296,-128.5 296,-98.5 166,-98.5"/>
<text text-anchor="start" x="174" y="-116.5" font-family="Helvetica,sans-Serif" font-size="10.00">backend.base.PrinterRed.</text>
<text text-anchor="middle" x="231" y="-105.5" font-family="Helvetica,sans-Serif" font-size="10.00">_print_bufferread</text>
</a>
</g>
</g>
<!-- Node1&#45;&gt;Node2 -->
<g id="edge1" class="edge">
<title>Node1&#45;&gt;Node2</title>
<path fill="none" stroke="midnightblue" d="M116.54,-79.6C133.46,-84.66 152.48,-90.34 170.04,-95.58"/>
<polygon fill="midnightblue" stroke="midnightblue" points="169.04,-98.94 179.62,-98.45 171.04,-92.23 169.04,-98.94"/>
</g>
<!-- Node3 -->
<g id="node3" class="node">
<title>Node3</title>
<g id="a_node3"><a xlink:href="classbackend_1_1base_1_1PrinterRed.html#a8f5b3eae2c89a5f49d29804f735dd29e" target="_top" xlink:title=" ">
<polygon fill="white" stroke="black" points="166,-49.5 166,-79.5 296,-79.5 296,-49.5 166,-49.5"/>
<text text-anchor="start" x="174" y="-67.5" font-family="Helvetica,sans-Serif" font-size="10.00">backend.base.PrinterRed.</text>
<text text-anchor="middle" x="231" y="-56.5" font-family="Helvetica,sans-Serif" font-size="10.00">_print_gridref</text>
</a>
</g>
</g>
<!-- Node1&#45;&gt;Node3 -->
<g id="edge2" class="edge">
<title>Node1&#45;&gt;Node3</title>
<path fill="none" stroke="midnightblue" d="M130.35,-64.5C138.64,-64.5 147.19,-64.5 155.62,-64.5"/>
<polygon fill="midnightblue" stroke="midnightblue" points="155.84,-68 165.84,-64.5 155.84,-61 155.84,-68"/>
</g>
<!-- Node4 -->
<g id="node4" class="node">
<title>Node4</title>
<g id="a_node4"><a xlink:href="classbackend_1_1base_1_1PrinterRed.html#a81c0dd3cbabac1375447d51988e5b278" target="_top" xlink:title=" ">
<polygon fill="white" stroke="black" points="166,-0.5 166,-30.5 296,-30.5 296,-0.5 166,-0.5"/>
<text text-anchor="start" x="174" y="-18.5" font-family="Helvetica,sans-Serif" font-size="10.00">backend.base.PrinterRed.</text>
<text text-anchor="middle" x="231" y="-7.5" font-family="Helvetica,sans-Serif" font-size="10.00">_print_reduction</text>
</a>
</g>
</g>
<!-- Node1&#45;&gt;Node4 -->
<g id="edge3" class="edge">
<title>Node1&#45;&gt;Node4</title>
<path fill="none" stroke="midnightblue" d="M116.54,-49.4C133.46,-44.34 152.48,-38.66 170.04,-33.42"/>
<polygon fill="midnightblue" stroke="midnightblue" points="171.04,-36.77 179.62,-30.55 169.04,-30.06 171.04,-36.77"/>
</g>
</g>
</svg>
