<?xml version="1.0" encoding="UTF-8" standalone="no"?>
<!DOCTYPE svg PUBLIC "-//W3C//DTD SVG 1.1//EN"
 "http://www.w3.org/Graphics/SVG/1.1/DTD/svg11.dtd">
<!-- Generated by graphviz version 2.42.3 (0)
 -->
<!-- Title: printer.Printer Pages: 1 -->
<svg width="176pt" height="196pt"
 viewBox="0.00 0.00 175.50 196.00" xmlns="http://www.w3.org/2000/svg" xmlns:xlink="http://www.w3.org/1999/xlink">
<g id="graph0" class="graph" transform="scale(1 1) rotate(0) translate(4 192)">
<title>printer.Printer</title>
<polygon fill="white" stroke="transparent" points="-4,4 -4,-192 171.5,-192 171.5,4 -4,4"/>
<!-- Node1 -->
<g id="node1" class="node">
<title>Node1</title>
<g id="a_node1"><a xlink:title=" ">
<polygon fill="#bfbfbf" stroke="black" points="39.5,-0.5 39.5,-19.5 114.5,-19.5 114.5,-0.5 39.5,-0.5"/>
<text text-anchor="middle" x="77" y="-7.5" font-family="Helvetica,sans-Serif" font-size="10.00">printer.Printer</text>
</a>
</g>
</g>
<!-- Node2 -->
<g id="node2" class="node">
<title>Node2</title>
<g id="a_node2"><a xlink:href="classprinter_1_1PrinterBase.html" target="_top" xlink:title=" ">
<polygon fill="white" stroke="black" points="28,-56.5 28,-75.5 126,-75.5 126,-56.5 28,-56.5"/>
<text text-anchor="middle" x="77" y="-63.5" font-family="Helvetica,sans-Serif" font-size="10.00">printer.PrinterBase</text>
</a>
</g>
</g>
<!-- Node2&#45;&gt;Node1 -->
<g id="edge1" class="edge">
<title>Node2&#45;&gt;Node1</title>
<path fill="none" stroke="midnightblue" d="M77,-45.8C77,-36.91 77,-26.78 77,-19.75"/>
<polygon fill="midnightblue" stroke="midnightblue" points="73.5,-46.08 77,-56.08 80.5,-46.08 73.5,-46.08"/>
</g>
<!-- Node3 -->
<g id="node3" class="node">
<title>Node3</title>
<g id="a_node3"><a xlink:title=" ">
<polygon fill="white" stroke="#bfbfbf" points="0,-112.5 0,-131.5 62,-131.5 62,-112.5 0,-112.5"/>
<text text-anchor="middle" x="31" y="-119.5" font-family="Helvetica,sans-Serif" font-size="10.00">metaclass</text>
</a>
</g>
</g>
<!-- Node3&#45;&gt;Node2 -->
<g id="edge2" class="edge">
<title>Node3&#45;&gt;Node2</title>
<path fill="none" stroke="midnightblue" d="M45.11,-104.43C53.18,-94.97 62.96,-83.48 69.55,-75.75"/>
<polygon fill="midnightblue" stroke="midnightblue" points="42.42,-102.2 38.6,-112.08 47.75,-106.74 42.42,-102.2"/>
</g>
<!-- Node4 -->
<g id="node4" class="node">
<title>Node4</title>
<g id="a_node4"><a xlink:href="classprinter_1_1Singleton.html" target="_top" xlink:title=" ">
<polygon fill="white" stroke="black" points="80.5,-112.5 80.5,-131.5 167.5,-131.5 167.5,-112.5 80.5,-112.5"/>
<text text-anchor="middle" x="124" y="-119.5" font-family="Helvetica,sans-Serif" font-size="10.00">printer.Singleton</text>
</a>
</g>
</g>
<!-- Node4&#45;&gt;Node2 -->
<g id="edge3" class="edge">
<title>Node4&#45;&gt;Node2</title>
<path fill="none" stroke="midnightblue" d="M109.58,-104.43C101.34,-94.97 91.35,-83.48 84.62,-75.75"/>
<polygon fill="midnightblue" stroke="midnightblue" points="107.03,-106.84 116.24,-112.08 112.31,-102.24 107.03,-106.84"/>
</g>
<!-- Node5 -->
<g id="node5" class="node">
<title>Node5</title>
<g id="a_node5"><a xlink:title=" ">
<polygon fill="white" stroke="#bfbfbf" points="106.5,-168.5 106.5,-187.5 141.5,-187.5 141.5,-168.5 106.5,-168.5"/>
<text text-anchor="middle" x="124" y="-175.5" font-family="Helvetica,sans-Serif" font-size="10.00">type</text>
</a>
</g>
</g>
<!-- Node5&#45;&gt;Node4 -->
<g id="edge4" class="edge">
<title>Node5&#45;&gt;Node4</title>
<path fill="none" stroke="midnightblue" d="M124,-157.8C124,-148.91 124,-138.78 124,-131.75"/>
<polygon fill="midnightblue" stroke="midnightblue" points="120.5,-158.08 124,-168.08 127.5,-158.08 120.5,-158.08"/>
</g>
</g>
</svg>
