<?xml version="1.0" encoding="UTF-8" standalone="no"?>
<!DOCTYPE svg PUBLIC "-//W3C//DTD SVG 1.1//EN"
 "http://www.w3.org/Graphics/SVG/1.1/DTD/svg11.dtd">
<!-- Generated by graphviz version 2.42.3 (0)
 -->
<!-- Title: backend.scalar.PrinterScalar.__init__ Pages: 1 -->
<svg width="334pt" height="137pt"
 viewBox="0.00 0.00 334.00 137.00" xmlns="http://www.w3.org/2000/svg" xmlns:xlink="http://www.w3.org/1999/xlink">
<g id="graph0" class="graph" transform="scale(1 1) rotate(0) translate(4 133)">
<title>backend.scalar.PrinterScalar.__init__</title>
<polygon fill="white" stroke="transparent" points="-4,4 -4,-133 330,-133 330,4 -4,4"/>
<!-- Node1 -->
<g id="node1" class="node">
<title>Node1</title>
<g id="a_node1"><a xlink:title=" ">
<polygon fill="#bfbfbf" stroke="black" points="0,-49.5 0,-79.5 145,-79.5 145,-49.5 0,-49.5"/>
<text text-anchor="start" x="8" y="-67.5" font-family="Helvetica,sans-Serif" font-size="10.00">backend.scalar.PrinterScalar.</text>
<text text-anchor="middle" x="72.5" y="-56.5" font-family="Helvetica,sans-Serif" font-size="10.00">__init__</text>
</a>
</g>
</g>
<!-- Node2 -->
<g id="node2" class="node">
<title>Node2</title>
<g id="a_node2"><a xlink:href="classbackend_1_1scalar_1_1PrinterScalar.html#a17b7f795fc0c413e29674c5d6b3208da" target="_top" xlink:title=" ">
<polygon fill="white" stroke="black" points="181,-98.5 181,-128.5 326,-128.5 326,-98.5 181,-98.5"/>
<text text-anchor="start" x="189" y="-116.5" font-family="Helvetica,sans-Serif" font-size="10.00">backend.scalar.PrinterScalar.</text>
<text text-anchor="middle" x="253.5" y="-105.5" font-family="Helvetica,sans-Serif" font-size="10.00">_print_gridref</text>
</a>
</g>
</g>
<!-- Node1&#45;&gt;Node2 -->
<g id="edge1" class="edge">
<title>Node1&#45;&gt;Node2</title>
<path fill="none" stroke="midnightblue" d="M128.67,-79.6C147.38,-84.73 168.46,-90.5 187.85,-95.8"/>
<polygon fill="midnightblue" stroke="midnightblue" points="186.95,-99.18 197.52,-98.45 188.79,-92.43 186.95,-99.18"/>
</g>
<!-- Node3 -->
<g id="node3" class="node">
<title>Node3</title>
<g id="a_node3"><a xlink:href="classbackend_1_1cuda_1_1PrinterCUDA.html#abe6a70316139b9bb8518deaffe5a560a" target="_top" xlink:title=" ">
<polygon fill="white" stroke="black" points="183,-49.5 183,-79.5 324,-79.5 324,-49.5 183,-49.5"/>
<text text-anchor="start" x="191" y="-67.5" font-family="Helvetica,sans-Serif" font-size="10.00">backend.cuda.PrinterCUDA.</text>
<text text-anchor="middle" x="253.5" y="-56.5" font-family="Helvetica,sans-Serif" font-size="10.00">_print_gridref</text>
</a>
</g>
</g>
<!-- Node1&#45;&gt;Node3 -->
<g id="edge2" class="edge">
<title>Node1&#45;&gt;Node3</title>
<path fill="none" stroke="midnightblue" d="M145.02,-64.5C154.07,-64.5 163.39,-64.5 172.56,-64.5"/>
<polygon fill="midnightblue" stroke="midnightblue" points="172.85,-68 182.85,-64.5 172.85,-61 172.85,-68"/>
</g>
<!-- Node4 -->
<g id="node4" class="node">
<title>Node4</title>
<g id="a_node4"><a xlink:href="classbackend_1_1base_1_1PrinterRed.html#a8f5b3eae2c89a5f49d29804f735dd29e" target="_top" xlink:title=" ">
<polygon fill="white" stroke="black" points="188.5,-0.5 188.5,-30.5 318.5,-30.5 318.5,-0.5 188.5,-0.5"/>
<text text-anchor="start" x="196.5" y="-18.5" font-family="Helvetica,sans-Serif" font-size="10.00">backend.base.PrinterRed.</text>
<text text-anchor="middle" x="253.5" y="-7.5" font-family="Helvetica,sans-Serif" font-size="10.00">_print_gridref</text>
</a>
</g>
</g>
<!-- Node1&#45;&gt;Node4 -->
<g id="edge3" class="edge">
<title>Node1&#45;&gt;Node4</title>
<path fill="none" stroke="midnightblue" d="M128.67,-49.4C147.38,-44.27 168.46,-38.5 187.85,-33.2"/>
<polygon fill="midnightblue" stroke="midnightblue" points="188.79,-36.57 197.52,-30.55 186.95,-29.82 188.79,-36.57"/>
</g>
</g>
</svg>
