<?xml version="1.0" encoding="UTF-8" standalone="no"?>
<!DOCTYPE svg PUBLIC "-//W3C//DTD SVG 1.1//EN"
 "http://www.w3.org/Graphics/SVG/1.1/DTD/svg11.dtd">
<!-- Generated by graphviz version 2.42.3 (0)
 -->
<!-- Title: backend.base.Backend.storeTile Pages: 1 -->
<svg width="615pt" height="91pt"
 viewBox="0.00 0.00 615.00 91.00" xmlns="http://www.w3.org/2000/svg" xmlns:xlink="http://www.w3.org/1999/xlink">
<g id="graph0" class="graph" transform="scale(1 1) rotate(0) translate(4 87)">
<title>backend.base.Backend.storeTile</title>
<polygon fill="white" stroke="transparent" points="-4,4 -4,-87 611,-87 611,4 -4,4"/>
<!-- Node1 -->
<g id="node1" class="node">
<title>Node1</title>
<g id="a_node1"><a xlink:title=" ">
<polygon fill="#bfbfbf" stroke="black" points="0,-22.5 0,-41.5 159,-41.5 159,-22.5 0,-22.5"/>
<text text-anchor="middle" x="79.5" y="-29.5" font-family="Helvetica,sans-Serif" font-size="10.00">backend.base.Backend.storeTile</text>
</a>
</g>
</g>
<!-- Node2 -->
<g id="node2" class="node">
<title>Node2</title>
<g id="a_node2"><a xlink:href="classbackend_1_1base_1_1Backend.html#a3d75f6b062a4cd8a5986d4f7f93ddff2" target="_top" xlink:title=" ">
<polygon fill="white" stroke="black" points="213.5,-39 213.5,-69 350.5,-69 350.5,-39 213.5,-39"/>
<text text-anchor="start" x="221.5" y="-57" font-family="Helvetica,sans-Serif" font-size="10.00">backend.base.Backend.gen</text>
<text text-anchor="middle" x="282" y="-46" font-family="Helvetica,sans-Serif" font-size="10.00">StoreLoc</text>
</a>
</g>
</g>
<!-- Node1&#45;&gt;Node2 -->
<g id="edge1" class="edge">
<title>Node1&#45;&gt;Node2</title>
<path fill="none" stroke="midnightblue" d="M159.17,-40.63C173.56,-42.21 188.57,-43.86 202.94,-45.44"/>
<polygon fill="midnightblue" stroke="midnightblue" points="202.95,-48.96 213.28,-46.57 203.72,-42 202.95,-48.96"/>
</g>
<!-- Node5 -->
<g id="node5" class="node">
<title>Node5</title>
<g id="a_node5"><a xlink:href="classbackend_1_1base_1_1Backend.html#ac2e158e64fa8a15193a45e49580ff502" target="_top" xlink:title=" ">
<polygon fill="white" stroke="black" points="195,-0.5 195,-19.5 369,-19.5 369,-0.5 195,-0.5"/>
<text text-anchor="middle" x="282" y="-7.5" font-family="Helvetica,sans-Serif" font-size="10.00">backend.base.Backend.index_name</text>
</a>
</g>
</g>
<!-- Node1&#45;&gt;Node5 -->
<g id="edge4" class="edge">
<title>Node1&#45;&gt;Node5</title>
<path fill="none" stroke="midnightblue" d="M159.17,-23.37C167.6,-22.44 176.26,-21.49 184.87,-20.55"/>
<polygon fill="midnightblue" stroke="midnightblue" points="185.38,-24.01 194.94,-19.44 184.62,-17.05 185.38,-24.01"/>
</g>
<!-- Node3 -->
<g id="node3" class="node">
<title>Node3</title>
<g id="a_node3"><a xlink:href="classbackend_1_1avx512_1_1BackendAVX512.html#acbfe5eb391e76861508221531c4410d0" target="_top" xlink:title=" ">
<polygon fill="white" stroke="black" points="405,-63.5 405,-82.5 607,-82.5 607,-63.5 405,-63.5"/>
<text text-anchor="middle" x="506" y="-70.5" font-family="Helvetica,sans-Serif" font-size="10.00">backend.avx512.BackendAVX512.gen_rhs</text>
</a>
</g>
</g>
<!-- Node2&#45;&gt;Node3 -->
<g id="edge2" class="edge">
<title>Node2&#45;&gt;Node3</title>
<path fill="none" stroke="midnightblue" d="M350.51,-59.78C364.4,-60.97 379.37,-62.25 394.33,-63.53"/>
<polygon fill="midnightblue" stroke="midnightblue" points="394.41,-67.05 404.67,-64.41 395,-60.07 394.41,-67.05"/>
</g>
<!-- Node4 -->
<g id="node4" class="node">
<title>Node4</title>
<g id="a_node4"><a xlink:href="classbackend_1_1base_1_1Backend.html#a93a162725d68636a02b3edeeb5d33fda" target="_top" xlink:title=" ">
<polygon fill="white" stroke="black" points="428,-25.5 428,-44.5 584,-44.5 584,-25.5 428,-25.5"/>
<text text-anchor="middle" x="506" y="-32.5" font-family="Helvetica,sans-Serif" font-size="10.00">backend.base.Backend.gen_rhs</text>
</a>
</g>
</g>
<!-- Node2&#45;&gt;Node4 -->
<g id="edge3" class="edge">
<title>Node2&#45;&gt;Node4</title>
<path fill="none" stroke="midnightblue" d="M350.51,-48.22C371.64,-46.41 395.27,-44.39 417.56,-42.48"/>
<polygon fill="midnightblue" stroke="midnightblue" points="418.04,-45.96 427.7,-41.62 417.44,-38.98 418.04,-45.96"/>
</g>
</g>
</svg>
