<?xml version="1.0" encoding="UTF-8" standalone="no"?>
<!DOCTYPE svg PUBLIC "-//W3C//DTD SVG 1.1//EN"
 "http://www.w3.org/Graphics/SVG/1.1/DTD/svg11.dtd">
<!-- Generated by graphviz version 2.42.3 (0)
 -->
<!-- Title: backend.cuda.PrinterCUDA.__init__ Pages: 1 -->
<svg width="326pt" height="88pt"
 viewBox="0.00 0.00 326.00 88.00" xmlns="http://www.w3.org/2000/svg" xmlns:xlink="http://www.w3.org/1999/xlink">
<g id="graph0" class="graph" transform="scale(1 1) rotate(0) translate(4 84)">
<title>backend.cuda.PrinterCUDA.__init__</title>
<polygon fill="white" stroke="transparent" points="-4,4 -4,-84 322,-84 322,4 -4,4"/>
<!-- Node1 -->
<g id="node1" class="node">
<title>Node1</title>
<g id="a_node1"><a xlink:title=" ">
<polygon fill="#bfbfbf" stroke="black" points="0,-24.5 0,-54.5 141,-54.5 141,-24.5 0,-24.5"/>
<text text-anchor="start" x="8" y="-42.5" font-family="Helvetica,sans-Serif" font-size="10.00">backend.cuda.PrinterCUDA.</text>
<text text-anchor="middle" x="70.5" y="-31.5" font-family="Helvetica,sans-Serif" font-size="10.00">__init__</text>
</a>
</g>
</g>
<!-- Node2 -->
<g id="node2" class="node">
<title>Node2</title>
<g id="a_node2"><a xlink:href="classbackend_1_1cuda_1_1PrinterCUDA.html#abe6a70316139b9bb8518deaffe5a560a" target="_top" xlink:title=" ">
<polygon fill="white" stroke="black" points="177,-49.5 177,-79.5 318,-79.5 318,-49.5 177,-49.5"/>
<text text-anchor="start" x="185" y="-67.5" font-family="Helvetica,sans-Serif" font-size="10.00">backend.cuda.PrinterCUDA.</text>
<text text-anchor="middle" x="247.5" y="-56.5" font-family="Helvetica,sans-Serif" font-size="10.00">_print_gridref</text>
</a>
</g>
</g>
<!-- Node1&#45;&gt;Node2 -->
<g id="edge1" class="edge">
<title>Node1&#45;&gt;Node2</title>
<path fill="none" stroke="midnightblue" d="M141.17,-49.45C149.59,-50.66 158.25,-51.89 166.81,-53.12"/>
<polygon fill="midnightblue" stroke="midnightblue" points="166.39,-56.59 176.79,-54.54 167.38,-49.66 166.39,-56.59"/>
</g>
<!-- Node3 -->
<g id="node3" class="node">
<title>Node3</title>
<g id="a_node3"><a xlink:href="classbackend_1_1base_1_1PrinterRed.html#a8f5b3eae2c89a5f49d29804f735dd29e" target="_top" xlink:title=" ">
<polygon fill="white" stroke="black" points="182.5,-0.5 182.5,-30.5 312.5,-30.5 312.5,-0.5 182.5,-0.5"/>
<text text-anchor="start" x="190.5" y="-18.5" font-family="Helvetica,sans-Serif" font-size="10.00">backend.base.PrinterRed.</text>
<text text-anchor="middle" x="247.5" y="-7.5" font-family="Helvetica,sans-Serif" font-size="10.00">_print_gridref</text>
</a>
</g>
</g>
<!-- Node1&#45;&gt;Node3 -->
<g id="edge2" class="edge">
<title>Node1&#45;&gt;Node3</title>
<path fill="none" stroke="midnightblue" d="M141.17,-29.95C151.39,-28.54 161.95,-27.1 172.26,-25.68"/>
<polygon fill="midnightblue" stroke="midnightblue" points="173.04,-29.11 182.47,-24.28 172.08,-22.17 173.04,-29.11"/>
</g>
</g>
</svg>
