<?xml version="1.0" encoding="UTF-8" standalone="no"?>
<!DOCTYPE svg PUBLIC "-//W3C//DTD SVG 1.1//EN"
 "http://www.w3.org/Graphics/SVG/1.1/DTD/svg11.dtd">
<!-- Generated by graphviz version 2.42.3 (0)
 -->
<!-- Title: base.CodeGen.gencode Pages: 1 -->
<svg width="295pt" height="122pt"
 viewBox="0.00 0.00 295.00 122.00" xmlns="http://www.w3.org/2000/svg" xmlns:xlink="http://www.w3.org/1999/xlink">
<g id="graph0" class="graph" transform="scale(1 1) rotate(0) translate(4 118)">
<title>base.CodeGen.gencode</title>
<polygon fill="white" stroke="transparent" points="-4,4 -4,-118 291,-118 291,4 -4,4"/>
<!-- Node1 -->
<g id="node1" class="node">
<title>Node1</title>
<g id="a_node1"><a xlink:title=" ">
<polygon fill="#bfbfbf" stroke="black" points="0,-56.5 0,-75.5 122,-75.5 122,-56.5 0,-56.5"/>
<text text-anchor="middle" x="61" y="-63.5" font-family="Helvetica,sans-Serif" font-size="10.00">base.CodeGen.gencode</text>
</a>
</g>
</g>
<!-- Node2 -->
<g id="node2" class="node">
<title>Node2</title>
<g id="a_node2"><a xlink:href="classbase_1_1CodeGen.html#a1ef24ad1f498929af6fa353ccbbfda41" target="_top" xlink:title=" ">
<polygon fill="white" stroke="black" points="158,-94.5 158,-113.5 287,-113.5 287,-94.5 158,-94.5"/>
<text text-anchor="middle" x="222.5" y="-101.5" font-family="Helvetica,sans-Serif" font-size="10.00">base.CodeGen._calculate</text>
</a>
</g>
</g>
<!-- Node1&#45;&gt;Node2 -->
<g id="edge1" class="edge">
<title>Node1&#45;&gt;Node2</title>
<path fill="none" stroke="midnightblue" d="M102.25,-75.59C123.3,-80.6 149.26,-86.79 171.57,-92.11"/>
<polygon fill="midnightblue" stroke="midnightblue" points="171,-95.57 181.54,-94.48 172.62,-88.76 171,-95.57"/>
</g>
<!-- Node3 -->
<g id="node3" class="node">
<title>Node3</title>
<g id="a_node3"><a xlink:href="namespaceexpr.html#a3a25eaf8a14dd5310eb7fc074415d536" target="_top" xlink:title=" ">
<polygon fill="white" stroke="black" points="181,-56.5 181,-75.5 264,-75.5 264,-56.5 181,-56.5"/>
<text text-anchor="middle" x="222.5" y="-63.5" font-family="Helvetica,sans-Serif" font-size="10.00">expr.conv_expr</text>
</a>
</g>
</g>
<!-- Node1&#45;&gt;Node3 -->
<g id="edge2" class="edge">
<title>Node1&#45;&gt;Node3</title>
<path fill="none" stroke="midnightblue" d="M122.3,-66C138.21,-66 155.22,-66 170.59,-66"/>
<polygon fill="midnightblue" stroke="midnightblue" points="170.93,-69.5 180.93,-66 170.93,-62.5 170.93,-69.5"/>
</g>
<!-- Node4 -->
<g id="node4" class="node">
<title>Node4</title>
<g id="a_node4"><a xlink:href="classbase_1_1CodeGen.html#ac89f4fa45cf6cdc258c333ce531dae67" target="_top" xlink:title=" ">
<polygon fill="white" stroke="black" points="171,-0.5 171,-19.5 274,-19.5 274,-0.5 171,-0.5"/>
<text text-anchor="middle" x="222.5" y="-7.5" font-family="Helvetica,sans-Serif" font-size="10.00">base.CodeGen.split</text>
</a>
</g>
</g>
<!-- Node1&#45;&gt;Node4 -->
<g id="edge3" class="edge">
<title>Node1&#45;&gt;Node4</title>
<path fill="none" stroke="midnightblue" d="M89.42,-56.37C115.71,-47.14 155.59,-33.14 184.65,-22.94"/>
<polygon fill="midnightblue" stroke="midnightblue" points="186.16,-26.12 194.44,-19.5 183.84,-19.51 186.16,-26.12"/>
</g>
<!-- Node4&#45;&gt;Node4 -->
<g id="edge4" class="edge">
<title>Node4&#45;&gt;Node4</title>
<path fill="none" stroke="midnightblue" d="M197.84,-19.76C185.84,-28.57 194.06,-38 222.5,-38 241.61,-38 251.59,-33.74 252.44,-28.27"/>
<polygon fill="midnightblue" stroke="midnightblue" points="255.4,-26.41 247.16,-19.76 249.45,-30.1 255.4,-26.41"/>
</g>
</g>
</svg>
