<?xml version="1.0" encoding="UTF-8" standalone="no"?>
<!DOCTYPE svg PUBLIC "-//W3C//DTD SVG 1.1//EN"
 "http://www.w3.org/Graphics/SVG/1.1/DTD/svg11.dtd">
<!-- Generated by graphviz version 2.42.3 (0)
 -->
<!-- Title: backend.base.Brick.prologue Pages: 1 -->
<svg width="545pt" height="116pt"
 viewBox="0.00 0.00 545.00 115.50" xmlns="http://www.w3.org/2000/svg" xmlns:xlink="http://www.w3.org/1999/xlink">
<g id="graph0" class="graph" transform="scale(1 1) rotate(0) translate(4 111.5)">
<title>backend.base.Brick.prologue</title>
<polygon fill="white" stroke="transparent" points="-4,4 -4,-111.5 541,-111.5 541,4 -4,4"/>
<!-- Node1 -->
<g id="node1" class="node">
<title>Node1</title>
<g id="a_node1"><a xlink:title=" ">
<polygon fill="#bfbfbf" stroke="black" points="0,-50 0,-69 143,-69 143,-50 0,-50"/>
<text text-anchor="middle" x="71.5" y="-57" font-family="Helvetica,sans-Serif" font-size="10.00">backend.base.Brick.prologue</text>
</a>
</g>
</g>
<!-- Node2 -->
<g id="node2" class="node">
<title>Node2</title>
<g id="a_node2"><a xlink:href="classbackend_1_1base_1_1Brick.html#a04b695fa2f0fef93850253de2921d9d1" target="_top" xlink:title=" ">
<polygon fill="white" stroke="black" points="188,-88 188,-107 331,-107 331,-88 188,-88"/>
<text text-anchor="middle" x="259.5" y="-95" font-family="Helvetica,sans-Serif" font-size="10.00">backend.base.Brick.neighbor</text>
</a>
</g>
</g>
<!-- Node1&#45;&gt;Node2 -->
<g id="edge1" class="edge">
<title>Node1&#45;&gt;Node2</title>
<path fill="none" stroke="midnightblue" d="M119.44,-69.09C144.53,-74.22 175.62,-80.57 202.03,-85.96"/>
<polygon fill="midnightblue" stroke="midnightblue" points="201.4,-89.41 211.9,-87.98 202.8,-82.55 201.4,-89.41"/>
</g>
<!-- Node4 -->
<g id="node4" class="node">
<title>Node4</title>
<g id="a_node4"><a xlink:href="classbackend_1_1base_1_1Brick.html#a7b100c7104947dc4a7150c75933d8261" target="_top" xlink:title=" ">
<polygon fill="white" stroke="black" points="179,-50 179,-69 340,-69 340,-50 179,-50"/>
<text text-anchor="middle" x="259.5" y="-57" font-family="Helvetica,sans-Serif" font-size="10.00">backend.base.Brick.neighbor_idx</text>
</a>
</g>
</g>
<!-- Node1&#45;&gt;Node4 -->
<g id="edge3" class="edge">
<title>Node1&#45;&gt;Node4</title>
<path fill="none" stroke="midnightblue" d="M143.08,-59.5C151.5,-59.5 160.19,-59.5 168.83,-59.5"/>
<polygon fill="midnightblue" stroke="midnightblue" points="168.94,-63 178.94,-59.5 168.94,-56 168.94,-63"/>
</g>
<!-- Node5 -->
<g id="node5" class="node">
<title>Node5</title>
<g id="a_node5"><a xlink:href="classbackend_1_1base_1_1Brick.html#a0a7dedb02e6be7700dcbf93d27f0fb56" target="_top" xlink:title=" ">
<polygon fill="white" stroke="black" points="188,-0.5 188,-30.5 331,-30.5 331,-0.5 188,-0.5"/>
<text text-anchor="start" x="196" y="-18.5" font-family="Helvetica,sans-Serif" font-size="10.00">backend.base.Brick.neighbor</text>
<text text-anchor="middle" x="259.5" y="-7.5" font-family="Helvetica,sans-Serif" font-size="10.00">_idx_cstruct</text>
</a>
</g>
</g>
<!-- Node1&#45;&gt;Node5 -->
<g id="edge5" class="edge">
<title>Node1&#45;&gt;Node5</title>
<path fill="none" stroke="midnightblue" d="M112.86,-49.95C133.89,-44.98 160.29,-38.73 184.81,-32.93"/>
<polygon fill="midnightblue" stroke="midnightblue" points="185.89,-36.27 194.81,-30.57 184.28,-29.46 185.89,-36.27"/>
</g>
<!-- Node3 -->
<g id="node3" class="node">
<title>Node3</title>
<g id="a_node3"><a xlink:href="classbackend_1_1base_1_1Brick.html#a6f2f529e3f1936054b7a3cd9f36f81bd" target="_top" xlink:title=" ">
<polygon fill="white" stroke="black" points="376,-50 376,-69 537,-69 537,-50 376,-50"/>
<text text-anchor="middle" x="456.5" y="-57" font-family="Helvetica,sans-Serif" font-size="10.00">backend.base.Brick.neighbor_val</text>
</a>
</g>
</g>
<!-- Node2&#45;&gt;Node3 -->
<g id="edge2" class="edge">
<title>Node2&#45;&gt;Node3</title>
<path fill="none" stroke="midnightblue" d="M309.46,-87.96C335.88,-82.81 368.69,-76.42 396.52,-70.99"/>
<polygon fill="midnightblue" stroke="midnightblue" points="397.38,-74.39 406.52,-69.04 396.04,-67.52 397.38,-74.39"/>
</g>
<!-- Node4&#45;&gt;Node3 -->
<g id="edge4" class="edge">
<title>Node4&#45;&gt;Node3</title>
<path fill="none" stroke="midnightblue" d="M340.1,-59.5C348.57,-59.5 357.24,-59.5 365.82,-59.5"/>
<polygon fill="midnightblue" stroke="midnightblue" points="365.84,-63 375.84,-59.5 365.84,-56 365.84,-63"/>
</g>
<!-- Node5&#45;&gt;Node3 -->
<g id="edge6" class="edge">
<title>Node5&#45;&gt;Node3</title>
<path fill="none" stroke="midnightblue" d="M327.06,-30.52C352.07,-36.16 380.1,-42.49 403.58,-47.78"/>
<polygon fill="midnightblue" stroke="midnightblue" points="402.82,-51.2 413.34,-49.99 404.36,-44.37 402.82,-51.2"/>
</g>
</g>
</svg>
