<?xml version="1.0" encoding="UTF-8" standalone="no"?>
<!DOCTYPE svg PUBLIC "-//W3C//DTD SVG 1.1//EN"
 "http://www.w3.org/Graphics/SVG/1.1/DTD/svg11.dtd">
<!-- Generated by graphviz version 2.42.3 (0)
 -->
<!-- Title: expr.Expr.__radd__ Pages: 1 -->
<svg width="362pt" height="47pt"
 viewBox="0.00 0.00 362.00 47.00" xmlns="http://www.w3.org/2000/svg" xmlns:xlink="http://www.w3.org/1999/xlink">
<g id="graph0" class="graph" transform="scale(1 1) rotate(0) translate(4 43)">
<title>expr.Expr.__radd__</title>
<polygon fill="white" stroke="transparent" points="-4,4 -4,-43 358,-43 358,4 -4,4"/>
<!-- Node1 -->
<g id="node1" class="node">
<title>Node1</title>
<g id="a_node1"><a xlink:title=" ">
<polygon fill="#bfbfbf" stroke="black" points="0,-0.5 0,-19.5 101,-19.5 101,-0.5 0,-0.5"/>
<text text-anchor="middle" x="50.5" y="-7.5" font-family="Helvetica,sans-Serif" font-size="10.00">expr.Expr.__radd__</text>
</a>
</g>
</g>
<!-- Node2 -->
<g id="node2" class="node">
<title>Node2</title>
<g id="a_node2"><a xlink:href="classexpr_1_1Expr.html#ad625af6736d9421eddd3459a48770af0" target="_top" xlink:title=" ">
<polygon fill="white" stroke="black" points="137,-19.5 137,-38.5 235,-38.5 235,-19.5 137,-19.5"/>
<text text-anchor="middle" x="186" y="-26.5" font-family="Helvetica,sans-Serif" font-size="10.00">expr.Expr.__add__</text>
</a>
</g>
</g>
<!-- Node1&#45;&gt;Node2 -->
<g id="edge1" class="edge">
<title>Node1&#45;&gt;Node2</title>
<path fill="none" stroke="midnightblue" d="M101.21,-17.07C109.43,-18.25 118.02,-19.47 126.44,-20.67"/>
<polygon fill="midnightblue" stroke="midnightblue" points="126.19,-24.16 136.58,-22.11 127.17,-17.23 126.19,-24.16"/>
</g>
<!-- Node3 -->
<g id="node3" class="node">
<title>Node3</title>
<g id="a_node3"><a xlink:href="namespaceexpr.html#a3a25eaf8a14dd5310eb7fc074415d536" target="_top" xlink:title=" ">
<polygon fill="white" stroke="black" points="271,-0.5 271,-19.5 354,-19.5 354,-0.5 271,-0.5"/>
<text text-anchor="middle" x="312.5" y="-7.5" font-family="Helvetica,sans-Serif" font-size="10.00">expr.conv_expr</text>
</a>
</g>
</g>
<!-- Node1&#45;&gt;Node3 -->
<g id="edge3" class="edge">
<title>Node1&#45;&gt;Node3</title>
<path fill="none" stroke="midnightblue" d="M101.02,-10C146.77,-10 214.44,-10 260.62,-10"/>
<polygon fill="midnightblue" stroke="midnightblue" points="260.71,-13.5 270.71,-10 260.71,-6.5 260.71,-13.5"/>
</g>
<!-- Node2&#45;&gt;Node3 -->
<g id="edge2" class="edge">
<title>Node2&#45;&gt;Node3</title>
<path fill="none" stroke="midnightblue" d="M235.13,-21.65C243.5,-20.38 252.23,-19.05 260.67,-17.76"/>
<polygon fill="midnightblue" stroke="midnightblue" points="261.41,-21.18 270.77,-16.22 260.36,-14.26 261.41,-21.18"/>
</g>
</g>
</svg>
