<?xml version="1.0" encoding="UTF-8" standalone="no"?>
<!DOCTYPE svg PUBLIC "-//W3C//DTD SVG 1.1//EN"
 "http://www.w3.org/Graphics/SVG/1.1/DTD/svg11.dtd">
<!-- Generated by graphviz version 2.42.3 (0)
 -->
<!-- Title: expr.Expr.__rxor__ Pages: 1 -->
<svg width="358pt" height="47pt"
 viewBox="0.00 0.00 358.00 47.00" xmlns="http://www.w3.org/2000/svg" xmlns:xlink="http://www.w3.org/1999/xlink">
<g id="graph0" class="graph" transform="scale(1 1) rotate(0) translate(4 43)">
<title>expr.Expr.__rxor__</title>
<polygon fill="white" stroke="transparent" points="-4,4 -4,-43 354,-43 354,4 -4,4"/>
<!-- Node1 -->
<g id="node1" class="node">
<title>Node1</title>
<g id="a_node1"><a xlink:title=" ">
<polygon fill="#bfbfbf" stroke="black" points="0,-0.5 0,-19.5 99,-19.5 99,-0.5 0,-0.5"/>
<text text-anchor="middle" x="49.5" y="-7.5" font-family="Helvetica,sans-Serif" font-size="10.00">expr.Expr.__rxor__</text>
</a>
</g>
</g>
<!-- Node2 -->
<g id="node2" class="node">
<title>Node2</title>
<g id="a_node2"><a xlink:href="classexpr_1_1Expr.html#a72abc41828780bfa19e8a42268c5fbe3" target="_top" xlink:title=" ">
<polygon fill="white" stroke="black" points="135,-19.5 135,-38.5 231,-38.5 231,-19.5 135,-19.5"/>
<text text-anchor="middle" x="183" y="-26.5" font-family="Helvetica,sans-Serif" font-size="10.00">expr.Expr.__xor__</text>
</a>
</g>
</g>
<!-- Node1&#45;&gt;Node2 -->
<g id="edge1" class="edge">
<title>Node1&#45;&gt;Node2</title>
<path fill="none" stroke="midnightblue" d="M99.09,-17.02C107.51,-18.24 116.32,-19.51 124.94,-20.76"/>
<polygon fill="midnightblue" stroke="midnightblue" points="124.52,-24.23 134.92,-22.2 125.52,-17.3 124.52,-24.23"/>
</g>
<!-- Node3 -->
<g id="node3" class="node">
<title>Node3</title>
<g id="a_node3"><a xlink:href="namespaceexpr.html#a3a25eaf8a14dd5310eb7fc074415d536" target="_top" xlink:title=" ">
<polygon fill="white" stroke="black" points="267,-0.5 267,-19.5 350,-19.5 350,-0.5 267,-0.5"/>
<text text-anchor="middle" x="308.5" y="-7.5" font-family="Helvetica,sans-Serif" font-size="10.00">expr.conv_expr</text>
</a>
</g>
</g>
<!-- Node1&#45;&gt;Node3 -->
<g id="edge3" class="edge">
<title>Node1&#45;&gt;Node3</title>
<path fill="none" stroke="midnightblue" d="M99.14,-10C144.1,-10 210.66,-10 256.39,-10"/>
<polygon fill="midnightblue" stroke="midnightblue" points="256.68,-13.5 266.67,-10 256.67,-6.5 256.68,-13.5"/>
</g>
<!-- Node2&#45;&gt;Node3 -->
<g id="edge2" class="edge">
<title>Node2&#45;&gt;Node3</title>
<path fill="none" stroke="midnightblue" d="M231.04,-21.76C239.38,-20.48 248.09,-19.14 256.53,-17.84"/>
<polygon fill="midnightblue" stroke="midnightblue" points="257.29,-21.27 266.64,-16.29 256.23,-14.35 257.29,-21.27"/>
</g>
</g>
</svg>
