<?xml version="1.0" encoding="UTF-8" standalone="no"?>
<!DOCTYPE svg PUBLIC "-//W3C//DTD SVG 1.1//EN"
 "http://www.w3.org/Graphics/SVG/1.1/DTD/svg11.dtd">
<!-- Generated by graphviz version 2.42.3 (0)
 -->
<!-- Title: backend.base.Backend.declare_vecbuf Pages: 1 -->
<svg width="417pt" height="142pt"
 viewBox="0.00 0.00 417.00 142.00" xmlns="http://www.w3.org/2000/svg" xmlns:xlink="http://www.w3.org/1999/xlink">
<g id="graph0" class="graph" transform="scale(1 1) rotate(0) translate(4 138)">
<title>backend.base.Backend.declare_vecbuf</title>
<polygon fill="white" stroke="transparent" points="-4,4 -4,-138 413,-138 413,4 -4,4"/>
<!-- Node1 -->
<g id="node1" class="node">
<title>Node1</title>
<g id="a_node1"><a xlink:title=" ">
<polygon fill="#bfbfbf" stroke="black" points="0,-52 0,-82 153,-82 153,-52 0,-52"/>
<text text-anchor="start" x="8" y="-70" font-family="Helvetica,sans-Serif" font-size="10.00">backend.base.Backend.declare</text>
<text text-anchor="middle" x="76.5" y="-59" font-family="Helvetica,sans-Serif" font-size="10.00">_vecbuf</text>
</a>
</g>
</g>
<!-- Node2 -->
<g id="node2" class="node">
<title>Node2</title>
<g id="a_node2"><a xlink:href="classbackend_1_1avx2_1_1BackendAVX2.html#a55cf97fb780c4588fe683640d7e123dd" target="_top" xlink:title=" ">
<polygon fill="white" stroke="black" points="199.5,-114.5 199.5,-133.5 398.5,-133.5 398.5,-114.5 199.5,-114.5"/>
<text text-anchor="middle" x="299" y="-121.5" font-family="Helvetica,sans-Serif" font-size="10.00">backend.avx2.BackendAVX2.declare_vec</text>
</a>
</g>
</g>
<!-- Node1&#45;&gt;Node2 -->
<g id="edge1" class="edge">
<title>Node1&#45;&gt;Node2</title>
<path fill="none" stroke="midnightblue" d="M116.78,-82.06C137.94,-89.75 164.63,-98.76 189,-105 200.01,-107.82 211.75,-110.35 223.3,-112.57"/>
<polygon fill="midnightblue" stroke="midnightblue" points="222.91,-116.06 233.38,-114.45 224.19,-109.18 222.91,-116.06"/>
</g>
<!-- Node3 -->
<g id="node3" class="node">
<title>Node3</title>
<g id="a_node3"><a xlink:href="classbackend_1_1avx512_1_1BackendAVX512.html#a96095fe46bf21b62cc9dbf844374439f" target="_top" xlink:title=" ">
<polygon fill="white" stroke="black" points="189,-76.5 189,-95.5 409,-95.5 409,-76.5 189,-76.5"/>
<text text-anchor="middle" x="299" y="-83.5" font-family="Helvetica,sans-Serif" font-size="10.00">backend.avx512.BackendAVX512.declare_vec</text>
</a>
</g>
</g>
<!-- Node1&#45;&gt;Node3 -->
<g id="edge2" class="edge">
<title>Node1&#45;&gt;Node3</title>
<path fill="none" stroke="midnightblue" d="M153.08,-73.51C161.41,-74.23 170.04,-74.97 178.74,-75.72"/>
<polygon fill="midnightblue" stroke="midnightblue" points="178.71,-79.23 188.98,-76.61 179.31,-72.26 178.71,-79.23"/>
</g>
<!-- Node4 -->
<g id="node4" class="node">
<title>Node4</title>
<g id="a_node4"><a xlink:href="classbackend_1_1base_1_1Backend.html#ae019c104fbbeffd44a46d4252164b892" target="_top" xlink:title=" ">
<polygon fill="white" stroke="black" points="212,-38.5 212,-57.5 386,-57.5 386,-38.5 212,-38.5"/>
<text text-anchor="middle" x="299" y="-45.5" font-family="Helvetica,sans-Serif" font-size="10.00">backend.base.Backend.declare_vec</text>
</a>
</g>
</g>
<!-- Node1&#45;&gt;Node4 -->
<g id="edge3" class="edge">
<title>Node1&#45;&gt;Node4</title>
<path fill="none" stroke="midnightblue" d="M153.08,-60.49C168.77,-59.14 185.5,-57.69 201.82,-56.29"/>
<polygon fill="midnightblue" stroke="midnightblue" points="202.25,-59.76 211.92,-55.42 201.65,-52.79 202.25,-59.76"/>
</g>
<!-- Node5 -->
<g id="node5" class="node">
<title>Node5</title>
<g id="a_node5"><a xlink:href="classbackend_1_1base_1_1Backend.html#a1ce531e8d4a2a3f5e1e504477ac98857" target="_top" xlink:title=" ">
<polygon fill="white" stroke="black" points="209,-0.5 209,-19.5 389,-19.5 389,-0.5 209,-0.5"/>
<text text-anchor="middle" x="299" y="-7.5" font-family="Helvetica,sans-Serif" font-size="10.00">backend.base.Backend.vecbuf_name</text>
</a>
</g>
</g>
<!-- Node1&#45;&gt;Node5 -->
<g id="edge4" class="edge">
<title>Node1&#45;&gt;Node5</title>
<path fill="none" stroke="midnightblue" d="M116.78,-51.94C137.94,-44.25 164.63,-35.24 189,-29 200.01,-26.18 211.75,-23.65 223.3,-21.43"/>
<polygon fill="midnightblue" stroke="midnightblue" points="224.19,-24.82 233.38,-19.55 222.91,-17.94 224.19,-24.82"/>
</g>
</g>
</svg>
