<?xml version="1.0" encoding="UTF-8" standalone="no"?>
<!DOCTYPE svg PUBLIC "-//W3C//DTD SVG 1.1//EN"
 "http://www.w3.org/Graphics/SVG/1.1/DTD/svg11.dtd">
<!-- Generated by graphviz version 2.42.3 (0)
 -->
<!-- Title: expr.Expr.__ror__ Pages: 1 -->
<svg width="348pt" height="47pt"
 viewBox="0.00 0.00 348.00 47.00" xmlns="http://www.w3.org/2000/svg" xmlns:xlink="http://www.w3.org/1999/xlink">
<g id="graph0" class="graph" transform="scale(1 1) rotate(0) translate(4 43)">
<title>expr.Expr.__ror__</title>
<polygon fill="white" stroke="transparent" points="-4,4 -4,-43 344,-43 344,4 -4,4"/>
<!-- Node1 -->
<g id="node1" class="node">
<title>Node1</title>
<g id="a_node1"><a xlink:title=" ">
<polygon fill="#bfbfbf" stroke="black" points="0,-0.5 0,-19.5 94,-19.5 94,-0.5 0,-0.5"/>
<text text-anchor="middle" x="47" y="-7.5" font-family="Helvetica,sans-Serif" font-size="10.00">expr.Expr.__ror__</text>
</a>
</g>
</g>
<!-- Node2 -->
<g id="node2" class="node">
<title>Node2</title>
<g id="a_node2"><a xlink:href="classexpr_1_1Expr.html#afe3ecc1d688f984a8664b08a2608d662" target="_top" xlink:title=" ">
<polygon fill="white" stroke="black" points="130,-19.5 130,-38.5 221,-38.5 221,-19.5 130,-19.5"/>
<text text-anchor="middle" x="175.5" y="-26.5" font-family="Helvetica,sans-Serif" font-size="10.00">expr.Expr.__or__</text>
</a>
</g>
</g>
<!-- Node1&#45;&gt;Node2 -->
<g id="edge1" class="edge">
<title>Node1&#45;&gt;Node2</title>
<path fill="none" stroke="midnightblue" d="M94.03,-16.91C102.46,-18.18 111.33,-19.51 119.97,-20.81"/>
<polygon fill="midnightblue" stroke="midnightblue" points="119.58,-24.29 129.99,-22.31 120.62,-17.37 119.58,-24.29"/>
</g>
<!-- Node3 -->
<g id="node3" class="node">
<title>Node3</title>
<g id="a_node3"><a xlink:href="namespaceexpr.html#a3a25eaf8a14dd5310eb7fc074415d536" target="_top" xlink:title=" ">
<polygon fill="white" stroke="black" points="257,-0.5 257,-19.5 340,-19.5 340,-0.5 257,-0.5"/>
<text text-anchor="middle" x="298.5" y="-7.5" font-family="Helvetica,sans-Serif" font-size="10.00">expr.conv_expr</text>
</a>
</g>
</g>
<!-- Node1&#45;&gt;Node3 -->
<g id="edge3" class="edge">
<title>Node1&#45;&gt;Node3</title>
<path fill="none" stroke="midnightblue" d="M94.05,-10C137.29,-10 201.85,-10 246.6,-10"/>
<polygon fill="midnightblue" stroke="midnightblue" points="246.67,-13.5 256.67,-10 246.67,-6.5 246.67,-13.5"/>
</g>
<!-- Node2&#45;&gt;Node3 -->
<g id="edge2" class="edge">
<title>Node2&#45;&gt;Node3</title>
<path fill="none" stroke="midnightblue" d="M221.21,-21.98C229.63,-20.66 238.49,-19.27 247.07,-17.92"/>
<polygon fill="midnightblue" stroke="midnightblue" points="247.63,-21.37 256.97,-16.36 246.55,-14.46 247.63,-21.37"/>
</g>
</g>
</svg>
