<?xml version="1.0" encoding="UTF-8" standalone="no"?>
<!DOCTYPE svg PUBLIC "-//W3C//DTD SVG 1.1//EN"
 "http://www.w3.org/Graphics/SVG/1.1/DTD/svg11.dtd">
<!-- Generated by graphviz version 2.42.3 (0)
 -->
<!-- Title: expr.Expr.__rtruediv__ Pages: 1 -->
<svg width="390pt" height="47pt"
 viewBox="0.00 0.00 390.00 47.00" xmlns="http://www.w3.org/2000/svg" xmlns:xlink="http://www.w3.org/1999/xlink">
<g id="graph0" class="graph" transform="scale(1 1) rotate(0) translate(4 43)">
<title>expr.Expr.__rtruediv__</title>
<polygon fill="white" stroke="transparent" points="-4,4 -4,-43 386,-43 386,4 -4,4"/>
<!-- Node1 -->
<g id="node1" class="node">
<title>Node1</title>
<g id="a_node1"><a xlink:title=" ">
<polygon fill="#bfbfbf" stroke="black" points="0,-0.5 0,-19.5 115,-19.5 115,-0.5 0,-0.5"/>
<text text-anchor="middle" x="57.5" y="-7.5" font-family="Helvetica,sans-Serif" font-size="10.00">expr.Expr.__rtruediv__</text>
</a>
</g>
</g>
<!-- Node2 -->
<g id="node2" class="node">
<title>Node2</title>
<g id="a_node2"><a xlink:href="classexpr_1_1Expr.html#af97f1cfa00c81ceeda887af491a0b535" target="_top" xlink:title=" ">
<polygon fill="white" stroke="black" points="151,-19.5 151,-38.5 263,-38.5 263,-19.5 151,-19.5"/>
<text text-anchor="middle" x="207" y="-26.5" font-family="Helvetica,sans-Serif" font-size="10.00">expr.Expr.__truediv__</text>
</a>
</g>
</g>
<!-- Node1&#45;&gt;Node2 -->
<g id="edge1" class="edge">
<title>Node1&#45;&gt;Node2</title>
<path fill="none" stroke="midnightblue" d="M115.11,-17.29C123.51,-18.37 132.24,-19.5 140.8,-20.6"/>
<polygon fill="midnightblue" stroke="midnightblue" points="140.4,-24.08 150.76,-21.88 141.29,-17.14 140.4,-24.08"/>
</g>
<!-- Node3 -->
<g id="node3" class="node">
<title>Node3</title>
<g id="a_node3"><a xlink:href="namespaceexpr.html#a3a25eaf8a14dd5310eb7fc074415d536" target="_top" xlink:title=" ">
<polygon fill="white" stroke="black" points="299,-0.5 299,-19.5 382,-19.5 382,-0.5 299,-0.5"/>
<text text-anchor="middle" x="340.5" y="-7.5" font-family="Helvetica,sans-Serif" font-size="10.00">expr.conv_expr</text>
</a>
</g>
</g>
<!-- Node1&#45;&gt;Node3 -->
<g id="edge3" class="edge">
<title>Node1&#45;&gt;Node3</title>
<path fill="none" stroke="midnightblue" d="M115.03,-10C165.9,-10 239.97,-10 288.92,-10"/>
<polygon fill="midnightblue" stroke="midnightblue" points="288.97,-13.5 298.97,-10 288.97,-6.5 288.97,-13.5"/>
</g>
<!-- Node2&#45;&gt;Node3 -->
<g id="edge2" class="edge">
<title>Node2&#45;&gt;Node3</title>
<path fill="none" stroke="midnightblue" d="M263.01,-21.05C271.51,-19.82 280.26,-18.56 288.67,-17.34"/>
<polygon fill="midnightblue" stroke="midnightblue" points="289.32,-20.79 298.72,-15.89 288.32,-13.86 289.32,-20.79"/>
</g>
</g>
</svg>
