<?xml version="1.0" encoding="UTF-8" standalone="no"?>
<!DOCTYPE svg PUBLIC "-//W3C//DTD SVG 1.1//EN"
 "http://www.w3.org/Graphics/SVG/1.1/DTD/svg11.dtd">
<!-- Generated by graphviz version 2.42.3 (0)
 -->
<!-- Title: expr.Expr.__rrshift__ Pages: 1 -->
<svg width="374pt" height="47pt"
 viewBox="0.00 0.00 374.00 47.00" xmlns="http://www.w3.org/2000/svg" xmlns:xlink="http://www.w3.org/1999/xlink">
<g id="graph0" class="graph" transform="scale(1 1) rotate(0) translate(4 43)">
<title>expr.Expr.__rrshift__</title>
<polygon fill="white" stroke="transparent" points="-4,4 -4,-43 370,-43 370,4 -4,4"/>
<!-- Node1 -->
<g id="node1" class="node">
<title>Node1</title>
<g id="a_node1"><a xlink:title=" ">
<polygon fill="#bfbfbf" stroke="black" points="0,-0.5 0,-19.5 107,-19.5 107,-0.5 0,-0.5"/>
<text text-anchor="middle" x="53.5" y="-7.5" font-family="Helvetica,sans-Serif" font-size="10.00">expr.Expr.__rrshift__</text>
</a>
</g>
</g>
<!-- Node2 -->
<g id="node2" class="node">
<title>Node2</title>
<g id="a_node2"><a xlink:href="classexpr_1_1Expr.html#a21d7d0d7590c2eef71dae6081c0db5e8" target="_top" xlink:title=" ">
<polygon fill="white" stroke="black" points="143,-19.5 143,-38.5 247,-38.5 247,-19.5 143,-19.5"/>
<text text-anchor="middle" x="195" y="-26.5" font-family="Helvetica,sans-Serif" font-size="10.00">expr.Expr.__rshift__</text>
</a>
</g>
</g>
<!-- Node1&#45;&gt;Node2 -->
<g id="edge1" class="edge">
<title>Node1&#45;&gt;Node2</title>
<path fill="none" stroke="midnightblue" d="M107.24,-17.18C115.47,-18.3 124.03,-19.47 132.43,-20.61"/>
<polygon fill="midnightblue" stroke="midnightblue" points="132.19,-24.11 142.57,-22 133.14,-17.18 132.19,-24.11"/>
</g>
<!-- Node3 -->
<g id="node3" class="node">
<title>Node3</title>
<g id="a_node3"><a xlink:href="namespaceexpr.html#a3a25eaf8a14dd5310eb7fc074415d536" target="_top" xlink:title=" ">
<polygon fill="white" stroke="black" points="283,-0.5 283,-19.5 366,-19.5 366,-0.5 283,-0.5"/>
<text text-anchor="middle" x="324.5" y="-7.5" font-family="Helvetica,sans-Serif" font-size="10.00">expr.conv_expr</text>
</a>
</g>
</g>
<!-- Node1&#45;&gt;Node3 -->
<g id="edge3" class="edge">
<title>Node1&#45;&gt;Node3</title>
<path fill="none" stroke="midnightblue" d="M107,-10C155.01,-10 225.55,-10 272.93,-10"/>
<polygon fill="midnightblue" stroke="midnightblue" points="272.97,-13.5 282.97,-10 272.97,-6.5 272.97,-13.5"/>
</g>
<!-- Node2&#45;&gt;Node3 -->
<g id="edge2" class="edge">
<title>Node2&#45;&gt;Node3</title>
<path fill="none" stroke="midnightblue" d="M247.12,-21.38C255.6,-20.12 264.38,-18.81 272.84,-17.55"/>
<polygon fill="midnightblue" stroke="midnightblue" points="273.58,-20.98 282.96,-16.04 272.55,-14.05 273.58,-20.98"/>
</g>
</g>
</svg>
