<?xml version="1.0" encoding="UTF-8" standalone="no"?>
<!DOCTYPE svg PUBLIC "-//W3C//DTD SVG 1.1//EN"
 "http://www.w3.org/Graphics/SVG/1.1/DTD/svg11.dtd">
<!-- Generated by graphviz version 2.42.3 (0)
 -->
<!-- Title: backend.base.Brick.elem Pages: 1 -->
<svg width="688pt" height="28pt"
 viewBox="0.00 0.00 688.00 28.00" xmlns="http://www.w3.org/2000/svg" xmlns:xlink="http://www.w3.org/1999/xlink">
<g id="graph0" class="graph" transform="scale(1 1) rotate(0) translate(4 24)">
<title>backend.base.Brick.elem</title>
<polygon fill="white" stroke="transparent" points="-4,4 -4,-24 684,-24 684,4 -4,4"/>
<!-- Node1 -->
<g id="node1" class="node">
<title>Node1</title>
<g id="a_node1"><a xlink:title=" ">
<polygon fill="#bfbfbf" stroke="black" points="0,-0.5 0,-19.5 127,-19.5 127,-0.5 0,-0.5"/>
<text text-anchor="middle" x="63.5" y="-7.5" font-family="Helvetica,sans-Serif" font-size="10.00">backend.base.Brick.elem</text>
</a>
</g>
</g>
<!-- Node2 -->
<g id="node2" class="node">
<title>Node2</title>
<g id="a_node2"><a xlink:href="classbackend_1_1base_1_1Brick.html#a4b8865d7bf6e718729ad9ee7133c9d54" target="_top" xlink:title=" ">
<polygon fill="white" stroke="black" points="163,-0.5 163,-19.5 304,-19.5 304,-0.5 163,-0.5"/>
<text text-anchor="middle" x="233.5" y="-7.5" font-family="Helvetica,sans-Serif" font-size="10.00">backend.base.Brick.vecstart</text>
</a>
</g>
</g>
<!-- Node1&#45;&gt;Node2 -->
<g id="edge1" class="edge">
<title>Node1&#45;&gt;Node2</title>
<path fill="none" stroke="midnightblue" d="M127.06,-10C135.44,-10 144.13,-10 152.75,-10"/>
<polygon fill="midnightblue" stroke="midnightblue" points="152.83,-13.5 162.83,-10 152.83,-6.5 152.83,-13.5"/>
</g>
<!-- Node3 -->
<g id="node3" class="node">
<title>Node3</title>
<g id="a_node3"><a xlink:href="classbackend_1_1base_1_1Brick.html#a04b695fa2f0fef93850253de2921d9d1" target="_top" xlink:title=" ">
<polygon fill="white" stroke="black" points="340,-0.5 340,-19.5 483,-19.5 483,-0.5 340,-0.5"/>
<text text-anchor="middle" x="411.5" y="-7.5" font-family="Helvetica,sans-Serif" font-size="10.00">backend.base.Brick.neighbor</text>
</a>
</g>
</g>
<!-- Node2&#45;&gt;Node3 -->
<g id="edge2" class="edge">
<title>Node2&#45;&gt;Node3</title>
<path fill="none" stroke="midnightblue" d="M304.06,-10C312.39,-10 320.96,-10 329.44,-10"/>
<polygon fill="midnightblue" stroke="midnightblue" points="329.71,-13.5 339.71,-10 329.71,-6.5 329.71,-13.5"/>
</g>
<!-- Node4 -->
<g id="node4" class="node">
<title>Node4</title>
<g id="a_node4"><a xlink:href="classbackend_1_1base_1_1Brick.html#a6f2f529e3f1936054b7a3cd9f36f81bd" target="_top" xlink:title=" ">
<polygon fill="white" stroke="black" points="519,-0.5 519,-19.5 680,-19.5 680,-0.5 519,-0.5"/>
<text text-anchor="middle" x="599.5" y="-7.5" font-family="Helvetica,sans-Serif" font-size="10.00">backend.base.Brick.neighbor_val</text>
</a>
</g>
</g>
<!-- Node3&#45;&gt;Node4 -->
<g id="edge3" class="edge">
<title>Node3&#45;&gt;Node4</title>
<path fill="none" stroke="midnightblue" d="M483.08,-10C491.5,-10 500.19,-10 508.83,-10"/>
<polygon fill="midnightblue" stroke="midnightblue" points="508.94,-13.5 518.94,-10 508.94,-6.5 508.94,-13.5"/>
</g>
</g>
</svg>
