<?xml version="1.0" encoding="UTF-8" standalone="no"?>
<!DOCTYPE svg PUBLIC "-//W3C//DTD SVG 1.1//EN"
 "http://www.w3.org/Graphics/SVG/1.1/DTD/svg11.dtd">
<!-- Generated by graphviz version 2.42.3 (0)
 -->
<!-- Title: Graphical Class Hierarchy Pages: 1 -->
<svg width="194pt" height="66pt"
 viewBox="0.00 0.00 194.00 66.00" xmlns="http://www.w3.org/2000/svg" xmlns:xlink="http://www.w3.org/1999/xlink">
<g id="graph0" class="graph" transform="scale(1 1) rotate(0) translate(4 62)">
<title>Graphical Class Hierarchy</title>
<polygon fill="white" stroke="transparent" points="-4,4 -4,-62 190,-62 190,4 -4,4"/>
<!-- Node78 -->
<g id="node1" class="node">
<title>Node78</title>
<g id="a_node1"><a xlink:title=" ">
<polygon fill="white" stroke="#bfbfbf" points="0,-19.5 0,-38.5 42,-38.5 42,-19.5 0,-19.5"/>
<text text-anchor="middle" x="21" y="-26.5" font-family="Helvetica,sans-Serif" font-size="10.00">Enum</text>
</a>
</g>
</g>
<!-- Node0 -->
<g id="node2" class="node">
<title>Node0</title>
<g id="a_node2"><a xlink:href="classalop_1_1BinaryOperators.html" target="_top" xlink:title=" ">
<polygon fill="white" stroke="black" points="78,-38.5 78,-57.5 186,-57.5 186,-38.5 78,-38.5"/>
<text text-anchor="middle" x="132" y="-45.5" font-family="Helvetica,sans-Serif" font-size="10.00">alop.BinaryOperators</text>
</a>
</g>
</g>
<!-- Node78&#45;&gt;Node0 -->
<g id="edge1" class="edge">
<title>Node78&#45;&gt;Node0</title>
<path fill="none" stroke="midnightblue" d="M52.13,-34.25C60.1,-35.64 68.93,-37.18 77.72,-38.71"/>
<polygon fill="midnightblue" stroke="midnightblue" points="52.7,-30.8 42.25,-32.53 51.5,-37.69 52.7,-30.8"/>
</g>
<!-- Node80 -->
<g id="node3" class="node">
<title>Node80</title>
<g id="a_node3"><a xlink:href="classalop_1_1UnaryOperators.html" target="_top" xlink:title=" ">
<polygon fill="white" stroke="black" points="78.5,-0.5 78.5,-19.5 185.5,-19.5 185.5,-0.5 78.5,-0.5"/>
<text text-anchor="middle" x="132" y="-7.5" font-family="Helvetica,sans-Serif" font-size="10.00">alop.UnaryOperators</text>
</a>
</g>
</g>
<!-- Node78&#45;&gt;Node80 -->
<g id="edge2" class="edge">
<title>Node78&#45;&gt;Node80</title>
<path fill="none" stroke="midnightblue" d="M52.26,-23.73C60.33,-22.32 69.29,-20.76 78.19,-19.21"/>
<polygon fill="midnightblue" stroke="midnightblue" points="51.5,-20.31 42.25,-25.47 52.7,-27.2 51.5,-20.31"/>
</g>
</g>
</svg>
