<?xml version="1.0" encoding="UTF-8" standalone="no"?>
<!DOCTYPE svg PUBLIC "-//W3C//DTD SVG 1.1//EN"
 "http://www.w3.org/Graphics/SVG/1.1/DTD/svg11.dtd">
<!-- Generated by graphviz version 2.42.3 (0)
 -->
<!-- Title: Graphical Class Hierarchy Pages: 1 -->
<svg width="451pt" height="355pt"
 viewBox="0.00 0.00 451.00 355.00" xmlns="http://www.w3.org/2000/svg" xmlns:xlink="http://www.w3.org/1999/xlink">
<g id="graph0" class="graph" transform="scale(1 1) rotate(0) translate(4 351)">
<title>Graphical Class Hierarchy</title>
<polygon fill="white" stroke="transparent" points="-4,4 -4,-351 447,-351 447,4 -4,4"/>
<!-- Node71 -->
<g id="node1" class="node">
<title>Node71</title>
<g id="a_node1"><a xlink:title=" ">
<polygon fill="white" stroke="#bfbfbf" points="95,-194.5 95,-213.5 154,-213.5 154,-194.5 95,-194.5"/>
<text text-anchor="middle" x="124.5" y="-201.5" font-family="Helvetica,sans-Serif" font-size="10.00">ExprMeta</text>
</a>
</g>
</g>
<!-- Node18 -->
<g id="node2" class="node">
<title>Node18</title>
<g id="a_node2"><a xlink:href="classexpr_1_1Expr.html" target="_top" xlink:title=" ">
<polygon fill="white" stroke="black" points="233.5,-175.5 233.5,-194.5 292.5,-194.5 292.5,-175.5 233.5,-175.5"/>
<text text-anchor="middle" x="263" y="-182.5" font-family="Helvetica,sans-Serif" font-size="10.00">expr.Expr</text>
</a>
</g>
</g>
<!-- Node71&#45;&gt;Node18 -->
<g id="edge1" class="edge">
<title>Node71&#45;&gt;Node18</title>
<path fill="none" stroke="midnightblue" d="M164.15,-198.62C186.18,-195.55 213.32,-191.78 233.42,-188.98"/>
<polygon fill="midnightblue" stroke="midnightblue" points="163.54,-195.17 154.11,-200.02 164.5,-202.1 163.54,-195.17"/>
</g>
<!-- Node19 -->
<g id="node3" class="node">
<title>Node19</title>
<g id="a_node3"><a xlink:href="classexpr_1_1BinOp.html" target="_top" xlink:title=" ">
<polygon fill="white" stroke="black" points="363,-289.5 363,-308.5 428,-308.5 428,-289.5 363,-289.5"/>
<text text-anchor="middle" x="395.5" y="-296.5" font-family="Helvetica,sans-Serif" font-size="10.00">expr.BinOp</text>
</a>
</g>
</g>
<!-- Node18&#45;&gt;Node19 -->
<g id="edge2" class="edge">
<title>Node18&#45;&gt;Node19</title>
<path fill="none" stroke="midnightblue" d="M276,-203C290.77,-223.96 317.66,-258.46 348,-280 353.12,-283.63 359.04,-286.73 364.9,-289.3"/>
<polygon fill="midnightblue" stroke="midnightblue" points="278.82,-200.92 270.27,-194.67 273.05,-204.89 278.82,-200.92"/>
</g>
<!-- Node20 -->
<g id="node4" class="node">
<title>Node20</title>
<g id="a_node4"><a xlink:href="classexpr_1_1ConstRef.html" target="_top" xlink:title=" ">
<polygon fill="white" stroke="black" points="355.5,-251.5 355.5,-270.5 435.5,-270.5 435.5,-251.5 355.5,-251.5"/>
<text text-anchor="middle" x="395.5" y="-258.5" font-family="Helvetica,sans-Serif" font-size="10.00">expr.ConstRef</text>
</a>
</g>
</g>
<!-- Node18&#45;&gt;Node20 -->
<g id="edge3" class="edge">
<title>Node18&#45;&gt;Node20</title>
<path fill="none" stroke="midnightblue" d="M284.65,-200.8C301.2,-213.02 325.33,-229.85 348,-242 354.46,-245.46 361.68,-248.7 368.48,-251.48"/>
<polygon fill="midnightblue" stroke="midnightblue" points="286.39,-197.74 276.29,-194.55 282.2,-203.34 286.39,-197.74"/>
</g>
<!-- Node21 -->
<g id="node5" class="node">
<title>Node21</title>
<g id="a_node5"><a xlink:href="classexpr_1_1FloatLiteral.html" target="_top" xlink:title=" ">
<polygon fill="white" stroke="black" points="352.5,-213.5 352.5,-232.5 438.5,-232.5 438.5,-213.5 352.5,-213.5"/>
<text text-anchor="middle" x="395.5" y="-220.5" font-family="Helvetica,sans-Serif" font-size="10.00">expr.FloatLiteral</text>
</a>
</g>
</g>
<!-- Node18&#45;&gt;Node21 -->
<g id="edge4" class="edge">
<title>Node18&#45;&gt;Node21</title>
<path fill="none" stroke="midnightblue" d="M302.41,-196.18C321.27,-201.68 343.76,-208.23 361.79,-213.48"/>
<polygon fill="midnightblue" stroke="midnightblue" points="303.22,-192.77 292.64,-193.34 301.26,-199.5 303.22,-192.77"/>
</g>
<!-- Node22 -->
<g id="node6" class="node">
<title>Node22</title>
<g id="a_node6"><a xlink:href="classexpr_1_1If.html" target="_top" xlink:title=" ">
<polygon fill="white" stroke="black" points="373.5,-175.5 373.5,-194.5 417.5,-194.5 417.5,-175.5 373.5,-175.5"/>
<text text-anchor="middle" x="395.5" y="-182.5" font-family="Helvetica,sans-Serif" font-size="10.00">expr.If</text>
</a>
</g>
</g>
<!-- Node18&#45;&gt;Node22 -->
<g id="edge5" class="edge">
<title>Node18&#45;&gt;Node22</title>
<path fill="none" stroke="midnightblue" d="M302.8,-185C325.85,-185 354.19,-185 373.22,-185"/>
<polygon fill="midnightblue" stroke="midnightblue" points="302.64,-181.5 292.64,-185 302.64,-188.5 302.64,-181.5"/>
</g>
<!-- Node23 -->
<g id="node7" class="node">
<title>Node23</title>
<g id="a_node7"><a xlink:href="classexpr_1_1Index.html" target="_top" xlink:title=" ">
<polygon fill="white" stroke="black" points="364.5,-137.5 364.5,-156.5 426.5,-156.5 426.5,-137.5 364.5,-137.5"/>
<text text-anchor="middle" x="395.5" y="-144.5" font-family="Helvetica,sans-Serif" font-size="10.00">expr.Index</text>
</a>
</g>
</g>
<!-- Node18&#45;&gt;Node23 -->
<g id="edge6" class="edge">
<title>Node18&#45;&gt;Node23</title>
<path fill="none" stroke="midnightblue" d="M302.24,-173.86C321.96,-168.12 345.67,-161.22 364.11,-155.85"/>
<polygon fill="midnightblue" stroke="midnightblue" points="301.26,-170.5 292.64,-176.66 303.22,-177.23 301.26,-170.5"/>
</g>
<!-- Node24 -->
<g id="node8" class="node">
<title>Node24</title>
<g id="a_node8"><a xlink:href="classexpr_1_1IntLiteral.html" target="_top" xlink:title=" ">
<polygon fill="white" stroke="black" points="357.5,-99.5 357.5,-118.5 433.5,-118.5 433.5,-99.5 357.5,-99.5"/>
<text text-anchor="middle" x="395.5" y="-106.5" font-family="Helvetica,sans-Serif" font-size="10.00">expr.IntLiteral</text>
</a>
</g>
</g>
<!-- Node18&#45;&gt;Node24 -->
<g id="edge7" class="edge">
<title>Node18&#45;&gt;Node24</title>
<path fill="none" stroke="midnightblue" d="M284.65,-169.2C301.2,-156.98 325.33,-140.15 348,-128 354.46,-124.54 361.68,-121.3 368.48,-118.52"/>
<polygon fill="midnightblue" stroke="midnightblue" points="282.2,-166.66 276.29,-175.45 286.39,-172.26 282.2,-166.66"/>
</g>
<!-- Node25 -->
<g id="node9" class="node">
<title>Node25</title>
<g id="a_node9"><a xlink:href="classexpr_1_1ReductionOp.html" target="_top" xlink:title=" ">
<polygon fill="white" stroke="black" points="348,-61.5 348,-80.5 443,-80.5 443,-61.5 348,-61.5"/>
<text text-anchor="middle" x="395.5" y="-68.5" font-family="Helvetica,sans-Serif" font-size="10.00">expr.ReductionOp</text>
</a>
</g>
</g>
<!-- Node18&#45;&gt;Node25 -->
<g id="edge8" class="edge">
<title>Node18&#45;&gt;Node25</title>
<path fill="none" stroke="midnightblue" d="M276,-167C290.77,-146.04 317.66,-111.54 348,-90 353.12,-86.37 359.04,-83.27 364.9,-80.7"/>
<polygon fill="midnightblue" stroke="midnightblue" points="273.05,-165.11 270.27,-175.33 278.82,-169.08 273.05,-165.11"/>
</g>
<!-- Node26 -->
<g id="node10" class="node">
<title>Node26</title>
<g id="a_node10"><a xlink:href="classexpr_1_1UnOp.html" target="_top" xlink:title=" ">
<polygon fill="white" stroke="black" points="363.5,-327.5 363.5,-346.5 427.5,-346.5 427.5,-327.5 363.5,-327.5"/>
<text text-anchor="middle" x="395.5" y="-334.5" font-family="Helvetica,sans-Serif" font-size="10.00">expr.UnOp</text>
</a>
</g>
</g>
<!-- Node18&#45;&gt;Node26 -->
<g id="edge9" class="edge">
<title>Node18&#45;&gt;Node26</title>
<path fill="none" stroke="midnightblue" d="M271.51,-204.06C283.61,-232.5 309.98,-286.12 348,-318 352.54,-321.81 357.96,-324.94 363.45,-327.47"/>
<polygon fill="midnightblue" stroke="midnightblue" points="274.75,-202.72 267.7,-194.8 268.27,-205.38 274.75,-202.72"/>
</g>
<!-- Node29 -->
<g id="node11" class="node">
<title>Node29</title>
<g id="a_node11"><a xlink:title=" ">
<polygon fill="white" stroke="#bfbfbf" points="93.5,-104.5 93.5,-123.5 155.5,-123.5 155.5,-104.5 93.5,-104.5"/>
<text text-anchor="middle" x="124.5" y="-111.5" font-family="Helvetica,sans-Serif" font-size="10.00">metaclass</text>
</a>
</g>
</g>
<!-- Node29&#45;&gt;Node18 -->
<g id="edge10" class="edge">
<title>Node29&#45;&gt;Node18</title>
<path fill="none" stroke="midnightblue" d="M152.81,-128.21C179.71,-142.2 220.07,-163.19 243.45,-175.35"/>
<polygon fill="midnightblue" stroke="midnightblue" points="154.4,-125.08 143.91,-123.58 151.17,-131.3 154.4,-125.08"/>
</g>
<!-- Node5 -->
<g id="node12" class="node">
<title>Node5</title>
<g id="a_node12"><a xlink:href="classprinter_1_1PrinterBase.html" target="_top" xlink:title=" ">
<polygon fill="white" stroke="black" points="214,-38.5 214,-57.5 312,-57.5 312,-38.5 214,-38.5"/>
<text text-anchor="middle" x="263" y="-45.5" font-family="Helvetica,sans-Serif" font-size="10.00">printer.PrinterBase</text>
</a>
</g>
</g>
<!-- Node29&#45;&gt;Node5 -->
<g id="edge11" class="edge">
<title>Node29&#45;&gt;Node5</title>
<path fill="none" stroke="midnightblue" d="M154.48,-99.99C180.84,-87.24 219.07,-68.76 242.13,-57.61"/>
<polygon fill="midnightblue" stroke="midnightblue" points="152.83,-96.9 145.35,-104.4 155.87,-103.2 152.83,-96.9"/>
</g>
<!-- Node6 -->
<g id="node13" class="node">
<title>Node6</title>
<g id="a_node13"><a xlink:href="classprinter_1_1Printer.html" target="_top" xlink:title=" ">
<polygon fill="white" stroke="black" points="358,-23.5 358,-42.5 433,-42.5 433,-23.5 358,-23.5"/>
<text text-anchor="middle" x="395.5" y="-30.5" font-family="Helvetica,sans-Serif" font-size="10.00">printer.Printer</text>
</a>
</g>
</g>
<!-- Node5&#45;&gt;Node6 -->
<g id="edge12" class="edge">
<title>Node5&#45;&gt;Node6</title>
<path fill="none" stroke="midnightblue" d="M322.28,-41.3C334.4,-39.91 346.83,-38.48 357.9,-37.21"/>
<polygon fill="midnightblue" stroke="midnightblue" points="321.76,-37.84 312.22,-42.46 322.56,-44.79 321.76,-37.84"/>
</g>
<!-- Node17 -->
<g id="node14" class="node">
<title>Node17</title>
<g id="a_node14"><a xlink:title=" ">
<polygon fill="white" stroke="#bfbfbf" points="103,-156.5 103,-175.5 146,-175.5 146,-156.5 103,-156.5"/>
<text text-anchor="middle" x="124.5" y="-163.5" font-family="Helvetica,sans-Serif" font-size="10.00">object</text>
</a>
</g>
</g>
<!-- Node17&#45;&gt;Node18 -->
<g id="edge13" class="edge">
<title>Node17&#45;&gt;Node18</title>
<path fill="none" stroke="midnightblue" d="M156.21,-170.28C179.36,-173.5 210.86,-177.88 233.46,-181.03"/>
<polygon fill="midnightblue" stroke="midnightblue" points="156.62,-166.8 146.23,-168.89 155.65,-173.73 156.62,-166.8"/>
</g>
<!-- Node2 -->
<g id="node15" class="node">
<title>Node2</title>
<g id="a_node15"><a xlink:title=" ">
<polygon fill="white" stroke="#bfbfbf" points="0,-19.5 0,-38.5 35,-38.5 35,-19.5 0,-19.5"/>
<text text-anchor="middle" x="17.5" y="-26.5" font-family="Helvetica,sans-Serif" font-size="10.00">type</text>
</a>
</g>
</g>
<!-- Node0 -->
<g id="node16" class="node">
<title>Node0</title>
<g id="a_node16"><a xlink:href="classexpr__meta_1_1ExprMeta.html" target="_top" xlink:title=" ">
<polygon fill="white" stroke="black" points="71,-0.5 71,-19.5 178,-19.5 178,-0.5 71,-0.5"/>
<text text-anchor="middle" x="124.5" y="-7.5" font-family="Helvetica,sans-Serif" font-size="10.00">expr_meta.ExprMeta</text>
</a>
</g>
</g>
<!-- Node2&#45;&gt;Node0 -->
<g id="edge14" class="edge">
<title>Node2&#45;&gt;Node0</title>
<path fill="none" stroke="midnightblue" d="M45.31,-24.15C53.13,-22.73 61.96,-21.14 70.8,-19.54"/>
<polygon fill="midnightblue" stroke="midnightblue" points="44.59,-20.72 35.37,-25.95 45.83,-27.61 44.59,-20.72"/>
</g>
<!-- Node4 -->
<g id="node17" class="node">
<title>Node4</title>
<g id="a_node17"><a xlink:href="classprinter_1_1Singleton.html" target="_top" xlink:title=" ">
<polygon fill="white" stroke="black" points="81,-38.5 81,-57.5 168,-57.5 168,-38.5 81,-38.5"/>
<text text-anchor="middle" x="124.5" y="-45.5" font-family="Helvetica,sans-Serif" font-size="10.00">printer.Singleton</text>
</a>
</g>
</g>
<!-- Node2&#45;&gt;Node4 -->
<g id="edge15" class="edge">
<title>Node2&#45;&gt;Node4</title>
<path fill="none" stroke="midnightblue" d="M45.42,-33.87C56.19,-35.82 68.87,-38.12 80.84,-40.28"/>
<polygon fill="midnightblue" stroke="midnightblue" points="45.83,-30.39 35.37,-32.05 44.59,-37.28 45.83,-30.39"/>
</g>
<!-- Node4&#45;&gt;Node5 -->
<g id="edge16" class="edge">
<title>Node4&#45;&gt;Node5</title>
<path fill="none" stroke="midnightblue" d="M178.33,-48C189.95,-48 202.2,-48 213.63,-48"/>
<polygon fill="midnightblue" stroke="midnightblue" points="178.31,-44.5 168.31,-48 178.31,-51.5 178.31,-44.5"/>
</g>
</g>
</svg>
