<?xml version="1.0" encoding="UTF-8" standalone="no"?>
<!DOCTYPE svg PUBLIC "-//W3C//DTD SVG 1.1//EN"
 "http://www.w3.org/Graphics/SVG/1.1/DTD/svg11.dtd">
<!-- Generated by graphviz version 2.42.3 (0)
 -->
<!-- Title: Graphical Class Hierarchy Pages: 1 -->
<svg width="449pt" height="104pt"
 viewBox="0.00 0.00 449.00 104.00" xmlns="http://www.w3.org/2000/svg" xmlns:xlink="http://www.w3.org/1999/xlink">
<g id="graph0" class="graph" transform="scale(1 1) rotate(0) translate(4 100)">
<title>Graphical Class Hierarchy</title>
<polygon fill="white" stroke="transparent" points="-4,4 -4,-100 445,-100 445,4 -4,4"/>
<!-- Node85 -->
<g id="node1" class="node">
<title>Node85</title>
<g id="a_node1"><a xlink:title=" ">
<polygon fill="white" stroke="#bfbfbf" points="0,-38.5 0,-57.5 55,-57.5 55,-38.5 0,-38.5"/>
<text text-anchor="middle" x="27.5" y="-45.5" font-family="Helvetica,sans-Serif" font-size="10.00">Backend</text>
</a>
</g>
</g>
<!-- Node0 -->
<g id="node2" class="node">
<title>Node0</title>
<g id="a_node2"><a xlink:href="classbackend_1_1avx512_1_1BackendAVX512.html" target="_top" xlink:title=" ">
<polygon fill="white" stroke="black" points="91,-76.5 91,-95.5 255,-95.5 255,-76.5 91,-76.5"/>
<text text-anchor="middle" x="173" y="-83.5" font-family="Helvetica,sans-Serif" font-size="10.00">backend.avx512.BackendAVX512</text>
</a>
</g>
</g>
<!-- Node85&#45;&gt;Node0 -->
<g id="edge1" class="edge">
<title>Node85&#45;&gt;Node0</title>
<path fill="none" stroke="midnightblue" d="M64.86,-59.49C73.41,-62.07 82.5,-64.71 91,-67 103.27,-70.3 116.68,-73.58 128.99,-76.46"/>
<polygon fill="midnightblue" stroke="midnightblue" points="65.74,-56.1 55.15,-56.52 63.69,-62.79 65.74,-56.1"/>
</g>
<!-- Node87 -->
<g id="node3" class="node">
<title>Node87</title>
<g id="a_node3"><a xlink:href="classbackend_1_1cuda_1_1BackendCUDA.html" target="_top" xlink:title=" ">
<polygon fill="white" stroke="black" points="99,-38.5 99,-57.5 247,-57.5 247,-38.5 99,-38.5"/>
<text text-anchor="middle" x="173" y="-45.5" font-family="Helvetica,sans-Serif" font-size="10.00">backend.cuda.BackendCUDA</text>
</a>
</g>
</g>
<!-- Node85&#45;&gt;Node87 -->
<g id="edge2" class="edge">
<title>Node85&#45;&gt;Node87</title>
<path fill="none" stroke="midnightblue" d="M65.37,-48C75.66,-48 87.21,-48 98.82,-48"/>
<polygon fill="midnightblue" stroke="midnightblue" points="65.15,-44.5 55.15,-48 65.15,-51.5 65.15,-44.5"/>
</g>
<!-- Node89 -->
<g id="node5" class="node">
<title>Node89</title>
<g id="a_node5"><a xlink:href="classbackend_1_1scalar_1_1BackendScalar.html" target="_top" xlink:title=" ">
<polygon fill="white" stroke="black" points="97,-0.5 97,-19.5 249,-19.5 249,-0.5 97,-0.5"/>
<text text-anchor="middle" x="173" y="-7.5" font-family="Helvetica,sans-Serif" font-size="10.00">backend.scalar.BackendScalar</text>
</a>
</g>
</g>
<!-- Node85&#45;&gt;Node89 -->
<g id="edge4" class="edge">
<title>Node85&#45;&gt;Node89</title>
<path fill="none" stroke="midnightblue" d="M64.86,-36.51C73.41,-33.93 82.5,-31.29 91,-29 103.27,-25.7 116.68,-22.42 128.99,-19.54"/>
<polygon fill="midnightblue" stroke="midnightblue" points="63.69,-33.21 55.15,-39.48 65.74,-39.9 63.69,-33.21"/>
</g>
<!-- Node88 -->
<g id="node4" class="node">
<title>Node88</title>
<g id="a_node4"><a xlink:href="classbackend_1_1cuda_1_1BackendCuFlex.html" target="_top" xlink:title=" ">
<polygon fill="white" stroke="black" points="291,-38.5 291,-57.5 441,-57.5 441,-38.5 291,-38.5"/>
<text text-anchor="middle" x="366" y="-45.5" font-family="Helvetica,sans-Serif" font-size="10.00">backend.cuda.BackendCuFlex</text>
</a>
</g>
</g>
<!-- Node87&#45;&gt;Node88 -->
<g id="edge3" class="edge">
<title>Node87&#45;&gt;Node88</title>
<path fill="none" stroke="midnightblue" d="M257.2,-48C268.36,-48 279.75,-48 290.75,-48"/>
<polygon fill="midnightblue" stroke="midnightblue" points="257.03,-44.5 247.03,-48 257.03,-51.5 257.03,-44.5"/>
</g>
</g>
</svg>
