<?xml version="1.0" encoding="UTF-8" standalone="no"?>
<!DOCTYPE svg PUBLIC "-//W3C//DTD SVG 1.1//EN"
 "http://www.w3.org/Graphics/SVG/1.1/DTD/svg11.dtd">
<!-- Generated by graphviz version 2.42.3 (0)
 -->
<!-- Title: Graphical Class Hierarchy Pages: 1 -->
<svg width="277pt" height="104pt"
 viewBox="0.00 0.00 277.00 104.00" xmlns="http://www.w3.org/2000/svg" xmlns:xlink="http://www.w3.org/1999/xlink">
<g id="graph0" class="graph" transform="scale(1 1) rotate(0) translate(4 100)">
<title>Graphical Class Hierarchy</title>
<polygon fill="white" stroke="transparent" points="-4,4 -4,-100 273,-100 273,4 -4,4"/>
<!-- Node81 -->
<g id="node1" class="node">
<title>Node81</title>
<g id="a_node1"><a xlink:title=" ">
<polygon fill="white" stroke="#bfbfbf" points="0,-38.5 0,-57.5 90,-57.5 90,-38.5 0,-38.5"/>
<text text-anchor="middle" x="45" y="-45.5" font-family="Helvetica,sans-Serif" font-size="10.00">BackendAVX512</text>
</a>
</g>
</g>
<!-- Node0 -->
<g id="node2" class="node">
<title>Node0</title>
<g id="a_node2"><a xlink:href="classbackend_1_1avx2_1_1BackendAVX2.html" target="_top" xlink:title=" ">
<polygon fill="white" stroke="black" points="126,-76.5 126,-95.5 269,-95.5 269,-76.5 126,-76.5"/>
<text text-anchor="middle" x="197.5" y="-83.5" font-family="Helvetica,sans-Serif" font-size="10.00">backend.avx2.BackendAVX2</text>
</a>
</g>
</g>
<!-- Node81&#45;&gt;Node0 -->
<g id="edge1" class="edge">
<title>Node81&#45;&gt;Node0</title>
<path fill="none" stroke="midnightblue" d="M93.68,-60.04C114.71,-65.35 139.07,-71.5 158.8,-76.48"/>
<polygon fill="midnightblue" stroke="midnightblue" points="94.53,-56.64 83.98,-57.59 92.82,-63.43 94.53,-56.64"/>
</g>
<!-- Node83 -->
<g id="node3" class="node">
<title>Node83</title>
<g id="a_node3"><a xlink:href="classbackend_1_1flex_1_1BackendFlex.html" target="_top" xlink:title=" ">
<polygon fill="white" stroke="black" points="131.5,-38.5 131.5,-57.5 263.5,-57.5 263.5,-38.5 131.5,-38.5"/>
<text text-anchor="middle" x="197.5" y="-45.5" font-family="Helvetica,sans-Serif" font-size="10.00">backend.flex.BackendFlex</text>
</a>
</g>
</g>
<!-- Node81&#45;&gt;Node83 -->
<g id="edge2" class="edge">
<title>Node81&#45;&gt;Node83</title>
<path fill="none" stroke="midnightblue" d="M100.52,-48C110.51,-48 121.02,-48 131.28,-48"/>
<polygon fill="midnightblue" stroke="midnightblue" points="100.34,-44.5 90.34,-48 100.34,-51.5 100.34,-44.5"/>
</g>
<!-- Node84 -->
<g id="node4" class="node">
<title>Node84</title>
<g id="a_node4"><a xlink:href="classbackend_1_1sse_1_1BackendSSE.html" target="_top" xlink:title=" ">
<polygon fill="white" stroke="black" points="130.5,-0.5 130.5,-19.5 264.5,-19.5 264.5,-0.5 130.5,-0.5"/>
<text text-anchor="middle" x="197.5" y="-7.5" font-family="Helvetica,sans-Serif" font-size="10.00">backend.sse.BackendSSE</text>
</a>
</g>
</g>
<!-- Node81&#45;&gt;Node84 -->
<g id="edge3" class="edge">
<title>Node81&#45;&gt;Node84</title>
<path fill="none" stroke="midnightblue" d="M93.68,-35.96C114.71,-30.65 139.07,-24.5 158.8,-19.52"/>
<polygon fill="midnightblue" stroke="midnightblue" points="92.82,-32.57 83.98,-38.41 94.53,-39.36 92.82,-32.57"/>
</g>
</g>
</svg>
