<?xml version="1.0" encoding="UTF-8" standalone="no"?>
<!DOCTYPE svg PUBLIC "-//W3C//DTD SVG 1.1//EN"
 "http://www.w3.org/Graphics/SVG/1.1/DTD/svg11.dtd">
<!-- Generated by graphviz version 2.42.3 (0)
 -->
<!-- Title: Graphical Class Hierarchy Pages: 1 -->
<svg width="185pt" height="180pt"
 viewBox="0.00 0.00 185.00 180.00" xmlns="http://www.w3.org/2000/svg" xmlns:xlink="http://www.w3.org/1999/xlink">
<g id="graph0" class="graph" transform="scale(1 1) rotate(0) translate(4 176)">
<title>Graphical Class Hierarchy</title>
<polygon fill="white" stroke="transparent" points="-4,4 -4,-176 181,-176 181,4 -4,4"/>
<!-- Node72 -->
<g id="node1" class="node">
<title>Node72</title>
<g id="a_node1"><a xlink:title=" ">
<polygon fill="white" stroke="#bfbfbf" points="0,-76.5 0,-95.5 37,-95.5 37,-76.5 0,-76.5"/>
<text text-anchor="middle" x="18.5" y="-83.5" font-family="Helvetica,sans-Serif" font-size="10.00">Expr</text>
</a>
</g>
</g>
<!-- Node0 -->
<g id="node2" class="node">
<title>Node0</title>
<g id="a_node2"><a xlink:href="classbuffer_1_1BufferRead.html" target="_top" xlink:title=" ">
<polygon fill="white" stroke="black" points="79,-152.5 79,-171.5 171,-171.5 171,-152.5 79,-152.5"/>
<text text-anchor="middle" x="125" y="-159.5" font-family="Helvetica,sans-Serif" font-size="10.00">buffer.BufferRead</text>
</a>
</g>
</g>
<!-- Node72&#45;&gt;Node0 -->
<g id="edge1" class="edge">
<title>Node72&#45;&gt;Node0</title>
<path fill="none" stroke="midnightblue" d="M32.75,-104.02C42.66,-116.41 57.18,-132.48 73,-143 78.59,-146.71 85,-149.83 91.34,-152.39"/>
<polygon fill="midnightblue" stroke="midnightblue" points="35.27,-101.56 26.4,-95.77 29.73,-105.83 35.27,-101.56"/>
</g>
<!-- Node74 -->
<g id="node3" class="node">
<title>Node74</title>
<g id="a_node3"><a xlink:href="classbuffer_1_1Shift.html" target="_top" xlink:title=" ">
<polygon fill="white" stroke="black" points="93,-114.5 93,-133.5 157,-133.5 157,-114.5 93,-114.5"/>
<text text-anchor="middle" x="125" y="-121.5" font-family="Helvetica,sans-Serif" font-size="10.00">buffer.Shift</text>
</a>
</g>
</g>
<!-- Node72&#45;&gt;Node74 -->
<g id="edge2" class="edge">
<title>Node72&#45;&gt;Node74</title>
<path fill="none" stroke="midnightblue" d="M46.87,-95.95C62.52,-101.64 82.05,-108.74 97.54,-114.38"/>
<polygon fill="midnightblue" stroke="midnightblue" points="47.82,-92.57 37.23,-92.45 45.43,-99.15 47.82,-92.57"/>
</g>
<!-- Node75 -->
<g id="node4" class="node">
<title>Node75</title>
<g id="a_node4"><a xlink:href="classfunc_1_1CallExpr.html" target="_top" xlink:title=" ">
<polygon fill="white" stroke="black" points="87,-76.5 87,-95.5 163,-95.5 163,-76.5 87,-76.5"/>
<text text-anchor="middle" x="125" y="-83.5" font-family="Helvetica,sans-Serif" font-size="10.00">func.CallExpr</text>
</a>
</g>
</g>
<!-- Node72&#45;&gt;Node75 -->
<g id="edge3" class="edge">
<title>Node72&#45;&gt;Node75</title>
<path fill="none" stroke="midnightblue" d="M47.54,-86C59.56,-86 73.76,-86 86.65,-86"/>
<polygon fill="midnightblue" stroke="midnightblue" points="47.23,-82.5 37.23,-86 47.23,-89.5 47.23,-82.5"/>
</g>
<!-- Node76 -->
<g id="node5" class="node">
<title>Node76</title>
<g id="a_node5"><a xlink:href="classgrid_1_1GridRef.html" target="_top" xlink:title=" ">
<polygon fill="white" stroke="black" points="90.5,-38.5 90.5,-57.5 159.5,-57.5 159.5,-38.5 90.5,-38.5"/>
<text text-anchor="middle" x="125" y="-45.5" font-family="Helvetica,sans-Serif" font-size="10.00">grid.GridRef</text>
</a>
</g>
</g>
<!-- Node72&#45;&gt;Node76 -->
<g id="edge4" class="edge">
<title>Node72&#45;&gt;Node76</title>
<path fill="none" stroke="midnightblue" d="M46.87,-76.05C62.52,-70.36 82.05,-63.26 97.54,-57.62"/>
<polygon fill="midnightblue" stroke="midnightblue" points="45.43,-72.85 37.23,-79.55 47.82,-79.43 45.43,-72.85"/>
</g>
<!-- Node77 -->
<g id="node6" class="node">
<title>Node77</title>
<g id="a_node6"><a xlink:href="classreduction_1_1Reduction.html" target="_top" xlink:title=" ">
<polygon fill="white" stroke="black" points="73,-0.5 73,-19.5 177,-19.5 177,-0.5 73,-0.5"/>
<text text-anchor="middle" x="125" y="-7.5" font-family="Helvetica,sans-Serif" font-size="10.00">reduction.Reduction</text>
</a>
</g>
</g>
<!-- Node72&#45;&gt;Node77 -->
<g id="edge5" class="edge">
<title>Node72&#45;&gt;Node77</title>
<path fill="none" stroke="midnightblue" d="M32.75,-67.98C42.66,-55.59 57.18,-39.52 73,-29 78.59,-25.29 85,-22.17 91.34,-19.61"/>
<polygon fill="midnightblue" stroke="midnightblue" points="29.73,-66.17 26.4,-76.23 35.27,-70.44 29.73,-66.17"/>
</g>
</g>
</svg>
