<?xml version="1.0" encoding="UTF-8" standalone="no"?>
<!DOCTYPE svg PUBLIC "-//W3C//DTD SVG 1.1//EN"
 "http://www.w3.org/Graphics/SVG/1.1/DTD/svg11.dtd">
<!-- Generated by graphviz version 2.42.3 (0)
 -->
<!-- Title: Graphical Class Hierarchy Pages: 1 -->
<svg width="249pt" height="66pt"
 viewBox="0.00 0.00 249.00 66.00" xmlns="http://www.w3.org/2000/svg" xmlns:xlink="http://www.w3.org/1999/xlink">
<g id="graph0" class="graph" transform="scale(1 1) rotate(0) translate(4 62)">
<title>Graphical Class Hierarchy</title>
<polygon fill="white" stroke="transparent" points="-4,4 -4,-62 245,-62 245,4 -4,4"/>
<!-- Node66 -->
<g id="node1" class="node">
<title>Node66</title>
<g id="a_node1"><a xlink:title=" ">
<polygon fill="white" stroke="#bfbfbf" points="0,-19.5 0,-38.5 63,-38.5 63,-19.5 0,-19.5"/>
<text text-anchor="middle" x="31.5" y="-26.5" font-family="Helvetica,sans-Serif" font-size="10.00">PrinterRed</text>
</a>
</g>
</g>
<!-- Node0 -->
<g id="node2" class="node">
<title>Node0</title>
<g id="a_node2"><a xlink:href="classbackend_1_1cuda_1_1PrinterCUDA.html" target="_top" xlink:title=" ">
<polygon fill="white" stroke="black" points="101,-38.5 101,-57.5 239,-57.5 239,-38.5 101,-38.5"/>
<text text-anchor="middle" x="170" y="-45.5" font-family="Helvetica,sans-Serif" font-size="10.00">backend.cuda.PrinterCUDA</text>
</a>
</g>
</g>
<!-- Node66&#45;&gt;Node0 -->
<g id="edge1" class="edge">
<title>Node66&#45;&gt;Node0</title>
<path fill="none" stroke="midnightblue" d="M73.04,-34.64C81.81,-35.86 91.31,-37.19 100.81,-38.51"/>
<polygon fill="midnightblue" stroke="midnightblue" points="73.52,-31.18 63.13,-33.26 72.56,-38.11 73.52,-31.18"/>
</g>
<!-- Node68 -->
<g id="node3" class="node">
<title>Node68</title>
<g id="a_node3"><a xlink:href="classbackend_1_1scalar_1_1PrinterScalar.html" target="_top" xlink:title=" ">
<polygon fill="white" stroke="black" points="99,-0.5 99,-19.5 241,-19.5 241,-0.5 99,-0.5"/>
<text text-anchor="middle" x="170" y="-7.5" font-family="Helvetica,sans-Serif" font-size="10.00">backend.scalar.PrinterScalar</text>
</a>
</g>
</g>
<!-- Node66&#45;&gt;Node68 -->
<g id="edge2" class="edge">
<title>Node66&#45;&gt;Node68</title>
<path fill="none" stroke="midnightblue" d="M73.25,-23.33C81.88,-22.13 91.2,-20.83 100.53,-19.53"/>
<polygon fill="midnightblue" stroke="midnightblue" points="72.56,-19.89 63.13,-24.74 73.52,-26.82 72.56,-19.89"/>
</g>
</g>
</svg>
