<?xml version="1.0" encoding="UTF-8" standalone="no"?>
<!DOCTYPE svg PUBLIC "-//W3C//DTD SVG 1.1//EN"
 "http://www.w3.org/Graphics/SVG/1.1/DTD/svg11.dtd">
<!-- Generated by graphviz version 2.42.3 (0)
 -->
<!-- Title: include/memfd.h Pages: 1 -->
<svg width="318pt" height="140pt"
 viewBox="0.00 0.00 317.50 140.00" xmlns="http://www.w3.org/2000/svg" xmlns:xlink="http://www.w3.org/1999/xlink">
<g id="graph0" class="graph" transform="scale(1 1) rotate(0) translate(4 136)">
<title>include/memfd.h</title>
<polygon fill="white" stroke="transparent" points="-4,4 -4,-136 313.5,-136 313.5,4 -4,4"/>
<!-- Node1 -->
<g id="node1" class="node">
<title>Node1</title>
<g id="a_node1"><a xlink:title="Helper data structure for memory file.">
<polygon fill="#bfbfbf" stroke="black" points="171,-112.5 171,-131.5 260,-131.5 260,-112.5 171,-112.5"/>
<text text-anchor="middle" x="215.5" y="-119.5" font-family="Helvetica,sans-Serif" font-size="10.00">include/memfd.h</text>
</a>
</g>
</g>
<!-- Node2 -->
<g id="node2" class="node">
<title>Node2</title>
<g id="a_node2"><a xlink:href="brick-mpi_8h.html" target="_top" xlink:title="MPI stuff related to bricks.">
<polygon fill="white" stroke="black" points="128.5,-56.5 128.5,-75.5 226.5,-75.5 226.5,-56.5 128.5,-56.5"/>
<text text-anchor="middle" x="177.5" y="-63.5" font-family="Helvetica,sans-Serif" font-size="10.00">include/brick&#45;mpi.h</text>
</a>
</g>
</g>
<!-- Node1&#45;&gt;Node2 -->
<g id="edge1" class="edge">
<title>Node1&#45;&gt;Node2</title>
<path fill="none" stroke="midnightblue" d="M203.44,-103.86C196.86,-94.5 188.99,-83.33 183.66,-75.75"/>
<polygon fill="midnightblue" stroke="midnightblue" points="200.61,-105.92 209.23,-112.08 206.33,-101.89 200.61,-105.92"/>
</g>
<!-- Node5 -->
<g id="node5" class="node">
<title>Node5</title>
<g id="a_node5"><a xlink:href="memfd_8cpp.html" target="_top" xlink:title=" ">
<polygon fill="white" stroke="black" points="227.5,-0.5 227.5,-19.5 309.5,-19.5 309.5,-0.5 227.5,-0.5"/>
<text text-anchor="middle" x="268.5" y="-7.5" font-family="Helvetica,sans-Serif" font-size="10.00">src/memfd.cpp</text>
</a>
</g>
</g>
<!-- Node1&#45;&gt;Node5 -->
<g id="edge5" class="edge">
<title>Node1&#45;&gt;Node5</title>
<path fill="none" stroke="midnightblue" d="M224.02,-103.32C235.56,-79.37 255.71,-37.55 264.36,-19.59"/>
<polygon fill="midnightblue" stroke="midnightblue" points="220.85,-101.84 219.66,-112.37 227.15,-104.88 220.85,-101.84"/>
</g>
<!-- Node3 -->
<g id="node3" class="node">
<title>Node3</title>
<g id="a_node3"><a xlink:href="array-mpi_8h.html" target="_top" xlink:title="Reference MPI communication with arrays.">
<polygon fill="white" stroke="black" points="0,-0.5 0,-19.5 99,-19.5 99,-0.5 0,-0.5"/>
<text text-anchor="middle" x="49.5" y="-7.5" font-family="Helvetica,sans-Serif" font-size="10.00">include/array&#45;mpi.h</text>
</a>
</g>
</g>
<!-- Node2&#45;&gt;Node3 -->
<g id="edge2" class="edge">
<title>Node2&#45;&gt;Node3</title>
<path fill="none" stroke="midnightblue" d="M147.88,-52.5C123.88,-42.38 90.72,-28.39 69.69,-19.52"/>
<polygon fill="midnightblue" stroke="midnightblue" points="146.64,-55.78 157.22,-56.44 149.36,-49.33 146.64,-55.78"/>
</g>
<!-- Node4 -->
<g id="node4" class="node">
<title>Node4</title>
<g id="a_node4"><a xlink:href="brick-mpi_8cpp.html" target="_top" xlink:title=" ">
<polygon fill="white" stroke="black" points="117.5,-0.5 117.5,-19.5 209.5,-19.5 209.5,-0.5 117.5,-0.5"/>
<text text-anchor="middle" x="163.5" y="-7.5" font-family="Helvetica,sans-Serif" font-size="10.00">src/brick&#45;mpi.cpp</text>
</a>
</g>
</g>
<!-- Node2&#45;&gt;Node4 -->
<g id="edge3" class="edge">
<title>Node2&#45;&gt;Node4</title>
<path fill="none" stroke="midnightblue" d="M172.68,-46.4C170.33,-37.36 167.63,-26.94 165.77,-19.75"/>
<polygon fill="midnightblue" stroke="midnightblue" points="169.29,-47.28 175.19,-56.08 176.07,-45.52 169.29,-47.28"/>
</g>
<!-- Node2&#45;&gt;Node5 -->
<g id="edge4" class="edge">
<title>Node2&#45;&gt;Node5</title>
<path fill="none" stroke="midnightblue" d="M200.79,-51.18C217.54,-41.24 239.6,-28.15 253.92,-19.65"/>
<polygon fill="midnightblue" stroke="midnightblue" points="198.93,-48.21 192.12,-56.32 202.51,-54.23 198.93,-48.21"/>
</g>
</g>
</svg>
