<?xml version="1.0" encoding="UTF-8" standalone="no"?>
<!DOCTYPE svg PUBLIC "-//W3C//DTD SVG 1.1//EN"
 "http://www.w3.org/Graphics/SVG/1.1/DTD/svg11.dtd">
<!-- Generated by graphviz version 2.42.3 (0)
 -->
<!-- Title: src/memfd.cpp Pages: 1 -->
<svg width="1018pt" height="196pt"
 viewBox="0.00 0.00 1018.00 196.00" xmlns="http://www.w3.org/2000/svg" xmlns:xlink="http://www.w3.org/1999/xlink">
<g id="graph0" class="graph" transform="scale(1 1) rotate(0) translate(4 192)">
<title>src/memfd.cpp</title>
<polygon fill="white" stroke="transparent" points="-4,4 -4,-192 1014,-192 1014,4 -4,4"/>
<!-- Node1 -->
<g id="node1" class="node">
<title>Node1</title>
<g id="a_node1"><a xlink:title=" ">
<polygon fill="#bfbfbf" stroke="black" points="487,-168.5 487,-187.5 569,-187.5 569,-168.5 487,-168.5"/>
<text text-anchor="middle" x="528" y="-175.5" font-family="Helvetica,sans-Serif" font-size="10.00">src/memfd.cpp</text>
</a>
</g>
</g>
<!-- Node2 -->
<g id="node2" class="node">
<title>Node2</title>
<g id="a_node2"><a xlink:href="memfd_8h.html" target="_top" xlink:title="Helper data structure for memory file.">
<polygon fill="white" stroke="black" points="252.5,-56.5 252.5,-75.5 307.5,-75.5 307.5,-56.5 252.5,-56.5"/>
<text text-anchor="middle" x="280" y="-63.5" font-family="Helvetica,sans-Serif" font-size="10.00">memfd.h</text>
</a>
</g>
</g>
<!-- Node1&#45;&gt;Node2 -->
<g id="edge1" class="edge">
<title>Node1&#45;&gt;Node2</title>
<path fill="none" stroke="midnightblue" d="M508.54,-168.37C464.99,-149.05 359.49,-102.26 308.52,-79.65"/>
<polygon fill="midnightblue" stroke="midnightblue" points="309.93,-76.45 299.37,-75.59 307.09,-82.85 309.93,-76.45"/>
</g>
<!-- Node12 -->
<g id="node12" class="node">
<title>Node12</title>
<g id="a_node12"><a xlink:href="brick-mpi_8h.html" target="_top" xlink:title="MPI stuff related to bricks.">
<polygon fill="white" stroke="black" points="455.5,-112.5 455.5,-131.5 520.5,-131.5 520.5,-112.5 455.5,-112.5"/>
<text text-anchor="middle" x="488" y="-119.5" font-family="Helvetica,sans-Serif" font-size="10.00">brick&#45;mpi.h</text>
</a>
</g>
</g>
<!-- Node1&#45;&gt;Node12 -->
<g id="edge11" class="edge">
<title>Node1&#45;&gt;Node12</title>
<path fill="none" stroke="midnightblue" d="M521.39,-168.08C515.74,-160.46 507.46,-149.26 500.55,-139.94"/>
<polygon fill="midnightblue" stroke="midnightblue" points="503.25,-137.7 494.48,-131.75 497.62,-141.87 503.25,-137.7"/>
</g>
<!-- Node25 -->
<g id="node25" class="node">
<title>Node25</title>
<g id="a_node25"><a xlink:title=" ">
<polygon fill="white" stroke="#bfbfbf" points="539,-112.5 539,-131.5 599,-131.5 599,-112.5 539,-112.5"/>
<text text-anchor="middle" x="569" y="-119.5" font-family="Helvetica,sans-Serif" font-size="10.00">sys/stat.h</text>
</a>
</g>
</g>
<!-- Node1&#45;&gt;Node25 -->
<g id="edge30" class="edge">
<title>Node1&#45;&gt;Node25</title>
<path fill="none" stroke="midnightblue" d="M534.77,-168.08C540.56,-160.46 549.06,-149.26 556.14,-139.94"/>
<polygon fill="midnightblue" stroke="midnightblue" points="559.1,-141.83 562.36,-131.75 553.52,-137.6 559.1,-141.83"/>
</g>
<!-- Node26 -->
<g id="node26" class="node">
<title>Node26</title>
<g id="a_node26"><a xlink:title=" ">
<polygon fill="white" stroke="#bfbfbf" points="617,-112.5 617,-131.5 661,-131.5 661,-112.5 617,-112.5"/>
<text text-anchor="middle" x="639" y="-119.5" font-family="Helvetica,sans-Serif" font-size="10.00">fcntl.h</text>
</a>
</g>
</g>
<!-- Node1&#45;&gt;Node26 -->
<g id="edge31" class="edge">
<title>Node1&#45;&gt;Node26</title>
<path fill="none" stroke="midnightblue" d="M545.83,-168.32C563.72,-159.62 591.48,-146.12 612.05,-136.11"/>
<polygon fill="midnightblue" stroke="midnightblue" points="613.75,-139.18 621.21,-131.65 610.69,-132.88 613.75,-139.18"/>
</g>
<!-- Node3 -->
<g id="node3" class="node">
<title>Node3</title>
<g id="a_node3"><a xlink:title=" ">
<polygon fill="white" stroke="#bfbfbf" points="0,-0.5 0,-19.5 54,-19.5 54,-0.5 0,-0.5"/>
<text text-anchor="middle" x="27" y="-7.5" font-family="Helvetica,sans-Serif" font-size="10.00">iostream</text>
</a>
</g>
</g>
<!-- Node2&#45;&gt;Node3 -->
<g id="edge2" class="edge">
<title>Node2&#45;&gt;Node3</title>
<path fill="none" stroke="midnightblue" d="M252.18,-59.6C212.59,-51.85 137.51,-36.84 63.99,-20.16"/>
<polygon fill="midnightblue" stroke="midnightblue" points="64.63,-16.71 54.1,-17.9 63.07,-23.54 64.63,-16.71"/>
</g>
<!-- Node4 -->
<g id="node4" class="node">
<title>Node4</title>
<g id="a_node4"><a xlink:title=" ">
<polygon fill="white" stroke="#bfbfbf" points="72,-0.5 72,-19.5 116,-19.5 116,-0.5 72,-0.5"/>
<text text-anchor="middle" x="94" y="-7.5" font-family="Helvetica,sans-Serif" font-size="10.00">vector</text>
</a>
</g>
</g>
<!-- Node2&#45;&gt;Node4 -->
<g id="edge3" class="edge">
<title>Node2&#45;&gt;Node4</title>
<path fill="none" stroke="midnightblue" d="M252.15,-56.92C218.39,-47.11 161.62,-30.63 126.06,-20.31"/>
<polygon fill="midnightblue" stroke="midnightblue" points="126.78,-16.87 116.2,-17.44 124.83,-23.59 126.78,-16.87"/>
</g>
<!-- Node5 -->
<g id="node5" class="node">
<title>Node5</title>
<g id="a_node5"><a xlink:title=" ">
<polygon fill="white" stroke="#bfbfbf" points="587.5,-0.5 587.5,-19.5 660.5,-19.5 660.5,-0.5 587.5,-0.5"/>
<text text-anchor="middle" x="624" y="-7.5" font-family="Helvetica,sans-Serif" font-size="10.00">initializer_list</text>
</a>
</g>
</g>
<!-- Node2&#45;&gt;Node5 -->
<g id="edge4" class="edge">
<title>Node2&#45;&gt;Node5</title>
<path fill="none" stroke="midnightblue" d="M307.57,-60.67C366.3,-51.45 504.33,-29.79 577.14,-18.36"/>
<polygon fill="midnightblue" stroke="midnightblue" points="578.06,-21.76 587.39,-16.75 576.97,-14.84 578.06,-21.76"/>
</g>
<!-- Node6 -->
<g id="node6" class="node">
<title>Node6</title>
<g id="a_node6"><a xlink:title=" ">
<polygon fill="white" stroke="#bfbfbf" points="134.5,-0.5 134.5,-19.5 205.5,-19.5 205.5,-0.5 134.5,-0.5"/>
<text text-anchor="middle" x="170" y="-7.5" font-family="Helvetica,sans-Serif" font-size="10.00">sys/mman.h</text>
</a>
</g>
</g>
<!-- Node2&#45;&gt;Node6 -->
<g id="edge5" class="edge">
<title>Node2&#45;&gt;Node6</title>
<path fill="none" stroke="midnightblue" d="M262.33,-56.32C244.61,-47.62 217.1,-34.12 196.71,-24.11"/>
<polygon fill="midnightblue" stroke="midnightblue" points="198.15,-20.92 187.63,-19.65 195.06,-27.2 198.15,-20.92"/>
</g>
<!-- Node7 -->
<g id="node7" class="node">
<title>Node7</title>
<g id="a_node7"><a xlink:title=" ">
<polygon fill="white" stroke="#bfbfbf" points="224,-0.5 224,-19.5 270,-19.5 270,-0.5 224,-0.5"/>
<text text-anchor="middle" x="247" y="-7.5" font-family="Helvetica,sans-Serif" font-size="10.00">stdio.h</text>
</a>
</g>
</g>
<!-- Node2&#45;&gt;Node7 -->
<g id="edge6" class="edge">
<title>Node2&#45;&gt;Node7</title>
<path fill="none" stroke="midnightblue" d="M274.55,-56.08C269.99,-48.61 263.33,-37.72 257.71,-28.52"/>
<polygon fill="midnightblue" stroke="midnightblue" points="260.55,-26.46 252.35,-19.75 254.58,-30.11 260.55,-26.46"/>
</g>
<!-- Node8 -->
<g id="node8" class="node">
<title>Node8</title>
<g id="a_node8"><a xlink:title=" ">
<polygon fill="white" stroke="#bfbfbf" points="288.5,-0.5 288.5,-19.5 337.5,-19.5 337.5,-0.5 288.5,-0.5"/>
<text text-anchor="middle" x="313" y="-7.5" font-family="Helvetica,sans-Serif" font-size="10.00">string.h</text>
</a>
</g>
</g>
<!-- Node2&#45;&gt;Node8 -->
<g id="edge7" class="edge">
<title>Node2&#45;&gt;Node8</title>
<path fill="none" stroke="midnightblue" d="M285.45,-56.08C290.01,-48.61 296.67,-37.72 302.29,-28.52"/>
<polygon fill="midnightblue" stroke="midnightblue" points="305.42,-30.11 307.65,-19.75 299.45,-26.46 305.42,-30.11"/>
</g>
<!-- Node9 -->
<g id="node9" class="node">
<title>Node9</title>
<g id="a_node9"><a xlink:title=" ">
<polygon fill="white" stroke="#bfbfbf" points="355.5,-0.5 355.5,-19.5 402.5,-19.5 402.5,-0.5 355.5,-0.5"/>
<text text-anchor="middle" x="379" y="-7.5" font-family="Helvetica,sans-Serif" font-size="10.00">errno.h</text>
</a>
</g>
</g>
<!-- Node2&#45;&gt;Node9 -->
<g id="edge8" class="edge">
<title>Node2&#45;&gt;Node9</title>
<path fill="none" stroke="midnightblue" d="M295.91,-56.32C311.64,-47.74 335.94,-34.49 354.21,-24.52"/>
<polygon fill="midnightblue" stroke="midnightblue" points="356.03,-27.52 363.13,-19.65 352.68,-21.37 356.03,-27.52"/>
</g>
<!-- Node10 -->
<g id="node10" class="node">
<title>Node10</title>
<g id="a_node10"><a xlink:title=" ">
<polygon fill="white" stroke="#bfbfbf" points="420.5,-0.5 420.5,-19.5 471.5,-19.5 471.5,-0.5 420.5,-0.5"/>
<text text-anchor="middle" x="446" y="-7.5" font-family="Helvetica,sans-Serif" font-size="10.00">unistd.h</text>
</a>
</g>
</g>
<!-- Node2&#45;&gt;Node10 -->
<g id="edge9" class="edge">
<title>Node2&#45;&gt;Node10</title>
<path fill="none" stroke="midnightblue" d="M306.3,-56.44C334.52,-47.27 379.47,-32.64 410.73,-22.47"/>
<polygon fill="midnightblue" stroke="midnightblue" points="411.94,-25.76 420.37,-19.34 409.77,-19.1 411.94,-25.76"/>
</g>
<!-- Node11 -->
<g id="node11" class="node">
<title>Node11</title>
<g id="a_node11"><a xlink:title=" ">
<polygon fill="white" stroke="#bfbfbf" points="489.5,-0.5 489.5,-19.5 530.5,-19.5 530.5,-0.5 489.5,-0.5"/>
<text text-anchor="middle" x="510" y="-7.5" font-family="Helvetica,sans-Serif" font-size="10.00">mpi.h</text>
</a>
</g>
</g>
<!-- Node2&#45;&gt;Node11 -->
<g id="edge10" class="edge">
<title>Node2&#45;&gt;Node11</title>
<path fill="none" stroke="midnightblue" d="M307.65,-59.42C344.56,-51.83 412.17,-37.45 479.47,-19.99"/>
<polygon fill="midnightblue" stroke="midnightblue" points="480.61,-23.31 489.4,-17.39 478.84,-16.54 480.61,-23.31"/>
</g>
<!-- Node12&#45;&gt;Node2 -->
<g id="edge29" class="edge">
<title>Node12&#45;&gt;Node2</title>
<path fill="none" stroke="midnightblue" d="M455.04,-112.44C417.63,-102.73 356.73,-86.92 317.53,-76.74"/>
<polygon fill="midnightblue" stroke="midnightblue" points="318.37,-73.35 307.81,-74.22 316.61,-80.12 318.37,-73.35"/>
</g>
<!-- Node12&#45;&gt;Node3 -->
<g id="edge18" class="edge">
<title>Node12&#45;&gt;Node3</title>
<path fill="none" stroke="midnightblue" d="M455.18,-118.75C398.99,-114.31 281.13,-102.49 185,-76 137.01,-62.78 84.03,-38.95 53.23,-24.11"/>
<polygon fill="midnightblue" stroke="midnightblue" points="54.57,-20.87 44.05,-19.63 51.5,-27.16 54.57,-20.87"/>
</g>
<!-- Node12&#45;&gt;Node4 -->
<g id="edge12" class="edge">
<title>Node12&#45;&gt;Node4</title>
<path fill="none" stroke="midnightblue" d="M455.33,-117.42C407.82,-111.68 317.24,-98.68 243,-76 198.14,-62.29 148.72,-38.99 119.57,-24.32"/>
<polygon fill="midnightblue" stroke="midnightblue" points="121,-21.12 110.5,-19.71 117.83,-27.36 121,-21.12"/>
</g>
<!-- Node12&#45;&gt;Node10 -->
<g id="edge21" class="edge">
<title>Node12&#45;&gt;Node10</title>
<path fill="none" stroke="midnightblue" d="M455.44,-116.31C431.48,-110.97 400.49,-99.68 385,-76 372.02,-56.17 396.4,-36.81 418.08,-24.45"/>
<polygon fill="midnightblue" stroke="midnightblue" points="419.94,-27.42 427.09,-19.6 416.63,-21.25 419.94,-27.42"/>
</g>
<!-- Node12&#45;&gt;Node11 -->
<g id="edge19" class="edge">
<title>Node12&#45;&gt;Node11</title>
<path fill="none" stroke="midnightblue" d="M455.3,-113.05C420.85,-103.02 373.99,-83.67 393,-56 398.16,-48.48 446.75,-31.51 479.66,-20.69"/>
<polygon fill="midnightblue" stroke="midnightblue" points="480.88,-23.97 489.31,-17.55 478.72,-17.32 480.88,-23.97"/>
</g>
<!-- Node13 -->
<g id="node13" class="node">
<title>Node13</title>
<g id="a_node13"><a xlink:title=" ">
<polygon fill="white" stroke="#bfbfbf" points="402.5,-56.5 402.5,-75.5 485.5,-75.5 485.5,-56.5 402.5,-56.5"/>
<text text-anchor="middle" x="444" y="-63.5" font-family="Helvetica,sans-Serif" font-size="10.00">unordered_map</text>
</a>
</g>
</g>
<!-- Node12&#45;&gt;Node13 -->
<g id="edge13" class="edge">
<title>Node12&#45;&gt;Node13</title>
<path fill="none" stroke="midnightblue" d="M480.73,-112.08C474.46,-104.38 465.21,-93.03 457.57,-83.65"/>
<polygon fill="midnightblue" stroke="midnightblue" points="460.16,-81.29 451.13,-75.75 454.73,-85.71 460.16,-81.29"/>
</g>
<!-- Node14 -->
<g id="node14" class="node">
<title>Node14</title>
<g id="a_node14"><a xlink:title=" ">
<polygon fill="white" stroke="#bfbfbf" points="504,-56.5 504,-75.5 560,-75.5 560,-56.5 504,-56.5"/>
<text text-anchor="middle" x="532" y="-63.5" font-family="Helvetica,sans-Serif" font-size="10.00">algorithm</text>
</a>
</g>
</g>
<!-- Node12&#45;&gt;Node14 -->
<g id="edge14" class="edge">
<title>Node12&#45;&gt;Node14</title>
<path fill="none" stroke="midnightblue" d="M495.27,-112.08C501.54,-104.38 510.79,-93.03 518.43,-83.65"/>
<polygon fill="midnightblue" stroke="midnightblue" points="521.27,-85.71 524.87,-75.75 515.84,-81.29 521.27,-85.71"/>
</g>
<!-- Node15 -->
<g id="node15" class="node">
<title>Node15</title>
<g id="a_node15"><a xlink:title=" ">
<polygon fill="white" stroke="#bfbfbf" points="578.5,-56.5 578.5,-75.5 627.5,-75.5 627.5,-56.5 578.5,-56.5"/>
<text text-anchor="middle" x="603" y="-63.5" font-family="Helvetica,sans-Serif" font-size="10.00">cassert</text>
</a>
</g>
</g>
<!-- Node12&#45;&gt;Node15 -->
<g id="edge15" class="edge">
<title>Node12&#45;&gt;Node15</title>
<path fill="none" stroke="midnightblue" d="M506.22,-112.44C524.9,-103.68 554.16,-89.94 575.62,-79.86"/>
<polygon fill="midnightblue" stroke="midnightblue" points="577.3,-82.93 584.86,-75.52 574.32,-76.6 577.3,-82.93"/>
</g>
<!-- Node16 -->
<g id="node16" class="node">
<title>Node16</title>
<g id="a_node16"><a xlink:title=" ">
<polygon fill="white" stroke="#bfbfbf" points="646,-56.5 646,-75.5 692,-75.5 692,-56.5 646,-56.5"/>
<text text-anchor="middle" x="669" y="-63.5" font-family="Helvetica,sans-Serif" font-size="10.00">cstring</text>
</a>
</g>
</g>
<!-- Node12&#45;&gt;Node16 -->
<g id="edge16" class="edge">
<title>Node12&#45;&gt;Node16</title>
<path fill="none" stroke="midnightblue" d="M516.68,-112.44C549.11,-102.77 601.83,-87.04 635.96,-76.86"/>
<polygon fill="midnightblue" stroke="midnightblue" points="637.33,-80.1 645.91,-73.89 635.33,-73.39 637.33,-80.1"/>
</g>
<!-- Node17 -->
<g id="node17" class="node">
<title>Node17</title>
<g id="a_node17"><a xlink:title=" ">
<polygon fill="white" stroke="#bfbfbf" points="710,-56.5 710,-75.5 754,-75.5 754,-56.5 710,-56.5"/>
<text text-anchor="middle" x="732" y="-63.5" font-family="Helvetica,sans-Serif" font-size="10.00">cmath</text>
</a>
</g>
</g>
<!-- Node12&#45;&gt;Node17 -->
<g id="edge17" class="edge">
<title>Node12&#45;&gt;Node17</title>
<path fill="none" stroke="midnightblue" d="M520.56,-114.01C523.75,-113.33 526.94,-112.65 530,-112 602.86,-96.53 623.94,-94.95 699.68,-76.19"/>
<polygon fill="midnightblue" stroke="midnightblue" points="700.85,-79.51 709.7,-73.69 699.15,-72.72 700.85,-79.51"/>
</g>
<!-- Node18 -->
<g id="node18" class="node">
<title>Node18</title>
<g id="a_node18"><a xlink:title=" ">
<polygon fill="white" stroke="#bfbfbf" points="772,-56.5 772,-75.5 816,-75.5 816,-56.5 772,-56.5"/>
<text text-anchor="middle" x="794" y="-63.5" font-family="Helvetica,sans-Serif" font-size="10.00">omp.h</text>
</a>
</g>
</g>
<!-- Node12&#45;&gt;Node18 -->
<g id="edge20" class="edge">
<title>Node12&#45;&gt;Node18</title>
<path fill="none" stroke="midnightblue" d="M520.52,-113.84C523.72,-113.19 526.92,-112.57 530,-112 629.93,-93.59 658.95,-98.34 761.88,-76.01"/>
<polygon fill="midnightblue" stroke="midnightblue" points="762.72,-79.41 771.74,-73.84 761.22,-72.57 762.72,-79.41"/>
</g>
<!-- Node19 -->
<g id="node19" class="node">
<title>Node19</title>
<g id="a_node19"><a xlink:href="brick_8h.html" target="_top" xlink:title="Main header for bricks.">
<polygon fill="white" stroke="black" points="834,-56.5 834,-75.5 880,-75.5 880,-56.5 834,-56.5"/>
<text text-anchor="middle" x="857" y="-63.5" font-family="Helvetica,sans-Serif" font-size="10.00">brick.h</text>
</a>
</g>
</g>
<!-- Node12&#45;&gt;Node19 -->
<g id="edge22" class="edge">
<title>Node12&#45;&gt;Node19</title>
<path fill="none" stroke="midnightblue" d="M520.5,-113.73C523.71,-113.11 526.91,-112.52 530,-112 657.08,-90.67 693.71,-101.4 823.74,-75.98"/>
<polygon fill="midnightblue" stroke="midnightblue" points="824.56,-79.39 833.68,-74 823.19,-72.52 824.56,-79.39"/>
</g>
<!-- Node23 -->
<g id="node23" class="node">
<title>Node23</title>
<g id="a_node23"><a xlink:href="bitset_8h.html" target="_top" xlink:title="Set using bitfield.">
<polygon fill="white" stroke="black" points="898.5,-56.5 898.5,-75.5 947.5,-75.5 947.5,-56.5 898.5,-56.5"/>
<text text-anchor="middle" x="923" y="-63.5" font-family="Helvetica,sans-Serif" font-size="10.00">bitset.h</text>
</a>
</g>
</g>
<!-- Node12&#45;&gt;Node23 -->
<g id="edge26" class="edge">
<title>Node12&#45;&gt;Node23</title>
<path fill="none" stroke="midnightblue" d="M520.95,-113.58C524,-113 527.05,-112.46 530,-112 685.17,-87.67 729.41,-103.91 888.1,-75.87"/>
<polygon fill="midnightblue" stroke="midnightblue" points="889,-79.26 898.22,-74.05 887.76,-72.37 889,-79.26"/>
</g>
<!-- Node20 -->
<g id="node20" class="node">
<title>Node20</title>
<g id="a_node20"><a xlink:title=" ">
<polygon fill="white" stroke="#bfbfbf" points="722,-0.5 722,-19.5 770,-19.5 770,-0.5 722,-0.5"/>
<text text-anchor="middle" x="746" y="-7.5" font-family="Helvetica,sans-Serif" font-size="10.00">stdlib.h</text>
</a>
</g>
</g>
<!-- Node19&#45;&gt;Node20 -->
<g id="edge23" class="edge">
<title>Node19&#45;&gt;Node20</title>
<path fill="none" stroke="midnightblue" d="M839.17,-56.32C821.28,-47.62 793.52,-34.12 772.95,-24.11"/>
<polygon fill="midnightblue" stroke="midnightblue" points="774.31,-20.88 763.79,-19.65 771.25,-27.18 774.31,-20.88"/>
</g>
<!-- Node21 -->
<g id="node21" class="node">
<title>Node21</title>
<g id="a_node21"><a xlink:title=" ">
<polygon fill="white" stroke="#bfbfbf" points="788,-0.5 788,-19.5 850,-19.5 850,-0.5 788,-0.5"/>
<text text-anchor="middle" x="819" y="-7.5" font-family="Helvetica,sans-Serif" font-size="10.00">type_traits</text>
</a>
</g>
</g>
<!-- Node19&#45;&gt;Node21 -->
<g id="edge24" class="edge">
<title>Node19&#45;&gt;Node21</title>
<path fill="none" stroke="midnightblue" d="M850.73,-56.08C845.36,-48.46 837.48,-37.26 830.92,-27.94"/>
<polygon fill="midnightblue" stroke="midnightblue" points="833.78,-25.91 825.16,-19.75 828.05,-29.94 833.78,-25.91"/>
</g>
<!-- Node22 -->
<g id="node22" class="node">
<title>Node22</title>
<g id="a_node22"><a xlink:href="vecscatter_8h.html" target="_top" xlink:title="Interface to code generator.">
<polygon fill="white" stroke="black" points="868.5,-0.5 868.5,-19.5 939.5,-19.5 939.5,-0.5 868.5,-0.5"/>
<text text-anchor="middle" x="904" y="-7.5" font-family="Helvetica,sans-Serif" font-size="10.00">vecscatter.h</text>
</a>
</g>
</g>
<!-- Node19&#45;&gt;Node22 -->
<g id="edge25" class="edge">
<title>Node19&#45;&gt;Node22</title>
<path fill="none" stroke="midnightblue" d="M864.76,-56.08C871.54,-48.3 881.54,-36.8 889.76,-27.37"/>
<polygon fill="midnightblue" stroke="midnightblue" points="892.46,-29.59 896.38,-19.75 887.18,-25 892.46,-29.59"/>
</g>
<!-- Node23&#45;&gt;Node5 -->
<g id="edge27" class="edge">
<title>Node23&#45;&gt;Node5</title>
<path fill="none" stroke="midnightblue" d="M898.18,-58.15C895.1,-57.38 891.98,-56.65 889,-56 813.11,-39.55 723.91,-25.47 670.77,-17.63"/>
<polygon fill="midnightblue" stroke="midnightblue" points="671.04,-14.13 660.64,-16.15 670.02,-21.06 671.04,-14.13"/>
</g>
<!-- Node24 -->
<g id="node24" class="node">
<title>Node24</title>
<g id="a_node24"><a xlink:title=" ">
<polygon fill="white" stroke="#bfbfbf" points="958,-0.5 958,-19.5 1010,-19.5 1010,-0.5 958,-0.5"/>
<text text-anchor="middle" x="984" y="-7.5" font-family="Helvetica,sans-Serif" font-size="10.00">ostream</text>
</a>
</g>
</g>
<!-- Node23&#45;&gt;Node24 -->
<g id="edge28" class="edge">
<title>Node23&#45;&gt;Node24</title>
<path fill="none" stroke="midnightblue" d="M932.8,-56.32C941.82,-48.34 955.41,-36.31 966.32,-26.65"/>
<polygon fill="midnightblue" stroke="midnightblue" points="968.85,-29.08 974.02,-19.83 964.21,-23.84 968.85,-29.08"/>
</g>
</g>
</svg>
