<?xml version="1.0" encoding="UTF-8" standalone="no"?>
<!DOCTYPE svg PUBLIC "-//W3C//DTD SVG 1.1//EN"
 "http://www.w3.org/Graphics/SVG/1.1/DTD/svg11.dtd">
<!-- Generated by graphviz version 2.42.3 (0)
 -->
<!-- Title: include/memfd.h Pages: 1 -->
<svg width="630pt" height="84pt"
 viewBox="0.00 0.00 629.50 84.00" xmlns="http://www.w3.org/2000/svg" xmlns:xlink="http://www.w3.org/1999/xlink">
<g id="graph0" class="graph" transform="scale(1 1) rotate(0) translate(4 80)">
<title>include/memfd.h</title>
<polygon fill="white" stroke="transparent" points="-4,4 -4,-80 625.5,-80 625.5,4 -4,4"/>
<!-- Node1 -->
<g id="node1" class="node">
<title>Node1</title>
<g id="a_node1"><a xlink:title="Helper data structure for memory file.">
<polygon fill="#bfbfbf" stroke="black" points="293.5,-56.5 293.5,-75.5 382.5,-75.5 382.5,-56.5 293.5,-56.5"/>
<text text-anchor="middle" x="338" y="-63.5" font-family="Helvetica,sans-Serif" font-size="10.00">include/memfd.h</text>
</a>
</g>
</g>
<!-- Node2 -->
<g id="node2" class="node">
<title>Node2</title>
<g id="a_node2"><a xlink:title=" ">
<polygon fill="white" stroke="#bfbfbf" points="0,-0.5 0,-19.5 54,-19.5 54,-0.5 0,-0.5"/>
<text text-anchor="middle" x="27" y="-7.5" font-family="Helvetica,sans-Serif" font-size="10.00">iostream</text>
</a>
</g>
</g>
<!-- Node1&#45;&gt;Node2 -->
<g id="edge1" class="edge">
<title>Node1&#45;&gt;Node2</title>
<path fill="none" stroke="midnightblue" d="M293.5,-58.88C240.97,-51.39 150.79,-37.74 64.08,-20.08"/>
<polygon fill="midnightblue" stroke="midnightblue" points="64.57,-16.61 54.07,-18.02 63.16,-23.47 64.57,-16.61"/>
</g>
<!-- Node3 -->
<g id="node3" class="node">
<title>Node3</title>
<g id="a_node3"><a xlink:title=" ">
<polygon fill="white" stroke="#bfbfbf" points="72,-0.5 72,-19.5 116,-19.5 116,-0.5 72,-0.5"/>
<text text-anchor="middle" x="94" y="-7.5" font-family="Helvetica,sans-Serif" font-size="10.00">vector</text>
</a>
</g>
</g>
<!-- Node1&#45;&gt;Node3 -->
<g id="edge2" class="edge">
<title>Node1&#45;&gt;Node3</title>
<path fill="none" stroke="midnightblue" d="M293.31,-56.56C252.17,-48.57 189.26,-35.79 126.03,-20.12"/>
<polygon fill="midnightblue" stroke="midnightblue" points="126.85,-16.72 116.3,-17.69 125.15,-23.51 126.85,-16.72"/>
</g>
<!-- Node4 -->
<g id="node4" class="node">
<title>Node4</title>
<g id="a_node4"><a xlink:title=" ">
<polygon fill="white" stroke="#bfbfbf" points="134.5,-0.5 134.5,-19.5 207.5,-19.5 207.5,-0.5 134.5,-0.5"/>
<text text-anchor="middle" x="171" y="-7.5" font-family="Helvetica,sans-Serif" font-size="10.00">initializer_list</text>
</a>
</g>
</g>
<!-- Node1&#45;&gt;Node4 -->
<g id="edge3" class="edge">
<title>Node1&#45;&gt;Node4</title>
<path fill="none" stroke="midnightblue" d="M311.54,-56.44C283.32,-47.32 238.46,-32.81 207.03,-22.65"/>
<polygon fill="midnightblue" stroke="midnightblue" points="207.93,-19.26 197.34,-19.52 205.78,-25.92 207.93,-19.26"/>
</g>
<!-- Node5 -->
<g id="node5" class="node">
<title>Node5</title>
<g id="a_node5"><a xlink:title=" ">
<polygon fill="white" stroke="#bfbfbf" points="225.5,-0.5 225.5,-19.5 296.5,-19.5 296.5,-0.5 225.5,-0.5"/>
<text text-anchor="middle" x="261" y="-7.5" font-family="Helvetica,sans-Serif" font-size="10.00">sys/mman.h</text>
</a>
</g>
</g>
<!-- Node1&#45;&gt;Node5 -->
<g id="edge4" class="edge">
<title>Node1&#45;&gt;Node5</title>
<path fill="none" stroke="midnightblue" d="M325.63,-56.32C313.84,-48.06 295.87,-35.45 281.86,-25.63"/>
<polygon fill="midnightblue" stroke="midnightblue" points="283.54,-22.53 273.34,-19.65 279.52,-28.26 283.54,-22.53"/>
</g>
<!-- Node6 -->
<g id="node6" class="node">
<title>Node6</title>
<g id="a_node6"><a xlink:title=" ">
<polygon fill="white" stroke="#bfbfbf" points="315,-0.5 315,-19.5 361,-19.5 361,-0.5 315,-0.5"/>
<text text-anchor="middle" x="338" y="-7.5" font-family="Helvetica,sans-Serif" font-size="10.00">stdio.h</text>
</a>
</g>
</g>
<!-- Node1&#45;&gt;Node6 -->
<g id="edge5" class="edge">
<title>Node1&#45;&gt;Node6</title>
<path fill="none" stroke="midnightblue" d="M338,-56.08C338,-49.01 338,-38.86 338,-29.99"/>
<polygon fill="midnightblue" stroke="midnightblue" points="341.5,-29.75 338,-19.75 334.5,-29.75 341.5,-29.75"/>
</g>
<!-- Node7 -->
<g id="node7" class="node">
<title>Node7</title>
<g id="a_node7"><a xlink:title=" ">
<polygon fill="white" stroke="#bfbfbf" points="379.5,-0.5 379.5,-19.5 428.5,-19.5 428.5,-0.5 379.5,-0.5"/>
<text text-anchor="middle" x="404" y="-7.5" font-family="Helvetica,sans-Serif" font-size="10.00">string.h</text>
</a>
</g>
</g>
<!-- Node1&#45;&gt;Node7 -->
<g id="edge6" class="edge">
<title>Node1&#45;&gt;Node7</title>
<path fill="none" stroke="midnightblue" d="M348.6,-56.32C358.46,-48.26 373.35,-36.08 385.22,-26.37"/>
<polygon fill="midnightblue" stroke="midnightblue" points="387.68,-28.88 393.2,-19.83 383.25,-23.46 387.68,-28.88"/>
</g>
<!-- Node8 -->
<g id="node8" class="node">
<title>Node8</title>
<g id="a_node8"><a xlink:title=" ">
<polygon fill="white" stroke="#bfbfbf" points="446.5,-0.5 446.5,-19.5 493.5,-19.5 493.5,-0.5 446.5,-0.5"/>
<text text-anchor="middle" x="470" y="-7.5" font-family="Helvetica,sans-Serif" font-size="10.00">errno.h</text>
</a>
</g>
</g>
<!-- Node1&#45;&gt;Node8 -->
<g id="edge7" class="edge">
<title>Node1&#45;&gt;Node8</title>
<path fill="none" stroke="midnightblue" d="M358.92,-56.44C380.74,-47.52 415.15,-33.44 439.89,-23.32"/>
<polygon fill="midnightblue" stroke="midnightblue" points="441.25,-26.54 449.18,-19.52 438.6,-20.06 441.25,-26.54"/>
</g>
<!-- Node9 -->
<g id="node9" class="node">
<title>Node9</title>
<g id="a_node9"><a xlink:title=" ">
<polygon fill="white" stroke="#bfbfbf" points="511.5,-0.5 511.5,-19.5 562.5,-19.5 562.5,-0.5 511.5,-0.5"/>
<text text-anchor="middle" x="537" y="-7.5" font-family="Helvetica,sans-Serif" font-size="10.00">unistd.h</text>
</a>
</g>
</g>
<!-- Node1&#45;&gt;Node9 -->
<g id="edge8" class="edge">
<title>Node1&#45;&gt;Node9</title>
<path fill="none" stroke="midnightblue" d="M369.53,-56.44C405.4,-46.71 463.82,-30.86 501.32,-20.68"/>
<polygon fill="midnightblue" stroke="midnightblue" points="502.58,-23.97 511.31,-17.97 500.74,-17.21 502.58,-23.97"/>
</g>
<!-- Node10 -->
<g id="node10" class="node">
<title>Node10</title>
<g id="a_node10"><a xlink:title=" ">
<polygon fill="white" stroke="#bfbfbf" points="580.5,-0.5 580.5,-19.5 621.5,-19.5 621.5,-0.5 580.5,-0.5"/>
<text text-anchor="middle" x="601" y="-7.5" font-family="Helvetica,sans-Serif" font-size="10.00">mpi.h</text>
</a>
</g>
</g>
<!-- Node1&#45;&gt;Node10 -->
<g id="edge9" class="edge">
<title>Node1&#45;&gt;Node10</title>
<path fill="none" stroke="midnightblue" d="M382.75,-57.91C427.95,-50.42 499.96,-37.56 570.54,-20.16"/>
<polygon fill="midnightblue" stroke="midnightblue" points="571.63,-23.49 580.48,-17.68 569.93,-16.7 571.63,-23.49"/>
</g>
</g>
</svg>
