<?xml version="1.0" encoding="UTF-8" standalone="no"?>
<!DOCTYPE svg PUBLIC "-//W3C//DTD SVG 1.1//EN"
 "http://www.w3.org/Graphics/SVG/1.1/DTD/svg11.dtd">
<!-- Generated by graphviz version 2.42.3 (0)
 -->
<!-- Title: src/multiarray.cpp Pages: 1 -->
<svg width="333pt" height="196pt"
 viewBox="0.00 0.00 332.50 196.00" xmlns="http://www.w3.org/2000/svg" xmlns:xlink="http://www.w3.org/1999/xlink">
<g id="graph0" class="graph" transform="scale(1 1) rotate(0) translate(4 192)">
<title>src/multiarray.cpp</title>
<polygon fill="white" stroke="transparent" points="-4,4 -4,-192 328.5,-192 328.5,4 -4,4"/>
<!-- Node1 -->
<g id="node1" class="node">
<title>Node1</title>
<g id="a_node1"><a xlink:title=" ">
<polygon fill="#bfbfbf" stroke="black" points="143,-168.5 143,-187.5 237,-187.5 237,-168.5 143,-168.5"/>
<text text-anchor="middle" x="190" y="-175.5" font-family="Helvetica,sans-Serif" font-size="10.00">src/multiarray.cpp</text>
</a>
</g>
</g>
<!-- Node2 -->
<g id="node2" class="node">
<title>Node2</title>
<g id="a_node2"><a xlink:href="multiarray_8h.html" target="_top" xlink:title="Multidimensional array shortcuts.">
<polygon fill="white" stroke="black" points="31.5,-112.5 31.5,-131.5 98.5,-131.5 98.5,-112.5 31.5,-112.5"/>
<text text-anchor="middle" x="65" y="-119.5" font-family="Helvetica,sans-Serif" font-size="10.00">multiarray.h</text>
</a>
</g>
</g>
<!-- Node1&#45;&gt;Node2 -->
<g id="edge1" class="edge">
<title>Node1&#45;&gt;Node2</title>
<path fill="none" stroke="midnightblue" d="M170.19,-168.44C149.71,-159.6 117.52,-145.69 94.14,-135.59"/>
<polygon fill="midnightblue" stroke="midnightblue" points="95.28,-132.27 84.71,-131.52 92.51,-138.7 95.28,-132.27"/>
</g>
<!-- Node8 -->
<g id="node8" class="node">
<title>Node8</title>
<g id="a_node8"><a xlink:href="cmpconst_8h.html" target="_top" xlink:title="Tolerance for comparison.">
<polygon fill="white" stroke="black" points="117,-112.5 117,-131.5 185,-131.5 185,-112.5 117,-112.5"/>
<text text-anchor="middle" x="151" y="-119.5" font-family="Helvetica,sans-Serif" font-size="10.00">cmpconst.h</text>
</a>
</g>
</g>
<!-- Node1&#45;&gt;Node8 -->
<g id="edge7" class="edge">
<title>Node1&#45;&gt;Node8</title>
<path fill="none" stroke="midnightblue" d="M183.56,-168.08C178.05,-160.46 169.97,-149.26 163.24,-139.94"/>
<polygon fill="midnightblue" stroke="midnightblue" points="166.01,-137.81 157.32,-131.75 160.34,-141.91 166.01,-137.81"/>
</g>
<!-- Node9 -->
<g id="node9" class="node">
<title>Node9</title>
<g id="a_node9"><a xlink:title=" ">
<polygon fill="white" stroke="#bfbfbf" points="203,-112.5 203,-131.5 257,-131.5 257,-112.5 203,-112.5"/>
<text text-anchor="middle" x="230" y="-119.5" font-family="Helvetica,sans-Serif" font-size="10.00">iostream</text>
</a>
</g>
</g>
<!-- Node1&#45;&gt;Node9 -->
<g id="edge8" class="edge">
<title>Node1&#45;&gt;Node9</title>
<path fill="none" stroke="midnightblue" d="M196.61,-168.08C202.26,-160.46 210.54,-149.26 217.45,-139.94"/>
<polygon fill="midnightblue" stroke="midnightblue" points="220.38,-141.87 223.52,-131.75 214.75,-137.7 220.38,-141.87"/>
</g>
<!-- Node10 -->
<g id="node10" class="node">
<title>Node10</title>
<g id="a_node10"><a xlink:title=" ">
<polygon fill="white" stroke="#bfbfbf" points="275.5,-112.5 275.5,-131.5 324.5,-131.5 324.5,-112.5 275.5,-112.5"/>
<text text-anchor="middle" x="300" y="-119.5" font-family="Helvetica,sans-Serif" font-size="10.00">random</text>
</a>
</g>
</g>
<!-- Node1&#45;&gt;Node10 -->
<g id="edge9" class="edge">
<title>Node1&#45;&gt;Node10</title>
<path fill="none" stroke="midnightblue" d="M207.67,-168.32C225.39,-159.62 252.9,-146.12 273.29,-136.11"/>
<polygon fill="midnightblue" stroke="midnightblue" points="274.94,-139.2 282.37,-131.65 271.85,-132.92 274.94,-139.2"/>
</g>
<!-- Node3 -->
<g id="node3" class="node">
<title>Node3</title>
<g id="a_node3"><a xlink:title=" ">
<polygon fill="white" stroke="#bfbfbf" points="12,-56.5 12,-75.5 56,-75.5 56,-56.5 12,-56.5"/>
<text text-anchor="middle" x="34" y="-63.5" font-family="Helvetica,sans-Serif" font-size="10.00">vector</text>
</a>
</g>
</g>
<!-- Node2&#45;&gt;Node3 -->
<g id="edge2" class="edge">
<title>Node2&#45;&gt;Node3</title>
<path fill="none" stroke="midnightblue" d="M59.88,-112.08C55.59,-104.61 49.34,-93.72 44.06,-84.52"/>
<polygon fill="midnightblue" stroke="midnightblue" points="47.04,-82.68 39.02,-75.75 40.97,-86.17 47.04,-82.68"/>
</g>
<!-- Node4 -->
<g id="node4" class="node">
<title>Node4</title>
<g id="a_node4"><a xlink:href="brick_8h.html" target="_top" xlink:title="Main header for bricks.">
<polygon fill="white" stroke="black" points="74,-56.5 74,-75.5 120,-75.5 120,-56.5 74,-56.5"/>
<text text-anchor="middle" x="97" y="-63.5" font-family="Helvetica,sans-Serif" font-size="10.00">brick.h</text>
</a>
</g>
</g>
<!-- Node2&#45;&gt;Node4 -->
<g id="edge3" class="edge">
<title>Node2&#45;&gt;Node4</title>
<path fill="none" stroke="midnightblue" d="M70.28,-112.08C74.71,-104.61 81.16,-93.72 86.62,-84.52"/>
<polygon fill="midnightblue" stroke="midnightblue" points="89.73,-86.14 91.81,-75.75 83.71,-82.57 89.73,-86.14"/>
</g>
<!-- Node5 -->
<g id="node5" class="node">
<title>Node5</title>
<g id="a_node5"><a xlink:title=" ">
<polygon fill="white" stroke="#bfbfbf" points="0,-0.5 0,-19.5 48,-19.5 48,-0.5 0,-0.5"/>
<text text-anchor="middle" x="24" y="-7.5" font-family="Helvetica,sans-Serif" font-size="10.00">stdlib.h</text>
</a>
</g>
</g>
<!-- Node4&#45;&gt;Node5 -->
<g id="edge4" class="edge">
<title>Node4&#45;&gt;Node5</title>
<path fill="none" stroke="midnightblue" d="M85.27,-56.32C74.16,-48.11 57.26,-35.6 44.02,-25.81"/>
<polygon fill="midnightblue" stroke="midnightblue" points="46.06,-22.97 35.94,-19.83 41.9,-28.59 46.06,-22.97"/>
</g>
<!-- Node6 -->
<g id="node6" class="node">
<title>Node6</title>
<g id="a_node6"><a xlink:title=" ">
<polygon fill="white" stroke="#bfbfbf" points="66,-0.5 66,-19.5 128,-19.5 128,-0.5 66,-0.5"/>
<text text-anchor="middle" x="97" y="-7.5" font-family="Helvetica,sans-Serif" font-size="10.00">type_traits</text>
</a>
</g>
</g>
<!-- Node4&#45;&gt;Node6 -->
<g id="edge5" class="edge">
<title>Node4&#45;&gt;Node6</title>
<path fill="none" stroke="midnightblue" d="M97,-56.08C97,-49.01 97,-38.86 97,-29.99"/>
<polygon fill="midnightblue" stroke="midnightblue" points="100.5,-29.75 97,-19.75 93.5,-29.75 100.5,-29.75"/>
</g>
<!-- Node7 -->
<g id="node7" class="node">
<title>Node7</title>
<g id="a_node7"><a xlink:href="vecscatter_8h.html" target="_top" xlink:title="Interface to code generator.">
<polygon fill="white" stroke="black" points="146.5,-0.5 146.5,-19.5 217.5,-19.5 217.5,-0.5 146.5,-0.5"/>
<text text-anchor="middle" x="182" y="-7.5" font-family="Helvetica,sans-Serif" font-size="10.00">vecscatter.h</text>
</a>
</g>
</g>
<!-- Node4&#45;&gt;Node7 -->
<g id="edge6" class="edge">
<title>Node4&#45;&gt;Node7</title>
<path fill="none" stroke="midnightblue" d="M110.66,-56.32C123.92,-47.9 144.27,-34.97 159.85,-25.07"/>
<polygon fill="midnightblue" stroke="midnightblue" points="161.81,-27.97 168.38,-19.65 158.06,-22.06 161.81,-27.97"/>
</g>
</g>
</svg>
